<svg width="86" height="92" viewBox="0 0 86 92" fill="none" xmlns="http://www.w3.org/2000/svg">
<path id="Vector" d="M49.1108 91.6174C31.6675 91.6358 15.1395 82.6511 5.84306 67.5582C-8.71814 43.913 5.41283 12.1196 31.9068 2.86012C49.6339 -3.33545 71.9262 0.537861 84.4278 14.448C84.9731 15.0554 85.3602 15.9227 85.4674 16.7136C85.8872 19.8059 85.4609 21.883 83.1449 24.0857C78.8047 28.2128 74.4017 32.2796 70.0183 36.366C65.2047 40.8553 60.4577 45.4185 55.6088 49.8696C54.1128 51.242 52.4206 52.4999 50.429 53.0912C47.8581 53.855 45.1472 53.0555 43.0091 51.6264C39.7255 49.431 39.6248 43.318 42.3631 40.7321C49.7268 33.7789 57.1113 26.8441 64.4893 19.9032C64.5063 19.8872 64.5233 19.8724 64.5416 19.8576C65.597 18.9349 65.6192 18.8338 64.2971 18.2523C63.1306 17.7399 61.9001 17.3505 60.6813 16.9526C53.2144 14.5158 45.1394 14.2694 37.6619 16.8393C25.1931 21.1253 16.5701 32.3806 16.2759 44.8949C15.8953 61.0941 29.5451 75.2235 46.6968 76.3791C55.1079 76.9458 63.7126 74.3119 70.1634 69.1955C73.2561 66.7427 76.3881 64.142 80.6525 65.6006C82.5839 66.261 84.063 67.4474 85.1104 68.9996C85.6832 69.8485 85.8401 71.0102 85.9591 72.0525C86.7973 79.4172 74.5351 85.2678 68.6583 87.696C62.2336 90.3509 55.6088 91.6075 49.1108 91.6137V91.6174Z" fill="white"/>
</svg>
