<svg width="173" height="45" viewBox="0 0 173 45" fill="none" xmlns="http://www.w3.org/2000/svg">
<g id="Group">
<path id="Vector" d="M36.3859 0.45166V36.6517H30.5868C30.5581 36.1061 30.5198 35.5892 30.5198 35.0819C30.5198 28.3339 30.4911 21.5859 30.5485 14.8379C30.5581 13.6127 30.1944 13.182 28.9791 13.2968C27.9743 13.3925 26.9408 13.3925 25.936 13.2968C24.6824 13.1724 24.2708 13.5744 24.29 14.8857C24.357 21.5859 24.3187 28.2956 24.3187 34.9958C24.3187 35.5222 24.3187 36.0391 24.3187 36.6612H0.222534V0.45166H36.3955H36.3859Z" fill="#666666"/>
<path id="Vector_2" d="M154.962 36.671V44.6825H149.058V13.7661C149.154 13.6895 149.221 13.5842 149.288 13.5842C153.661 13.5746 158.044 13.3162 162.398 13.6321C168.255 14.0436 171.795 18.035 172.082 24.0652C172.159 25.5966 172.082 27.1664 171.795 28.6691C170.877 33.5124 167.451 36.3456 162.149 36.6615C159.824 36.805 157.479 36.6806 154.962 36.6806V36.671ZM155.039 18.3413V31.9713C157.374 31.8278 159.613 31.7225 161.843 31.5502C163.824 31.397 165.135 30.2102 165.355 28.3437C165.604 26.2762 165.585 24.1417 165.336 22.0743C165.106 20.2078 163.805 18.9826 161.853 18.7912C159.623 18.571 157.384 18.4849 155.029 18.3317L155.039 18.3413Z" fill="#666666"/>
<path id="Vector_3" d="M91.765 36.7572C90.9516 36.7572 90.253 36.7572 89.5544 36.7572C84.8749 36.7572 80.1954 36.805 75.5159 36.738C69.9081 36.671 66.9989 32.7179 68.5014 27.2908C69.2574 24.5629 71.2766 23.0601 74.9704 22.84C78.004 22.6581 81.0566 22.7538 84.1093 22.7347C84.5878 22.7347 85.0567 22.7347 85.5065 22.7347C85.8606 20.4758 84.9802 18.9826 82.9801 18.5423C81.9179 18.303 80.7983 18.2456 79.6978 18.236C76.4346 18.1977 73.1713 18.2264 69.8028 18.2264V13.5268C70.31 13.5268 70.8268 13.5268 71.3436 13.5268C75.1427 13.5268 78.9418 13.5076 82.7409 13.5459C83.7457 13.5555 84.7697 13.6703 85.7553 13.8809C89.3535 14.6849 91.5545 16.9438 91.7076 20.6864C91.9181 25.9699 91.765 31.263 91.765 36.7572ZM85.6309 27.3387C82.5687 27.3387 79.583 27.2621 76.5972 27.3769C75.4011 27.4248 74.6068 28.2192 74.5589 29.5593C74.4919 31.397 75.2766 32.2011 77.3436 32.2202C79.6786 32.2393 82.0232 32.2106 84.3582 32.1819C84.7792 32.1819 85.2003 32.1149 85.6309 32.0862V27.3387Z" fill="#666666"/>
<path id="Vector_4" d="M137.067 22.7441C137.307 19.9301 136.13 18.4752 133.374 18.3316C130.33 18.1785 127.278 18.2455 124.235 18.2263C123.316 18.2263 122.388 18.2263 121.364 18.2263V13.6224C121.66 13.5936 121.995 13.5362 122.33 13.5362C126.349 13.5362 130.369 13.4883 134.388 13.5745C135.689 13.6032 137.029 13.8329 138.283 14.2062C141.335 15.1251 143.077 17.3744 143.192 20.4278C143.393 25.7975 143.249 31.1863 143.249 36.6613C142.895 36.6996 142.56 36.757 142.225 36.757C137.192 36.757 132.149 36.7666 127.115 36.757C126.321 36.757 125.517 36.6996 124.742 36.5369C121.593 35.8573 119.708 33.3878 119.679 30.009C119.651 26.1804 121.201 23.9214 124.598 23.194C126.177 22.859 127.833 22.8207 129.46 22.7729C131.967 22.7059 134.484 22.7537 137.058 22.7537L137.067 22.7441ZM137.125 27.2715C134.254 27.2715 131.536 27.2715 128.809 27.2811C128.426 27.2811 128.024 27.3864 127.651 27.4917C126.378 27.865 125.986 28.8317 126.062 30.0377C126.129 31.1959 126.704 32.0095 127.9 32.0669C130.053 32.1626 132.206 32.1531 134.359 32.1818C135.268 32.1914 136.168 32.1818 137.125 32.1818V27.262V27.2715Z" fill="#666666"/>
<path id="Vector_5" d="M48.7403 36.6996H42.855V13.6989C42.9028 13.6607 42.9794 13.5649 43.0464 13.5649C47.812 13.6224 52.5872 13.4884 57.3241 13.8042C61.4869 14.0818 63.6305 16.2546 63.8219 20.4374C64.0707 25.7975 63.8793 31.1768 63.8793 36.6518H57.8696C57.8696 35.015 57.8792 33.4357 57.8696 31.8564C57.8313 28.2861 57.8505 24.7159 57.707 21.1553C57.6304 19.3654 56.9892 18.7528 55.2476 18.6571C53.1423 18.5326 51.0178 18.6283 48.7403 18.6283V36.6996Z" fill="#666666"/>
<path id="Vector_6" d="M116.464 31.789V36.5174C116.368 36.6036 116.301 36.7089 116.244 36.7089C112.32 36.6036 108.359 36.8237 104.502 36.2782C99.5164 35.5699 96.4637 31.8273 96.1479 26.7639C96.0426 25.0697 96.1383 23.3086 96.4446 21.6335C97.2675 17.2018 100.349 14.2346 104.961 13.8518C108.722 13.5455 112.531 13.7848 116.416 13.7848V18.5227C114.215 18.5227 112.062 18.4845 109.909 18.5323C108.722 18.561 107.526 18.6472 106.359 18.8577C104.54 19.1832 103.172 20.3031 102.914 22.093C102.627 24.0552 102.473 26.1609 102.885 28.0752C103.469 30.8223 105.909 31.6072 108.397 31.7508C111.029 31.9039 113.679 31.789 116.464 31.789Z" fill="#666666"/>
</g>
</svg>
