<svg width="119" height="42" viewBox="0 0 119 42" fill="none" xmlns="http://www.w3.org/2000/svg">
<g id="Group">
<path id="Vector" d="M25.192 0.265137C25.6513 0.695861 26.0915 1.09787 26.5221 1.50945C28.4169 3.30892 30.3116 5.10839 32.216 6.90786C32.4361 7.10887 32.5126 7.31945 32.5126 7.61617C32.5126 15.1108 32.5031 22.6054 32.5126 30.1C32.5126 30.502 32.3691 30.5594 32.0246 30.5594C27.7087 30.5594 23.3929 30.5594 19.077 30.5594C18.7803 30.5594 18.4837 30.5594 18.187 30.5786C17.9574 30.5786 17.8712 30.4924 17.8712 30.2531C17.8712 23.2562 17.8712 16.2594 17.8712 9.27206C17.8712 8.70733 17.8617 8.14261 17.8904 7.58745C17.8999 7.38645 17.9765 7.14715 18.1105 7.01315C20.388 4.81167 22.6847 2.62933 24.9718 0.446998C25.0197 0.399139 25.0675 0.370424 25.1728 0.28428L25.192 0.265137Z" fill="#666666"/>
<path id="Vector_2" d="M0.770386 7.16641C0.89479 7.15684 1.00005 7.1377 1.09575 7.1377C5.30636 7.1377 9.51696 7.14727 13.7371 7.1377C14.1199 7.1377 14.206 7.2717 14.206 7.61628C14.206 14.996 14.206 22.3758 14.1965 29.7555C14.1965 30.5308 14.1869 30.5308 13.4309 30.5308C9.32556 30.5308 5.21064 30.5308 1.1053 30.5308C1.00003 30.5308 0.90436 30.5212 0.770386 30.5117V7.15684V7.16641Z" fill="#666666"/>
<path id="Vector_3" d="M36.197 7.16608C36.3788 7.14694 36.5223 7.1278 36.6754 7.1278C40.7234 7.1278 44.7617 7.1278 48.8096 7.1278C48.9245 7.1278 49.0393 7.13737 49.1541 7.1278C49.4891 7.09908 49.5848 7.23309 49.5848 7.56809C49.5561 11.1766 49.5465 14.7755 49.5369 18.3841C49.5369 22.3084 49.5369 26.2328 49.5369 30.1572C49.5369 30.4252 49.489 30.5305 49.1828 30.5305C45.0488 30.5305 40.9147 30.5305 36.7807 30.5401C36.3915 30.5401 36.197 30.3486 36.197 29.9658C36.197 22.5094 36.197 15.0627 36.197 7.60638V7.15651V7.16608Z" fill="#666666"/>
<path id="Vector_4" d="M76.1595 30.5496C75.9202 30.5592 75.7671 30.5783 75.6045 30.5783C73.7767 30.5783 71.9584 30.5592 70.1306 30.5688C69.834 30.5688 69.6713 30.4826 69.5661 30.1859C69.1737 29.0947 68.7431 28.0131 68.3507 26.922C68.2454 26.6252 68.1019 26.52 67.7957 26.5295C65.2693 26.5295 62.7334 26.5295 60.207 26.5295C59.9582 26.5295 59.8816 26.6444 59.7955 26.8358C59.3553 27.9653 58.896 29.0852 58.4653 30.2242C58.3696 30.4826 58.2357 30.5975 57.9677 30.5975C56.0443 30.5975 54.1207 30.5975 52.1877 30.5975C52.1111 30.5975 52.0442 30.5688 51.9198 30.5496C51.9772 30.3773 52.0154 30.2242 52.0729 30.071C54.8767 22.7966 57.6902 15.5126 60.4941 8.23811C60.8099 7.42452 60.8099 7.43409 61.6712 7.43409C63.4415 7.43409 65.2119 7.44366 66.9823 7.43409C67.2981 7.43409 67.4512 7.5298 67.566 7.8361C70.2933 15.101 73.0398 22.3659 75.7863 29.6212C75.8915 29.9083 76.0064 30.1859 76.1499 30.5592L76.1595 30.5496ZM66.5612 21.916C65.7478 19.4752 64.9535 17.0727 64.1497 14.6798H64.0252C63.2118 17.0823 62.408 19.4848 61.585 21.916H66.5612Z" fill="#666666"/>
<path id="Vector_5" d="M101.088 18.9681C101.088 15.2639 101.088 11.5501 101.088 7.84587C101.088 7.51086 101.174 7.40557 101.519 7.41514C104.438 7.42471 107.347 7.41514 110.265 7.42471C111.806 7.42471 113.318 7.60657 114.744 8.22873C117.117 9.2529 118.39 11.0907 118.648 13.6271C118.792 15.015 118.782 16.4125 118.467 17.7812C117.845 20.4804 115.845 22.2416 112.993 22.6915C111.222 22.9691 109.433 22.9212 107.653 22.9116C107.165 22.9116 107.165 22.9116 107.165 23.4094C107.165 25.6587 107.165 27.908 107.184 30.1574C107.184 30.4924 107.088 30.5785 106.744 30.5785C105.04 30.5594 103.328 30.569 101.624 30.5785C101.107 30.5785 101.107 30.5785 101.107 30.0521C101.107 26.3574 101.107 22.6628 101.107 18.9681H101.088ZM107.165 12.2967C107.165 13.9334 107.165 15.5032 107.165 17.0729C107.165 18.0205 107.165 18.0301 108.122 18.0301C109.021 18.0301 109.921 18.0684 110.792 17.7908C111.615 17.5324 112.198 17.0251 112.352 16.1636C112.447 15.618 112.466 15.0437 112.419 14.4982C112.332 13.5314 111.806 12.8806 110.859 12.5647C110.074 12.3063 109.27 12.3063 108.466 12.3063C108.036 12.3063 107.605 12.3063 107.174 12.3063L107.165 12.2967Z" fill="#666666"/>
<path id="Vector_6" d="M85.7673 18.968C85.7673 15.2351 85.7673 11.5021 85.7673 7.76919C85.7673 7.50118 85.8535 7.41504 86.1214 7.41504C90.2842 7.41504 94.4469 7.41504 98.6001 7.41504C98.8968 7.41504 99.002 7.50118 99.002 7.80748C98.9829 9.24322 98.9829 10.6694 99.002 12.1051C99.002 12.4497 98.9064 12.5454 98.5714 12.5359C96.514 12.5263 94.4661 12.5359 92.4086 12.5263C91.844 12.5263 91.8344 12.5263 91.8344 13.0719C91.8344 13.9716 91.8344 14.8618 91.8344 15.7615C91.8344 16.3741 91.8344 16.3837 92.466 16.3837C94.38 16.3837 96.2939 16.3932 98.2078 16.3837C98.5619 16.3837 98.6384 16.4794 98.6288 16.8144C98.6097 18.2501 98.6193 19.6763 98.6288 21.1121C98.6288 21.4088 98.5236 21.4758 98.2556 21.4758C96.2747 21.4758 94.3034 21.4854 92.3225 21.4758C91.9588 21.4758 91.8057 21.5428 91.8153 21.9544C91.844 22.9594 91.844 23.974 91.8153 24.9886C91.8057 25.381 91.9492 25.4576 92.3033 25.4576C94.3608 25.4576 96.4087 25.4576 98.4661 25.4576C98.9924 25.4576 98.9829 25.4576 98.9829 25.984C98.9829 27.3624 98.9733 28.7503 98.9829 30.1286C98.9829 30.4827 98.8776 30.588 98.5235 30.588C94.3991 30.588 90.2746 30.5784 86.1597 30.588C85.6429 30.588 85.7578 30.2817 85.7578 30.0137C85.7578 26.3286 85.7578 22.6531 85.7578 18.968H85.7673Z" fill="#666666"/>
<path id="Vector_7" d="M77.5662 30.5689C77.5662 30.0807 77.5662 29.6787 77.5662 29.2863C77.5662 22.2798 77.5662 15.2734 77.5566 8.26692C77.5566 8.2382 77.5566 8.21906 77.5566 8.19034C77.5566 7.41504 77.5567 7.41504 78.3605 7.41504C79.9491 7.41504 81.5472 7.42461 83.1357 7.41504C83.4802 7.41504 83.595 7.50119 83.595 7.86491C83.5855 15.2542 83.595 22.6435 83.595 30.0329C83.595 30.5784 83.595 30.5689 83.04 30.5689C81.4514 30.5689 79.8533 30.5689 78.2648 30.5689C78.0542 30.5689 77.8342 30.5689 77.5758 30.5689H77.5662Z" fill="#666666"/>
<path id="Vector_8" d="M100.495 35.6899C101.5 35.7378 102.514 35.7474 103.509 35.8622C104.17 35.9388 104.505 36.3695 104.571 36.9055C104.648 37.5564 104.447 37.8531 103.662 38.2647C103.758 38.3221 103.844 38.3796 103.93 38.4179C104.591 38.7433 104.839 39.2506 104.705 40.0259C104.619 40.5428 104.131 40.9831 103.49 41.0118C102.581 41.0596 101.672 41.0692 100.763 41.0692C100.658 41.0692 100.476 40.9161 100.476 40.8299C100.466 39.1549 100.476 37.4798 100.476 35.8144C100.476 35.8048 100.485 35.7952 100.495 35.7857C100.495 35.7569 100.495 35.7187 100.495 35.6899ZM101.634 39.4995C101.634 39.5665 101.634 39.6239 101.634 39.6909C101.634 40.1695 101.876 40.4024 102.361 40.3896C102.504 40.3896 102.638 40.3705 102.782 40.3418C103.27 40.246 103.509 39.9493 103.49 39.4516C103.471 38.9539 103.184 38.7146 102.552 38.6572C101.933 38.6061 101.627 38.8837 101.634 39.4899V39.4995ZM101.634 37.1544C101.634 37.3363 101.605 37.5181 101.643 37.6904C101.662 37.7861 101.777 37.9393 101.854 37.9393C102.208 37.9393 102.581 37.9393 102.926 37.8531C103.27 37.7766 103.452 37.5086 103.414 37.1353C103.385 36.8098 103.146 36.5514 102.801 36.5035C102.648 36.4844 102.495 36.4748 102.342 36.4748C101.471 36.4748 101.643 36.4365 101.643 37.1544H101.634Z" fill="#666666"/>
<path id="Vector_9" d="M22.1679 35.7568H23.2684C23.278 36.0153 23.3067 36.2546 23.3067 36.4939C23.3067 37.451 23.3067 38.4082 23.3259 39.3653C23.345 40.1502 23.8618 40.5235 24.5795 40.3512C24.9623 40.2555 25.1824 40.0067 25.2398 39.6429C25.2972 39.3175 25.3163 38.9825 25.3163 38.657C25.3259 37.6999 25.3163 36.7427 25.3163 35.7664H26.4646C26.4742 35.9004 26.4934 36.0344 26.4934 36.1684C26.4934 37.2022 26.4934 38.2359 26.4934 39.2696C26.4838 40.4182 25.9671 41.0021 24.8283 41.1074C24.3785 41.1552 23.9 41.1361 23.4503 41.0787C22.7804 40.9925 22.2254 40.4852 22.1967 39.8152C22.1392 38.4848 22.1775 37.1447 22.1775 35.7568H22.1679Z" fill="#666666"/>
<path id="Vector_10" d="M83.729 37.1257C83.729 36.7333 83.7386 36.3791 83.729 36.025C83.729 35.8144 83.796 35.69 84.0065 35.6326C84.284 35.5656 84.5712 35.489 84.8774 35.4028C84.8774 36.2739 84.8774 37.0874 84.8774 37.901C84.8774 38.7529 84.8773 39.6144 84.8965 40.4662C84.8965 40.7725 84.8008 40.9735 84.485 40.9927C83.7099 41.0405 82.9252 41.098 82.15 41.0788C81.5089 41.0693 81.04 40.6672 80.906 40.0642C80.7816 39.5186 80.7146 38.9156 80.7912 38.37C80.9443 37.3267 81.8725 36.7907 83.0304 36.9822C83.2505 37.0204 83.4707 37.0683 83.7386 37.1162L83.729 37.1257ZM83.7481 39.1645C83.7481 38.8486 83.7481 38.5232 83.7481 38.2073C83.7481 38.102 83.729 37.9585 83.662 37.8915C83.2984 37.5182 82.3414 37.6235 82.1213 38.0733C81.796 38.7529 81.8343 39.4708 82.1309 40.1408C82.3606 40.6577 82.8965 40.5045 83.3271 40.4854C83.6238 40.4758 83.796 40.3418 83.7673 40.0068C83.7386 39.7292 83.7673 39.4516 83.7673 39.1645H83.7481Z" fill="#666666"/>
<path id="Vector_11" d="M67.0014 35.4121C67.0014 36.0726 67.0014 36.6851 67.0014 37.2977C67.0014 38.3697 67.0014 39.4418 67.011 40.5234C67.011 40.7722 66.9631 40.9637 66.676 40.9924C65.9488 41.0402 65.2214 41.1551 64.4941 41.1168C63.4893 41.0498 63.0587 40.6095 62.896 39.6236C62.8386 39.2599 62.8195 38.877 62.8674 38.5133C63.0109 37.4126 63.9487 36.8 65.1258 37.001C65.3554 37.0393 65.5755 37.0871 65.8435 37.1446C65.8435 36.7713 65.8626 36.4267 65.8435 36.0917C65.8244 35.8237 65.9296 35.6897 66.1784 35.6323C66.4368 35.5748 66.6952 35.5078 66.9823 35.4408L67.0014 35.4121ZM65.8722 39.1259C65.8722 38.81 65.8722 38.4846 65.8722 38.1687C65.8722 38.073 65.8531 37.9486 65.7861 37.8912C65.298 37.4126 64.2453 37.671 64.1305 38.341C64.0444 38.8579 64.1018 39.4035 64.1497 39.9299C64.1784 40.2266 64.4081 40.4468 64.7143 40.4755C65.0014 40.5042 65.3076 40.4851 65.5851 40.4277C65.6999 40.4085 65.8435 40.2267 65.8531 40.1118C65.8913 39.7864 65.8626 39.4513 65.8626 39.1163L65.8722 39.1259Z" fill="#666666"/>
<path id="Vector_12" d="M70.255 41.0884C70.6187 39.9781 70.9632 38.9539 71.2981 37.9298C71.5087 37.2885 71.7192 36.6472 71.9584 36.0154C71.9967 35.9006 72.1785 35.8336 72.2934 35.7474C72.2934 35.7474 72.322 35.7474 72.3316 35.7474C73.7958 35.7953 73.4034 35.4316 73.8915 36.8386C74.3317 38.1403 74.7623 39.4517 75.193 40.763C75.2217 40.8396 75.2408 40.9257 75.2791 41.0884C74.8867 41.0884 74.5422 41.1076 74.1881 41.0788C74.102 41.0788 74.0063 40.9161 73.968 40.8204C73.8723 40.5524 73.7958 40.2844 73.748 40.0068C73.7001 39.7101 73.5374 39.624 73.2695 39.6527C73.1451 39.6622 73.0111 39.6527 72.8867 39.6527C71.5852 39.6814 71.968 39.4421 71.6044 40.6577C71.4991 40.9927 71.3843 41.1363 71.0397 41.1076C70.8005 41.0884 70.5708 41.1076 70.2742 41.1076L70.255 41.0884ZM72.8197 36.7333C72.8197 36.7333 72.7335 36.7333 72.6953 36.7237C72.4943 37.432 72.2838 38.1403 72.0829 38.8582H73.413C73.2025 38.1116 73.0111 37.4225 72.8197 36.7333Z" fill="#666666"/>
<path id="Vector_13" d="M56.0538 37.1352C56.0538 36.7236 56.0347 36.3695 56.0634 36.0153C56.0729 35.8813 56.1782 35.6995 56.2931 35.6516C56.561 35.5367 56.8481 35.4984 57.1735 35.4219C57.1926 35.5463 57.2213 35.642 57.2213 35.7282C57.2213 37.3266 57.2213 38.9155 57.2213 40.514C57.2213 40.7246 57.2213 40.9256 56.9438 40.9734C56.0921 41.1362 55.2499 41.2414 54.3887 41.0692C53.5848 40.916 53.2403 40.3513 53.1255 39.6143C53.0107 38.8868 53.0011 38.1498 53.5179 37.5372C54.0155 36.9533 54.6854 36.9055 55.384 36.9916C55.5945 37.0203 55.805 37.0778 56.0634 37.1256L56.0538 37.1352ZM56.0634 39.1165C56.0634 38.8102 56.0634 38.5039 56.0634 38.1977C56.0634 38.0924 56.0443 37.9488 55.9773 37.8818C55.4892 37.4032 54.4557 37.6904 54.3122 38.3604C54.2356 38.705 54.2165 39.0687 54.2452 39.4228C54.3122 40.3608 54.7715 40.6767 55.6997 40.4757C55.9485 40.4183 56.0825 40.3034 56.0729 40.0354C56.0634 39.7291 56.0729 39.4228 56.0729 39.1165H56.0634Z" fill="#666666"/>
<path id="Vector_14" d="M3.66038 37.0776C3.66038 36.6947 3.64124 36.331 3.66038 35.9673C3.66038 35.8524 3.76565 35.6897 3.85178 35.6514C4.13887 35.5461 4.43551 35.4983 4.76087 35.4121C4.78001 35.5461 4.79916 35.6418 4.79916 35.7375C4.79916 37.336 4.79916 38.9345 4.79916 40.5329C4.79916 40.7531 4.78002 40.935 4.5025 40.9828C3.67952 41.1264 2.84696 41.2412 2.01441 41.0785C1.18186 40.9158 0.77038 40.3798 0.712963 39.4226C0.693824 39.0876 0.693824 38.7622 0.712963 38.4272C0.751241 37.6614 1.46896 37.001 2.33022 36.9819C2.75128 36.9819 3.16275 37.0489 3.62209 37.0871L3.66038 37.0776ZM3.66038 39.1451C3.66038 38.8292 3.66038 38.5038 3.66038 38.1879C3.66038 38.0826 3.64124 37.939 3.57425 37.872C3.10535 37.4222 2.11967 37.6519 1.94742 38.274C1.85172 38.6378 1.8326 39.0302 1.85174 39.4035C1.90916 40.2937 2.3015 40.5904 3.1819 40.4755C3.50726 40.4277 3.68908 40.3032 3.6508 39.9395C3.62209 39.6715 3.6508 39.4035 3.6508 39.1355L3.66038 39.1451Z" fill="#666666"/>
<path id="Vector_15" d="M114.476 39.1262C114.438 37.365 115.51 36.829 117.079 37.0013C118.179 37.1161 118.61 37.5947 118.687 38.6859C118.715 39.0975 118.687 39.5282 118.629 39.9398C118.534 40.5811 118.132 40.9926 117.49 41.0692C116.935 41.1362 116.361 41.1458 115.806 41.0692C114.983 40.9544 114.591 40.4471 114.495 39.5186C114.476 39.3655 114.476 39.2123 114.466 39.1262H114.476ZM117.615 39.0113C117.586 38.7912 117.567 38.5327 117.5 38.2934C117.385 37.8531 117.079 37.6713 116.562 37.6808C116.122 37.6808 115.787 37.8914 115.73 38.3126C115.663 38.772 115.653 39.2506 115.71 39.71C115.777 40.2652 116.093 40.5045 116.61 40.5045C117.146 40.5045 117.414 40.2843 117.529 39.7292C117.577 39.509 117.586 39.2793 117.615 39.0113Z" fill="#666666"/>
<path id="Vector_16" d="M58.3696 37.9106C58.2357 37.3268 58.2739 37.2598 58.8003 37.1545C59.518 37.0013 60.2357 36.8769 60.9725 37.0492C61.6807 37.2119 62.0061 37.5852 62.0156 38.3127C62.0252 39.088 62.0156 39.8728 62.0252 40.6481C62.0252 40.8587 61.9773 41.0023 61.7381 41.0119C60.8864 41.0406 60.0251 41.1171 59.1734 41.0884C58.4844 41.0597 58.0634 40.5907 58.0156 39.9781C57.9677 39.423 58.3218 38.9157 58.9629 38.7529C59.451 38.6285 59.9773 38.6285 60.4845 38.5519C60.6376 38.5328 60.7812 38.4371 60.9343 38.3701C60.8386 38.1882 60.7812 37.8724 60.6472 37.8436C60.2261 37.7384 59.7764 37.6809 59.3362 37.6905C59.0108 37.6905 58.695 37.8341 58.3792 37.9106H58.3696ZM60.9247 39.825C60.9247 39.6814 60.9438 39.5378 60.9247 39.4038C60.9055 39.3177 60.8003 39.1741 60.7429 39.1837C60.3409 39.1932 59.9294 39.222 59.5275 39.289C59.2404 39.3368 59.1256 39.5953 59.1256 39.8633C59.1256 40.1504 59.2404 40.3993 59.5467 40.4758C59.7572 40.5333 59.9773 40.562 60.1878 40.562C60.9055 40.562 60.9438 40.5333 60.9343 39.825H60.9247Z" fill="#666666"/>
<path id="Vector_17" d="M15.2109 37.9105C15.0769 37.3267 15.1152 37.2597 15.6511 37.1544C16.3592 37.0108 17.0578 36.8864 17.7851 37.0491C18.5219 37.2118 18.8473 37.5755 18.8569 38.3221C18.8664 39.0974 18.876 39.8823 18.8569 40.6576C18.8569 40.782 18.7037 40.9926 18.6176 40.9926C17.7468 41.05 16.876 41.1171 16.0147 41.0883C15.3257 41.0596 14.9046 40.581 14.8568 39.9685C14.8185 39.4133 15.1726 38.906 15.8042 38.7433C16.2922 38.6189 16.8186 38.6188 17.3258 38.5423C17.4789 38.5231 17.6224 38.4274 17.7756 38.3604C17.6799 38.1786 17.6224 37.8723 17.4884 37.834C17.0674 37.7287 16.6176 37.6713 16.1774 37.6808C15.852 37.6808 15.5362 37.8244 15.2204 37.901L15.2109 37.9105ZM17.766 39.8345C17.766 39.6813 17.7947 39.5282 17.766 39.375C17.7468 39.2889 17.632 39.1644 17.565 39.174C17.1726 39.1836 16.7707 39.2027 16.388 39.2793C16.0817 39.3367 15.9669 39.5952 15.9765 39.8823C15.9765 40.1695 16.12 40.4087 16.4166 40.4757C16.6272 40.5236 16.8473 40.5523 17.0578 40.5523C17.7564 40.5523 17.7851 40.514 17.7756 39.8249L17.766 39.8345Z" fill="#666666"/>
<path id="Vector_18" d="M78.7336 41.0883C78.7336 40.4279 78.7336 39.8344 78.7336 39.2314C78.7336 39.0878 78.7336 38.9538 78.7336 38.8102C78.7145 37.8339 78.3987 37.5851 77.4322 37.7286C77.1451 37.7765 77.0111 37.8818 77.0207 38.2072C77.0494 39.0495 77.0207 39.8918 77.0494 40.7341C77.0494 41.0022 76.9824 41.0883 76.7049 41.0979C75.9106 41.1074 75.9106 41.117 75.9011 40.3513C75.9011 39.4707 75.901 38.5901 75.8723 37.7095C75.8628 37.3745 75.9872 37.2309 76.3126 37.1639C77.0973 37.0108 77.8724 36.8768 78.6762 37.0395C79.5183 37.2214 79.8342 37.5946 79.8533 38.437C79.8629 39.2123 79.8533 39.9971 79.8724 40.7724C79.8724 40.983 79.8054 41.0883 79.5949 41.0787C79.3174 41.0787 79.0399 41.0787 78.7432 41.0787L78.7336 41.0883Z" fill="#666666"/>
<path id="Vector_19" d="M31.5557 41.0307C31.4791 41.0594 31.4696 41.0689 31.4505 41.0689C30.7614 41.1391 30.4169 40.836 30.4169 40.1596C30.4169 39.6332 30.4169 39.1163 30.4169 38.5899C30.4169 38.2836 30.3978 37.8911 30.0629 37.8146C29.6801 37.7284 29.259 37.7859 28.8667 37.8146C28.8092 37.8146 28.7422 38.0539 28.7422 38.1783C28.7422 39.0206 28.7423 39.8629 28.771 40.7052C28.7806 41.0019 28.6849 41.0785 28.4073 41.0881C27.6131 41.0881 27.6226 41.1072 27.6322 40.3128C27.6322 39.4322 27.6322 38.5516 27.6035 37.671C27.5939 37.3647 27.6992 37.2307 27.9863 37.1637C28.7901 36.9818 29.594 36.8574 30.4265 37.0393C31.2208 37.2116 31.5749 37.6231 31.5749 38.4272C31.5749 39.2886 31.5749 40.1596 31.5749 41.0211L31.5557 41.0307Z" fill="#666666"/>
<path id="Vector_20" d="M6.84705 39.2983C6.7992 40.0066 7.14372 40.4851 7.75617 40.4947C8.29206 40.4947 8.83752 40.4086 9.39256 40.3511C9.55524 40.7914 9.4787 40.9829 8.96194 41.0307C8.34949 41.0882 7.73703 41.1169 7.12457 41.0977C6.46427 41.069 6.03364 40.6861 5.83268 40.064C5.64128 39.4514 5.60303 38.8292 5.79442 38.2167C6.07194 37.3169 6.98102 36.8192 8.04324 37.0011C9.20116 37.1925 9.64138 38.0157 9.64138 39.0494C9.64138 39.126 9.45957 39.2695 9.3543 39.2791C8.67486 39.3078 7.99542 39.2983 7.31598 39.3078C7.16286 39.3078 7.00973 39.3078 6.84705 39.3078V39.2983ZM6.84705 38.6474H8.54088C8.56959 38.2645 8.47388 37.9008 8.13895 37.7572C7.871 37.6519 7.4978 37.6424 7.22985 37.7381C6.88535 37.8721 6.7992 38.2358 6.84705 38.6378V38.6474Z" fill="#666666"/>
<path id="Vector_21" d="M109.213 40.2458C109.27 40.935 109.28 40.9828 108.658 41.0498C108.055 41.1168 107.433 41.1168 106.82 41.0881C106.294 41.0594 105.902 40.7531 105.701 40.265C105.433 39.6237 105.375 38.9441 105.557 38.2741C105.796 37.3743 106.6 36.8957 107.691 36.9723C108.619 37.0393 109.28 37.6519 109.395 38.5516C109.395 38.5804 109.395 38.5995 109.395 38.6282C109.49 39.3652 109.452 39.2887 108.82 39.2887C108.179 39.2887 107.538 39.3078 106.897 39.3078C106.629 39.3078 106.552 39.4035 106.6 39.6524C106.677 40.1023 106.993 40.4851 107.452 40.5043C107.902 40.5234 108.361 40.4277 108.811 40.3798C108.935 40.3607 109.05 40.3033 109.194 40.265L109.213 40.2458ZM108.418 38.6952C108.332 38.4176 108.294 38.2358 108.208 38.0731C107.997 37.6806 107.634 37.5371 107.203 37.6519C106.811 37.7572 106.658 38.0539 106.629 38.4176C106.629 38.5038 106.725 38.6761 106.782 38.6761C107.289 38.6952 107.796 38.6856 108.418 38.6856V38.6952Z" fill="#666666"/>
<path id="Vector_22" d="M40.1396 39.3175C40.1013 39.9875 40.4458 40.4661 41.0392 40.4852C41.5176 40.4948 41.9961 40.3799 42.465 40.3129C42.5416 40.3034 42.6085 40.2842 42.6755 40.2651C42.8382 40.8489 42.7808 40.9829 42.2162 41.0404C41.6516 41.0978 41.0679 41.1265 40.4937 41.1074C39.7664 41.0787 39.2592 40.6767 39.1348 39.9779C39.0391 39.4132 39.0008 38.8006 39.1157 38.2455C39.3262 37.2787 40.331 36.7906 41.4411 37.0107C42.5894 37.2404 42.9626 38.0923 42.9531 39.0495C42.9531 39.126 42.7617 39.2696 42.6564 39.2792C41.977 39.3079 41.2975 39.2983 40.6181 39.3079C40.465 39.3079 40.3118 39.3175 40.1491 39.3271L40.1396 39.3175ZM41.9482 38.6762C41.7951 38.3412 41.7282 38.0732 41.5751 37.8626C41.3358 37.5467 40.953 37.5659 40.6181 37.6807C40.2736 37.7956 40.1492 38.1019 40.13 38.4369C40.13 38.5135 40.2544 38.657 40.331 38.6666C40.8286 38.6857 41.3167 38.6762 41.9387 38.6762H41.9482Z" fill="#666666"/>
<path id="Vector_23" d="M92.5617 40.2459C92.6574 40.916 92.6478 40.983 92.0066 41.05C91.4037 41.117 90.7817 41.117 90.1693 41.0882C89.6047 41.0595 89.2315 40.7054 89.0305 40.1885C88.8104 39.6046 88.753 38.992 88.9061 38.3795C89.0879 37.6137 89.6047 37.1447 90.3894 37.0299C91.8152 36.8097 92.6574 37.4797 92.8009 38.9059C92.8296 39.1835 92.7627 39.2983 92.4564 39.2888C91.7483 39.2792 91.0401 39.2888 90.3415 39.3079C89.9588 39.3079 89.8822 39.4036 89.997 39.7674C90.131 40.1885 90.3989 40.5139 90.8679 40.5044C91.3081 40.5044 91.7483 40.4182 92.198 40.3608C92.3224 40.3417 92.4373 40.2938 92.5617 40.2459ZM91.7961 38.6858C91.6813 38.3986 91.6335 38.188 91.5186 38.0062C91.3081 37.6712 90.9349 37.5467 90.5425 37.6616C90.1789 37.7669 90.0162 38.054 89.9875 38.4082C89.9875 38.4943 90.1023 38.6666 90.1789 38.6666C90.6765 38.6858 91.1741 38.6762 91.7961 38.6762V38.6858Z" fill="#666666"/>
<path id="Vector_24" d="M46.7043 40.3036C47.1254 40.3802 47.5177 40.4663 47.9101 40.5142C48.1398 40.5429 48.3885 40.5333 48.5895 40.4663C48.7617 40.4089 48.9627 40.2462 49.0106 40.093C49.0393 39.9973 48.8384 39.758 48.6948 39.691C48.3025 39.4996 47.8814 39.3751 47.489 39.2029C47.0775 39.021 46.7234 38.7721 46.6852 38.2648C46.6565 37.7671 46.934 37.346 47.4603 37.1545C48.2546 36.8578 49.0585 36.9344 49.8336 37.1832C50.2355 37.3077 50.0345 37.6618 50.0632 37.9585C49.7092 37.8628 49.3933 37.7384 49.068 37.7097C48.7617 37.681 48.4364 37.7097 48.1302 37.7767C48.0153 37.7958 47.8718 37.9585 47.8527 38.0734C47.8335 38.1691 47.9579 38.3318 48.0632 38.3893C48.3216 38.5328 48.5991 38.6286 48.8671 38.7434C49.1637 38.8678 49.4699 38.9731 49.7379 39.1263C50.0919 39.3369 50.2833 39.6527 50.2259 40.093C50.1685 40.5429 49.9197 40.8683 49.4986 41.0023C48.6852 41.2608 47.8526 41.2129 47.0297 41.0023C46.6947 40.9162 46.6373 40.6386 46.7043 40.3132V40.3036Z" fill="#666666"/>
<path id="Vector_25" d="M36.5415 40.2937C36.6084 40.1118 36.6658 39.9874 36.7041 39.863C36.9338 39.0398 37.1826 38.2167 37.3836 37.3935C37.4506 37.1255 37.575 37.0393 37.8333 37.0489C38.0726 37.0585 38.3118 37.0489 38.5989 37.0489C38.5702 37.2116 38.5702 37.3073 38.5415 37.3935C38.1491 38.5229 37.7663 39.662 37.3549 40.7914C37.307 40.9159 37.1348 40.9924 37.0104 41.0786C36.9912 41.0882 36.9625 41.0786 36.9338 41.0786C36.1618 41.1296 35.6483 40.7851 35.3931 40.0448C35.0869 39.1547 34.7711 38.2645 34.4553 37.3744C34.3692 37.1351 34.4266 37.0489 34.685 37.0393C35.5175 37.0011 35.5079 36.9915 35.7472 37.7764C35.9673 38.5229 36.1874 39.2695 36.4171 40.0161C36.4362 40.0831 36.484 40.1501 36.5415 40.2841V40.2937Z" fill="#666666"/>
<path id="Vector_26" d="M93.4612 40.3512C94.0067 40.4086 94.5043 40.4661 95.0115 40.5139C95.1263 40.5235 95.2604 40.5139 95.3465 40.4661C95.4996 40.3799 95.7388 40.2459 95.7388 40.1311C95.7388 39.9779 95.5857 39.7673 95.4326 39.6716C95.1838 39.5185 94.8871 39.4419 94.6192 39.3271C94.4087 39.2409 94.1885 39.1548 93.9971 39.0399C93.6335 38.8198 93.4134 38.5135 93.4326 38.0636C93.4517 37.6233 93.7292 37.3553 94.0929 37.1926C94.9063 36.8193 95.7388 36.9054 96.5714 37.183C96.8584 37.2787 96.8585 37.5372 96.7819 37.7573C96.7628 37.8147 96.5139 37.8243 96.3704 37.8147C95.9206 37.786 95.4613 37.7094 95.0115 37.719C94.8488 37.719 94.6957 37.9296 94.5426 38.0445C94.667 38.188 94.7723 38.3699 94.9349 38.4656C95.1359 38.59 95.3847 38.6475 95.6144 38.7336C95.8823 38.8485 96.1695 38.9346 96.4183 39.0878C96.7723 39.2983 97.0594 39.5951 96.9733 40.0545C96.8967 40.5235 96.6383 40.8872 96.1503 41.0212C95.3369 41.2414 94.5139 41.184 93.7101 40.9925C93.3177 40.8968 93.4325 40.5714 93.4517 40.3416L93.4612 40.3512Z" fill="#666666"/>
<path id="Vector_27" d="M14.0625 35.4028C14.0625 35.6996 14.0625 35.9101 14.0625 36.1303C14.0625 37.6522 14.0434 39.1645 14.0625 40.6864C14.0625 41.0022 13.9859 41.1075 13.651 41.1075C12.9046 41.0884 12.9046 41.1075 12.9046 40.3705C12.9046 38.9922 12.9046 37.6139 12.8855 36.2356C12.8855 35.8336 12.9811 35.6134 13.4118 35.5751C13.6127 35.556 13.8041 35.4794 14.0721 35.4124L14.0625 35.4028Z" fill="#666666"/>
<path id="Vector_28" d="M111.414 35.4121C111.414 35.8141 111.414 36.1396 111.414 36.4746C111.414 37.9103 111.414 39.3365 111.414 40.7722C111.414 41.0307 111.337 41.0977 111.088 41.1072C110.275 41.1264 110.275 41.136 110.275 40.3319C110.275 38.9536 110.275 37.5753 110.246 36.1874C110.246 35.795 110.38 35.6227 110.753 35.5748C110.954 35.5461 111.146 35.4791 111.404 35.4121H111.414Z" fill="#666666"/>
<path id="Vector_29" d="M113.586 35.4028C113.605 35.6613 113.624 35.8623 113.624 36.0633C113.624 37.633 113.624 39.2123 113.624 40.7821C113.624 41.0118 113.548 41.0884 113.318 41.098C112.476 41.1267 112.486 41.1363 112.486 40.3131C112.486 38.9443 112.486 37.5756 112.457 36.2069C112.457 35.8144 112.572 35.6038 112.974 35.5656C113.165 35.5464 113.347 35.4698 113.596 35.4028H113.586Z" fill="#666666"/>
<path id="Vector_30" d="M87.04 41.0212C86.9635 41.0595 86.9444 41.069 86.9157 41.0786C86.2394 41.1488 85.9012 40.8521 85.9012 40.1884C85.9012 39.3366 85.9012 38.4751 85.9012 37.6232C85.9012 37.3552 85.9874 37.2021 86.2458 37.1734C86.8678 37.1064 87.4898 37.0394 88.1119 36.9724C88.4277 36.9436 88.4468 37.1542 88.4564 37.3935C88.4564 37.6519 88.3607 37.6998 88.1119 37.6998C87.0592 37.6807 87.04 37.6998 87.04 38.7623C87.04 39.5184 87.04 40.265 87.04 41.0212Z" fill="#666666"/>
<path id="Vector_31" d="M46.2833 37.6711C45.9388 37.6998 45.6038 37.7285 45.2593 37.7572C45.001 37.7859 44.8957 37.9104 44.9053 38.188C44.934 39.0207 44.9148 39.8439 44.9531 40.6766C44.9627 41.002 44.8574 41.0977 44.5416 41.0882C43.6612 41.069 43.8239 41.1552 43.8047 40.3512C43.7952 39.461 43.7952 38.5613 43.7665 37.6711C43.7665 37.3361 43.8718 37.1734 44.2067 37.1351C44.7235 37.0776 45.2498 36.9915 45.7665 36.9628C46.3694 36.9341 46.446 37.0585 46.2833 37.6615V37.6711Z" fill="#666666"/>
<path id="Vector_32" d="M33.7088 41.0594C32.5988 41.1838 32.6084 41.1838 32.5988 40.1692C32.5988 39.279 32.5988 38.3793 32.5701 37.4891C32.5701 37.1637 32.6562 37.0393 33.0103 37.0488C33.728 37.0776 33.7184 37.0488 33.7184 37.7571C33.7184 38.7622 33.7184 39.7768 33.7184 40.7818C33.7184 40.8679 33.7088 40.9541 33.6993 41.0594H33.7088Z" fill="#666666"/>
<path id="Vector_33" d="M52.1972 39.0783C52.1972 39.643 52.1972 40.2078 52.1972 40.7629C52.1972 40.9926 52.1398 41.0788 51.9006 41.0884C51.0585 41.1266 51.0585 41.1362 51.0585 40.3226C51.0585 39.3655 51.0585 38.4083 51.0489 37.4416C51.0489 37.1353 51.135 37.0396 51.4413 37.0396C52.1877 37.0396 52.1877 37.0396 52.1781 37.767C52.1781 37.9871 52.1781 38.1977 52.1781 38.4179C52.1781 38.638 52.1781 38.8486 52.1781 39.0687C52.1781 39.0687 52.1877 39.0687 52.1972 39.0687V39.0783Z" fill="#666666"/>
<path id="Vector_34" d="M91.8918 35.441C91.3846 36.4269 91.1645 36.5801 90.4468 36.4652C90.5425 35.6707 91.1167 35.2592 91.8918 35.441Z" fill="#666666"/>
<path id="Vector_35" d="M52.2451 35.6514C52.1972 35.862 52.2068 36.2257 52.1015 36.2544C51.8145 36.3501 51.4795 36.3405 51.1637 36.3023C50.9819 36.2831 50.9723 35.9385 51.1637 35.862C51.4795 35.7375 51.8049 35.6514 52.1302 35.5557C52.1685 35.5844 52.2068 35.6227 52.2451 35.6514Z" fill="#666666"/>
<path id="Vector_36" d="M33.6993 35.5462C33.7184 35.7472 33.728 35.8621 33.7376 35.9673C33.7567 36.2258 33.6706 36.3789 33.3739 36.3406C33.2017 36.3215 33.0103 36.3598 32.838 36.3215C32.7328 36.3024 32.5988 36.1971 32.5796 36.1109C32.5605 36.0343 32.6658 35.8716 32.7519 35.8333C33.039 35.7185 33.3452 35.6419 33.6993 35.5366V35.5462Z" fill="#666666"/>
</g>
</svg>
