<?xml version="1.0" encoding="UTF-8"?>
<svg id="Capa_2" data-name="Capa 2" xmlns="http://www.w3.org/2000/svg" viewBox="0 0 657.64 743.67">
  <defs>
    <style>
      .cls-1 {
        fill: #fff;
        stroke-width: 0px;
      }
    </style>
  </defs>
  <g id="Capa_1-2" data-name="Capa 1">
    <path class="cls-1" d="m375.55,743.67c-133.39.15-259.78-72.78-330.87-195.29C-66.67,356.45,41.39,98.38,243.99,23.22c135.56-50.29,306.03-18.85,401.63,94.06,4.17,4.93,7.13,11.97,7.95,18.39,3.21,25.1-.05,41.96-17.76,59.84-33.19,33.5-66.86,66.51-100.38,99.68-36.81,36.44-73.11,73.48-110.19,109.61-11.44,11.14-24.38,21.35-39.61,26.15-19.66,6.2-40.39-.29-56.74-11.89-25.11-17.82-25.88-67.44-4.94-88.43,56.31-56.44,112.78-112.73,169.2-169.07.13-.13.26-.25.4-.37,8.07-7.49,8.24-8.31-1.87-13.03-8.92-4.16-18.33-7.32-27.65-10.55-57.1-19.78-118.85-21.78-176.03-.92-95.35,34.79-161.29,126.15-163.54,227.73-2.91,131.49,101.47,246.18,232.63,255.56,64.32,4.6,130.12-16.78,179.45-58.31,23.65-19.91,47.6-41.02,80.21-29.18,14.77,5.36,26.08,14.99,34.09,27.59,4.38,6.89,5.58,16.32,6.49,24.78,6.41,59.78-87.36,107.27-132.3,126.98-49.13,21.55-99.79,31.75-149.48,31.8Z"/>
  </g>
</svg>