<svg width="213" height="43" viewBox="0 0 213 43" fill="none" xmlns="http://www.w3.org/2000/svg">
<g id="Capa 1">
<path id="Vector" d="M175.602 30.8853C177.401 34.1971 180.233 35.8243 183.764 36.5422V30.7226H175.516V28.435C179.382 29.6985 183.209 29.6315 186.922 27.9947C190.655 26.3484 193.238 23.563 194.798 19.8301H202.971C202.971 19.9832 202.99 20.1077 202.99 20.2321C202.99 23.5343 202.99 26.8365 202.99 30.1387C202.99 30.7226 202.99 30.7226 202.416 30.7226C200.042 30.7226 197.659 30.7226 195.286 30.7226C194.923 30.7226 194.789 30.7992 194.779 31.1916C194.779 33.9578 194.75 36.724 194.731 39.4807C194.731 40.5623 194.731 40.6006 193.688 40.8877C189.544 42.0172 185.477 41.9502 181.611 39.9018C178.138 38.0545 176.214 35.0777 175.582 31.2491C175.573 31.1725 175.582 31.0959 175.582 30.8949L175.602 30.8853Z" fill="#666666"/>
<path id="Vector_2" d="M175.439 19.8204H183.774V19.2844C183.774 16.8723 183.774 14.4603 183.774 12.0578C183.774 11.7037 183.86 11.5888 184.233 11.5888C187.611 11.6079 190.989 11.6079 194.368 11.5888C194.75 11.5888 194.827 11.7228 194.827 12.0674C194.817 14.2784 194.827 16.4895 194.827 18.7005V19.16C194.827 19.16 194.894 19.1791 194.923 19.1791C194.98 19.0547 195.047 18.9398 195.095 18.8154C196.559 15.4462 198.837 12.8044 202.186 11.1772C205.42 9.59789 208.77 9.45432 212.176 10.6125C212.454 10.7082 212.569 10.8422 212.569 11.1485C212.55 12.6991 212.569 14.2497 212.569 15.8769C212.406 15.8195 212.291 15.7812 212.176 15.7333C210.148 14.9006 208.042 14.4986 205.861 14.5943C202.176 14.757 198.97 16.1258 196.186 18.5091C196.033 18.6335 195.899 18.7771 195.736 18.9015C193.956 20.2894 192.262 21.8018 190.214 22.8259C188.272 23.7927 186.224 24.367 184.08 24.6254C181.219 24.97 178.463 24.5871 175.774 23.5821C175.64 23.5342 175.468 23.3715 175.468 23.2566C175.439 22.1368 175.448 21.0169 175.448 19.83L175.439 19.8204Z" fill="#666666"/>
<path id="Vector_3" d="M157.151 30.1294H160.482C160.549 30.4069 160.577 30.5984 160.204 30.6558C159.429 30.7611 159.19 31.0578 159.18 31.8714C159.151 33.69 159.142 35.5086 159.094 37.3177C159.037 39.4234 157.936 40.9549 156.08 41.3761C155.305 41.5483 154.472 41.5675 153.678 41.5292C153.075 41.5101 152.462 41.3665 151.888 41.1655C150.175 40.572 149.266 39.299 149.17 37.49C149.094 36.0734 149.151 34.6472 149.142 33.221C149.142 32.9434 149.113 32.6659 149.046 32.3978C148.826 31.4885 148.338 31.0291 147.41 30.9717C146.481 30.9238 145.544 30.9621 144.567 30.9621C144.567 31.0961 144.548 31.2492 144.548 31.4024C144.548 34.0729 144.548 36.753 144.548 39.4234C144.548 40.4955 144.768 40.7443 145.821 40.8496C145.859 40.8496 145.888 40.8688 145.945 40.8879V41.3091H140.941V41.0793C142.261 40.84 142.366 40.706 142.366 39.3469C142.366 36.6955 142.366 34.0442 142.366 31.3928C142.366 31.0195 142.261 30.9047 141.898 30.9238C141.237 30.9621 140.577 30.9238 139.926 30.9812C138.673 31.0961 138.089 31.7565 138.041 33.02C138.041 33.0679 138.031 33.1253 138.022 33.2114H137.4C137.352 32.5223 137.18 31.8618 136.634 31.412C135.639 30.5792 134.491 30.3208 133.266 30.6941C132.902 30.7994 132.558 31.1152 132.318 31.4215C131.907 31.9384 131.955 32.6467 132.433 33.0966C132.826 33.4603 133.285 33.7762 133.754 34.0346C134.577 34.494 135.438 34.8673 136.252 35.3268C136.72 35.5948 137.17 35.9106 137.572 36.2744C139.094 37.6527 138.634 39.9882 137.122 40.974C135.993 41.7111 134.72 41.8355 133.428 41.7206C132.51 41.6441 131.61 41.4526 130.692 41.3282C130.338 41.2803 130.251 41.1081 130.261 40.7635C130.29 40.0073 130.261 39.2416 130.261 38.495C130.65 38.4057 130.908 38.5365 131.036 38.8874C131.677 40.639 133.773 41.5771 135.476 40.8783C136.385 40.505 136.931 39.6532 136.663 38.8779C136.539 38.5141 136.261 38.1313 135.955 37.9111C135.362 37.4995 134.692 37.1932 134.06 36.8487C133.314 36.4467 132.539 36.1021 131.821 35.6522C130.893 35.0683 130.309 34.226 130.395 33.0583C130.5 31.7853 131.18 30.8951 132.299 30.3591C133.256 29.9092 134.29 29.8039 135.314 29.8996C139.658 30.2921 144.003 30.0241 148.357 30.1006C149.716 30.1198 151.075 30.1006 152.434 30.1006C152.51 30.1006 152.587 30.1198 152.654 30.1198C152.797 30.4931 152.654 30.6079 152.319 30.6558C151.659 30.742 151.362 31.0004 151.362 31.6608C151.343 33.7475 151.266 35.8436 151.4 37.9303C151.553 40.17 153.266 41.4143 155.458 41.0889C157.429 40.7922 158.52 39.567 158.587 37.3847C158.644 35.4991 158.577 33.6134 158.529 31.7183C158.51 30.9812 158.262 30.7324 157.515 30.6367C157.199 30.5984 156.998 30.5218 157.151 30.1102V30.1294Z" fill="#666666"/>
<path id="Vector_4" d="M19.1583 6.12351C19.3975 5.93208 19.6463 5.74065 19.8568 5.57793C20.2013 5.95122 20.5267 6.2958 20.7564 6.54467C21.1392 6.6691 21.4167 6.77439 21.7038 6.86053C21.8186 6.88925 21.9526 6.88925 22.0578 6.86053C22.2014 6.81267 22.3354 6.70738 22.4885 6.62124C22.5555 6.69781 22.6129 6.76481 22.6607 6.84139C22.9287 7.26254 22.9861 7.28168 23.4359 7.04239C24.0196 6.74567 24.7086 7.04239 24.8043 7.69326C24.8713 8.13356 25.0723 8.25799 25.4742 8.17185C25.6847 8.12399 25.7708 8.23885 25.8283 8.43985C25.8761 8.64086 25.9814 8.83229 26.0579 9.0333C26.278 8.93758 26.4886 8.84186 26.7661 8.727C26.8043 8.77486 26.8809 8.88972 26.967 8.99501C27.2158 9.31087 27.4838 9.61717 27.723 9.9426C27.8187 10.0766 27.9048 10.2393 27.9431 10.3925C28.1824 11.4454 27.9814 12.4312 27.4264 13.3405C27.3307 13.5033 27.1584 13.6181 27.0053 13.7425C26.8235 13.9053 26.6225 14.0488 26.412 14.2211C26.967 14.4317 27.2445 14.3456 27.6082 14.0106C27.7326 13.8957 27.9814 13.8383 28.1345 13.8861C28.2685 13.9244 28.412 14.135 28.4407 14.2881C28.5173 14.7189 28.2589 15.006 27.8953 15.207C29.0341 16.2503 29.0628 16.815 28.0197 17.5521C30.6417 21.5626 31.3882 25.8985 30.0867 30.5217C29.1393 33.8909 27.1776 36.5997 24.345 38.6671C18.7276 42.7734 11.0241 42.5437 5.5599 38.045C2.49764 35.5276 0.688987 32.2733 0.143521 28.3489C-0.401944 24.4437 0.497596 20.8543 2.66989 17.5712C1.6268 16.7098 1.65551 16.2886 2.70817 15.2836C2.53591 14.9677 2.33495 14.6901 2.2584 14.3839C2.22012 14.2498 2.39237 13.9627 2.53591 13.8957C2.67946 13.8287 3.01439 13.8957 3.08138 14.0201C3.39718 14.5466 3.83738 14.2403 4.25844 14.2881C3.21535 13.3405 3.06224 12.3259 3.96178 11.1199C3.55986 11.1199 3.24406 11.1103 2.9187 11.1199C2.66032 11.1295 2.52634 11.0529 2.53591 10.7658C2.55505 10.3446 2.55505 9.92346 2.53591 9.50231C2.53591 9.2343 2.64118 9.15773 2.88999 9.1673C3.37804 9.17687 3.86608 9.18644 4.35413 9.15773C4.49768 9.14816 4.65079 9.01415 4.76562 8.89929C5.024 8.64086 5.26324 8.36328 5.49291 8.0857C5.59818 7.9517 5.72258 7.79855 5.75129 7.63583C5.87569 6.90839 6.60298 6.55424 7.25371 6.89882C7.42596 6.99453 7.6652 6.99453 7.87573 6.99453C8.21067 7.0041 8.55517 6.99453 8.89011 6.97539C9.03365 6.96582 9.22504 6.92753 9.31117 6.83181C9.71309 6.39152 10.0767 5.93208 10.4882 5.4535C10.8519 5.74065 11.1964 6.01823 11.4548 6.2288C11.7706 5.89379 12.0768 5.62579 12.3064 5.30035C12.4404 5.11849 12.4309 4.84091 12.4978 4.57291C12.8328 4.57291 12.8998 4.33361 12.9572 4.02732C13.1199 3.20416 13.6366 2.77343 14.4979 2.70643C14.7467 2.68729 14.8137 2.60115 14.8137 2.37143C14.8137 2.15128 14.785 1.98856 14.5074 1.97899C14.3639 1.97899 14.1151 1.88327 14.1055 1.8067C14.0768 1.50998 14.1055 1.21326 14.1629 0.916534C14.1629 0.878248 14.383 0.859104 14.4979 0.868676C14.7275 0.868676 14.852 0.77296 14.8232 0.54324C14.7754 0.169946 14.9668 0.0838005 15.2922 0.122087C15.3878 0.131659 15.474 0.122087 15.5697 0.122087C15.8568 0.0933722 16.0386 0.169946 15.9907 0.504954C15.962 0.77296 16.0864 0.906962 16.3544 0.868676C16.7084 0.830389 16.7946 1.00268 16.7563 1.30897C16.7467 1.41426 16.7467 1.51955 16.7563 1.62484C16.785 1.89284 16.6797 2.01727 16.4022 1.98856C16.1438 1.95984 15.9812 2.03642 15.9812 2.35228C15.9812 2.63943 16.1056 2.69686 16.3639 2.71601C17.1104 2.78301 17.6463 3.29988 17.7898 4.03689C17.8377 4.25704 17.7898 4.52505 18.1439 4.55376C18.1822 4.55376 18.2491 4.70691 18.2396 4.78348C18.1917 5.11849 18.3544 5.29078 18.6224 5.47264C18.8329 5.61621 18.9669 5.88422 19.1774 6.13308L19.1583 6.12351ZM15.3687 41.2515C16.1247 41.1845 16.8903 41.1462 17.6463 41.0313C26.8235 39.5956 32.5174 30.2728 29.57 21.486C29.0341 19.9067 28.412 18.3465 27.1297 17.1788C27.0436 17.1022 27.0149 16.9778 26.9575 16.8725C26.8713 16.7289 26.8043 16.5662 26.6991 16.4418C23.4167 12.7854 19.3305 11.0242 14.4022 11.2731C11.6366 11.4166 9.11021 12.3068 6.85179 13.8957C5.59818 14.7763 4.35413 15.7047 3.61728 17.1213C3.56943 17.2171 3.45459 17.2841 3.36847 17.3702C3.24406 17.4851 3.11009 17.5904 3.01439 17.7339C0.813392 20.9596 -0.0383005 24.5202 0.516735 28.3872C1.58853 35.9009 8.18196 41.3089 15.3783 41.261L15.3687 41.2515ZM26.1345 9.48316C26.2302 9.6746 26.2972 9.79903 26.3546 9.91389C26.0292 10 25.7421 10.067 25.3785 10.1628C25.4933 9.97132 25.5603 9.85646 25.656 9.71288C25.2636 9.86603 25.0818 10.0862 25.0627 10.4403C25.0435 10.8232 24.9861 11.1965 24.9861 11.5794C24.9861 11.8856 24.8522 12.0675 24.4885 12.2207C24.4981 12.0197 24.4502 11.8186 24.5268 11.7421C24.833 11.3975 24.9 10.9859 24.8809 10.5648C24.8617 10.1149 24.9957 9.8086 25.4168 9.61717C25.7995 9.44488 25.5125 9.12901 25.5316 8.88015C25.5412 8.66957 25.4072 8.61214 25.2062 8.58343C24.7277 8.53557 24.5746 8.36328 24.5172 7.90384C24.4502 7.38697 23.943 7.15725 23.522 7.47312C23.2062 7.72198 22.9287 7.63583 22.6607 7.43483C22.565 7.35826 22.5076 7.22425 22.4502 7.12854C22.1727 7.27211 21.9813 7.36783 21.8186 7.45397C21.6176 7.3104 21.4358 7.08068 21.254 7.08068C21.0722 7.08068 20.8808 7.30083 20.6798 7.42526C20.5171 7.28168 20.3545 7.12854 20.2013 6.98496C20.2875 6.87967 20.3545 6.79353 20.4214 6.70738C19.8919 6.38833 19.506 6.41066 19.2635 6.77439C20.0291 7.10939 20.1439 7.59755 19.5889 8.07613C19.3305 8.29628 19.0817 8.53557 18.852 8.78443C18.7276 8.90886 18.6415 9.07158 18.5267 9.24387C18.6032 9.28216 18.7468 9.3013 18.7946 9.38745C18.8903 9.53102 19.0243 9.77031 18.9669 9.8756C18.7276 10.3255 18.9669 10.6796 19.12 11.0529C19.1678 11.1486 19.3114 11.2061 19.4071 11.2826C18.9764 10.1436 19.0243 10.3542 19.6942 9.61717C19.7707 9.75117 19.8186 9.92346 19.9334 10C20.3353 10.2872 20.7181 10.5648 21.0339 10.9572C21.3497 11.3401 21.9717 11.4645 21.8952 12.2877C22.3832 11.7421 22.8138 11.9527 23.2445 12.0579C23.3976 12.0962 23.5603 12.0962 23.7134 12.0962C24.1057 12.0962 24.4981 12.0771 24.5268 12.6035H24.967C24.9 12.8141 24.8617 12.996 24.7756 13.1587C24.699 13.3023 24.6033 13.4841 24.4789 13.532C24.2397 13.6181 24.2301 13.5894 24.1727 13.7904C24.4024 13.8287 24.6225 13.867 24.766 13.8957C24.8426 13.6373 24.9 13.4171 24.9861 13.1395C25.1201 13.2353 25.1967 13.2735 25.2445 13.331C25.3402 13.4267 25.4359 13.532 25.5316 13.6277C25.5986 13.4937 25.6751 13.3597 25.7326 13.2161C25.7613 13.1491 25.7708 13.0725 25.7613 13.0055C25.723 12.6897 25.9335 12.6131 26.2302 12.5365C26.1823 12.795 26.144 13.0151 26.0962 13.264C26.479 12.8715 26.4981 12.5844 26.1823 12.0101C26.0579 11.7899 26.0196 11.5794 26.2493 11.4166C26.479 11.2539 26.6991 11.3401 26.8331 11.5411C26.9766 11.7421 27.0819 11.9718 27.1584 12.2015C27.2254 12.4025 27.2254 12.6322 27.2637 12.9098C27.7039 12.1154 27.7709 11.3401 27.5891 10.536C27.5603 10.402 27.4168 10.2968 27.3307 10.1819C27.2158 10.2776 27.0914 10.3542 26.9957 10.4595C26.8713 10.603 26.7661 10.7753 26.6417 10.9093C26.613 10.9476 26.479 10.9381 26.4311 10.8998C26.3929 10.8615 26.3929 10.7466 26.4216 10.6892C26.5747 10.3925 26.7469 10.1053 26.9 9.8086C26.9383 9.73203 26.9383 9.60759 26.9 9.54059C26.6704 9.14815 26.412 9.48316 26.1345 9.49273V9.48316ZM15.34 8.33457C14.9189 8.09527 14.4883 7.85598 14.0672 7.61669C13.9428 7.29126 14.6414 6.99453 14.0385 6.62124C13.8759 6.91796 13.7132 7.20511 13.5505 7.50183C13.3974 7.4444 13.273 7.38697 13.1294 7.32954C13.206 7.13811 13.2825 6.98496 13.3304 6.82224C13.3782 6.64995 13.4261 6.46809 13.4261 6.28623C13.4261 5.90336 13.1486 5.53964 12.8041 5.46307C12.4978 5.39607 12.1629 5.59707 11.9907 5.96079C11.7897 6.38195 11.8567 6.89882 12.182 7.2434C12.2682 7.33911 12.4021 7.38697 12.4883 7.4444C12.1916 7.93256 11.9715 8.24842 11.3878 8.13356C10.8519 8.02827 10.3543 8.28671 9.9619 8.66957C9.88534 8.74615 9.90448 8.90886 9.87578 9.0333C9.99061 9.01415 10.1246 9.02372 10.2203 8.97587C10.5169 8.84186 10.7945 8.64086 11.1007 8.56429C11.761 8.41114 12.3639 8.86101 12.4787 9.53102C12.6031 10.2393 12.2108 10.7945 11.5026 10.8806C11.0815 10.9285 10.6605 10.8998 10.2394 10.9381C10.1246 10.9476 10.0289 11.0625 9.92362 11.1295C10.0289 11.2061 10.1342 11.3305 10.249 11.3401C11.5792 11.3975 12.8806 11.2826 14.1151 10.737C14.3735 10.6222 14.5553 10.6509 14.8041 10.7945C15.0051 10.9189 15.3878 11.0625 15.5027 10.9763C16.0386 10.5456 16.5266 10.7275 17.0625 10.9476C17.3975 11.0816 17.7707 11.1391 18.1343 11.2061C18.4118 11.2539 18.6894 11.2731 19.0339 11.3018C18.7755 10.6796 18.1056 10.402 18.1535 9.69374C18.2013 9.04287 18.5745 8.61214 19.0721 8.18142C18.5745 8.21971 18.4597 7.85598 18.297 7.60712C18.2587 7.54012 18.431 7.31997 18.5362 7.18597C18.7659 6.89882 18.852 6.58295 18.7755 6.2288C18.6702 5.73108 18.2587 5.3865 17.8759 5.46307C17.4357 5.54921 17.1582 6.0278 17.2731 6.54467C17.3305 6.81267 17.4357 7.06154 17.5314 7.33911C17.3783 7.39654 17.2443 7.4444 17.1104 7.49226C16.9381 7.19554 16.7946 6.91796 16.6223 6.62124C16.5075 6.71696 16.3831 6.79353 16.3927 6.83181C16.4501 7.09982 16.5458 7.35826 16.6223 7.60712C16.1726 7.85598 15.7611 8.0857 15.3304 8.32499L15.34 8.33457ZM9.82793 10.9572C9.58869 9.8756 9.37816 8.85143 9.13892 7.82727C9.02408 7.32954 8.78484 7.19554 8.27766 7.26254C8.13411 7.28168 7.99057 7.3104 7.8566 7.34868C7.57908 7.43483 7.33984 7.41569 7.09103 7.21468C6.73696 6.9371 6.17235 7.16682 6.15321 7.58798C6.14364 7.98999 5.94268 8.20056 5.64602 8.41114C5.4642 8.53557 5.28238 8.69829 5.18669 8.88972C5.11013 9.0333 5.08142 9.3013 5.16755 9.41616C5.79914 10.2776 6.44987 11.1199 7.11974 11.9526C7.16759 12.0101 7.37812 12.0388 7.43553 11.9909C8.09583 11.4071 8.87097 11.0816 9.84707 10.9572H9.82793ZM3.83738 15.0826C3.4833 15.2453 3.16751 15.3793 2.87085 15.542C2.54548 15.7143 2.28711 15.9536 2.22012 16.3365C2.1627 16.6906 2.40194 17.0831 2.72731 17.1788C3.02396 17.2553 3.36847 17.0831 3.44502 16.7863C3.4833 16.6619 3.40675 16.4992 3.38761 16.3652C3.28234 16.4418 3.16751 16.5183 3.06224 16.5949C2.98568 16.6523 2.88042 16.7576 2.84214 16.7385C2.76558 16.7002 2.66989 16.5758 2.67946 16.5088C2.70817 16.3556 2.76558 16.1642 2.87085 16.0685C3.0431 15.9153 3.27277 15.8196 3.49287 15.7335C5.05271 15.1209 6.23934 14.0488 7.24414 12.7375C7.3207 12.6418 7.36855 12.4025 7.31113 12.3451C7.11974 12.1441 7.02404 12.3738 6.91878 12.4887C6.63169 12.8141 6.35417 13.1587 6.04795 13.4554C5.57904 13.9148 4.94745 13.8861 4.4594 13.4075C4.00006 12.9577 3.93307 12.1919 4.40198 11.7804C4.6795 11.5315 5.08142 11.4166 5.42592 11.2348C5.52162 11.1773 5.59818 11.0816 5.6843 10.9955C5.57904 10.9381 5.48334 10.8232 5.37808 10.8232C4.69864 10.8232 3.88522 11.4741 3.72254 12.1441C3.54072 12.8715 3.86608 13.599 4.54552 13.9818C4.69864 14.068 4.87089 14.135 5.03357 14.2116C5.03357 14.2403 5.04314 14.2786 5.05271 14.3073C4.73692 14.403 4.42112 14.5561 4.10532 14.5753C3.66512 14.604 3.12923 14.7667 2.87085 14.1733C2.85171 14.135 2.70817 14.1158 2.66032 14.1446C2.59333 14.1924 2.51678 14.3168 2.53591 14.3551C2.64118 14.537 2.74644 14.7763 2.9187 14.8529C3.17708 14.9773 3.49287 14.9964 3.85651 15.0826H3.83738ZM25.6369 14.2307C25.8665 14.1158 26.0579 14.0488 26.2206 13.9436C27.0436 13.4458 27.3115 12.3355 26.7661 11.6464C26.6895 11.5506 26.5364 11.5219 26.412 11.4645C26.412 11.5889 26.345 11.7421 26.3929 11.8378C26.8809 12.8045 26.4694 13.5798 25.3785 13.7425C25.2924 13.7521 25.1967 13.8191 25.1297 13.8766C25.0148 13.9723 24.9287 14.0967 24.7756 14.2594C25.2828 14.5944 25.7708 14.9581 26.2876 15.2644C26.6895 15.5037 27.1584 15.6473 27.5603 15.8962C27.7613 16.0206 27.8953 16.2599 28.0293 16.4705C28.0484 16.5088 27.9336 16.6715 27.8474 16.7289C27.8092 16.748 27.6943 16.6523 27.6178 16.5949C27.5125 16.5183 27.4072 16.4322 27.302 16.3556C27.2828 16.5088 27.2063 16.681 27.2541 16.815C27.3594 17.1405 27.723 17.2745 28.0293 17.1501C28.3738 17.0065 28.613 16.5375 28.412 16.1929C28.2398 15.9057 27.9527 15.676 27.6752 15.475C27.4359 15.3027 27.1393 15.2262 26.8043 15.073C27.1393 15.0156 27.4359 15.0252 27.6656 14.9199C27.8666 14.8241 28.0101 14.604 28.1441 14.4126C28.1728 14.3743 28.0675 14.2211 28.0197 14.1254C27.9336 14.1733 27.8474 14.2116 27.7709 14.269C27.656 14.3551 27.5603 14.5179 27.4264 14.5466C26.8139 14.671 26.2206 14.604 25.6369 14.2403V14.2307ZM15.0816 3.07973C14.8902 3.06058 14.7467 3.04144 14.6031 3.03187C13.9046 2.99358 13.3974 3.35731 13.2538 4.03689C13.2251 4.1709 13.273 4.41976 13.3495 4.45805C13.5696 4.56333 13.6845 4.42933 13.7515 4.19004C13.895 3.67317 14.2778 3.44345 14.7658 3.55831C14.9572 3.60617 15.1295 3.74974 15.2252 3.80717C15.5697 3.71146 15.8568 3.55831 16.1534 3.55831C16.584 3.55831 16.7659 3.89332 16.8903 4.26661C16.919 4.36233 17.1199 4.41019 17.2348 4.47719C17.2826 4.36233 17.3879 4.24747 17.3687 4.14218C17.2635 3.42431 16.718 2.99358 15.9812 3.03187C15.8663 3.03187 15.7515 3.03187 15.6271 3.03187V1.7397C15.8376 1.51955 16.297 1.86413 16.3065 1.42383C16.3257 0.926106 15.8185 1.30897 15.6175 1.06011C15.4548 0.916535 15.8089 0.466667 15.3591 0.437952C14.8232 0.409237 15.2252 0.935678 14.9572 1.13668C14.9094 1.13668 14.8137 1.15583 14.7275 1.15583C14.5553 1.17497 14.3352 1.0984 14.3161 1.39512C14.3065 1.72055 14.5553 1.61526 14.7275 1.66312C14.852 1.69184 15.0338 1.79713 15.0433 1.88327C15.0816 2.27571 15.0625 2.66815 15.0625 3.07973H15.0816ZM12.249 9.75117C12.249 9.40659 11.6366 8.74615 11.2921 8.77486C11.1198 8.794 10.8423 8.89929 10.7945 9.02372C10.6413 9.46402 10.3255 9.45445 9.9619 9.45445C9.85664 9.45445 9.7418 9.56931 9.63654 9.63631C9.73223 9.77031 9.80879 9.91389 9.92362 10.0192C9.97147 10.067 10.1054 10.0479 10.1916 10.0383C10.4499 10.0192 10.6126 10.0766 10.737 10.3542C10.8136 10.5265 11.0815 10.6796 11.2921 10.7083C11.627 10.7658 12.249 10.0957 12.249 9.7416V9.75117ZM5.14841 11.6655C4.63165 11.6655 4.49768 11.9144 4.51682 12.7471C4.51682 13.13 4.8039 13.4075 5.15798 13.3884C5.3398 13.3884 5.52162 13.3597 5.70344 13.3405C6.10536 13.2927 6.40202 12.8332 6.19149 12.4982C6.00967 12.2111 6.10536 12.0484 6.28719 11.8665C6.35417 11.7995 6.44987 11.7134 6.44987 11.6559C6.4403 11.5028 6.39245 11.3401 6.30632 11.2252C6.28719 11.1869 6.04795 11.2443 5.96182 11.3209C5.71301 11.5698 5.5599 11.9909 5.14841 11.6751V11.6655ZM15.3017 5.14721C16.0386 5.14721 16.7754 5.14721 17.5123 5.14721C17.675 5.14721 17.9429 5.23335 17.9142 4.93663C17.9142 4.85048 17.6463 4.7452 17.5027 4.73562C16.0577 4.71648 14.6127 4.72605 13.1677 4.73562C12.9955 4.73562 12.7084 4.63034 12.7275 4.95577C12.7466 5.28121 13.0242 5.14721 13.1868 5.14721C13.895 5.16635 14.6031 5.14721 15.3113 5.14721H15.3017ZM17.1391 5.46307C16.8137 5.35778 16.6223 5.43436 16.4501 5.70236C16.2778 5.97037 16.0481 6.21923 15.7993 6.42981C15.5027 6.68824 15.1582 6.67867 14.8711 6.41066C14.6319 6.19052 14.4022 5.94165 14.2299 5.67365C14.0577 5.41521 13.8759 5.34821 13.5505 5.47264C13.9141 6.17137 14.3448 6.78396 15.1008 7.07111C15.2539 7.12854 15.4835 7.11897 15.6367 7.05196C16.3639 6.74567 16.8041 6.1618 17.1391 5.4535V5.46307ZM3.38761 10.0862C3.54072 10.1053 3.66512 10.1149 3.77996 10.1245C3.77039 10.2202 3.75125 10.3159 3.75125 10.4116C3.75125 10.5265 3.74168 10.737 3.77039 10.7466C3.91393 10.7849 4.07661 10.7849 4.22973 10.7466C4.25844 10.7466 4.28715 10.5073 4.2393 10.4212C4.10532 10.1628 4.19145 10.0862 4.44026 10.0862H5.26324C5.20582 9.68417 5.03357 9.52145 4.72735 9.52145C4.2393 9.52145 3.75125 9.52145 3.27277 9.52145C2.89956 9.52145 2.79429 9.70331 2.92827 10.0479C2.96654 10.1532 2.97611 10.2776 2.98568 10.3925C2.98568 10.5169 2.98568 10.6413 2.98568 10.7658C3.14837 10.7658 3.32062 10.7562 3.4833 10.7466L3.50244 10.7275C3.43545 10.402 3.43545 10.3829 3.39718 10.0957L3.38761 10.0862ZM9.45471 8.0187C9.62697 7.8177 9.79922 7.61669 9.97147 7.42526C10.1437 7.22425 10.2681 7.23382 10.3447 7.50183C10.4308 7.80812 10.5839 7.80812 10.7753 7.5784C10.8327 7.50183 10.8902 7.41569 10.9763 7.29126C10.7562 7.18597 10.5648 7.09982 10.3638 7.00411C10.8423 6.27666 10.8136 7.28168 11.1677 7.11897C11.2347 7.03282 11.3495 6.89882 11.4452 6.77439C11.1294 6.49681 10.8423 6.23837 10.5169 5.95122C10.0959 6.44895 9.67481 6.92753 9.28246 7.43483C9.11021 7.64541 9.21548 7.85598 9.46428 8.02827L9.45471 8.0187ZM15.3304 8.06656C15.6175 7.91341 15.9142 7.76027 16.1917 7.59755C16.2682 7.54969 16.297 7.43483 16.3448 7.34868C16.2491 7.32954 16.1247 7.26254 16.0577 7.30083C15.5792 7.54969 15.1103 7.54012 14.6223 7.30083C14.5457 7.26254 14.3926 7.35826 14.2778 7.39654C14.2873 7.43483 14.3065 7.47312 14.3161 7.5114C14.6606 7.70284 14.9955 7.89427 15.3304 8.07613V8.06656ZM19.0339 6.8701C18.8712 7.06154 18.7276 7.20511 18.6319 7.36783C18.5841 7.45397 18.5649 7.63584 18.6224 7.69326C18.7181 7.79855 18.919 7.94213 19.0147 7.91341C19.2444 7.82727 19.4549 7.67412 19.6367 7.50183C19.6654 7.47312 19.5219 7.21468 19.4071 7.09025C19.3114 6.99453 19.1678 6.94668 19.0339 6.8701ZM11.6653 6.90839C11.3782 7.25297 11.1198 7.55926 10.8136 7.92298C11.1103 7.91341 11.3208 7.85598 11.493 7.90384C11.8662 8.00913 12.0194 7.8177 12.1533 7.52098C12.0002 7.32954 11.8567 7.14768 11.6653 6.90839ZM10.5361 11.5985C10.5361 11.5985 10.5169 11.5219 10.5074 11.4836C10.2107 11.4836 9.90448 11.4836 9.60783 11.4836C9.0815 11.4836 9.00494 11.5794 9.12935 12.1345C9.59826 11.9527 10.0672 11.7804 10.5361 11.5985ZM24.2971 13.1108C24.0674 12.8237 23.8665 12.5365 23.6177 12.2781C23.5411 12.1919 23.3593 12.2111 23.2253 12.1728C23.2445 12.2877 23.2253 12.4217 23.2827 12.5078C23.3976 12.6992 23.5603 12.8524 23.6942 13.0342C23.8569 13.2544 24.0292 13.3214 24.2971 13.1012V13.1108ZM20.1822 11.4836C20.1822 11.4836 20.1631 11.5602 20.1535 11.5985C20.6224 11.7804 21.1009 11.9622 21.5985 12.1537C21.5602 11.707 21.3369 11.4836 20.9286 11.4836C20.6798 11.4836 20.431 11.4836 20.1822 11.4836ZM20.3832 10.8711V10.8519C20.2109 10.8711 20.0387 10.8615 19.876 10.9093C19.7899 10.9381 19.742 11.0529 19.675 11.1295C19.7516 11.1965 19.8281 11.3018 19.9143 11.3113C20.1726 11.3209 20.4406 11.3113 20.699 11.2731C20.7947 11.2635 20.8712 11.1678 20.9669 11.1199C20.8808 11.0338 20.8042 10.9285 20.7085 10.8806C20.6224 10.8423 20.5076 10.8806 20.4023 10.8806L20.3832 10.8711ZM22.01 12.3451C22.498 12.6131 22.9382 12.8524 23.388 13.0917C23.2923 12.8428 23.1488 12.6514 23.0052 12.4695C22.7437 12.1313 22.4119 12.0867 22.01 12.3355V12.3451ZM8.60302 12.3738C8.60302 12.3738 8.61259 12.2877 8.62216 12.2494C8.41163 12.2015 8.1054 12.0388 8.00014 12.1249C7.69391 12.3834 7.47381 12.7375 7.21543 13.0534C7.23457 13.0725 7.25371 13.0917 7.28242 13.1108C7.72262 12.862 8.16282 12.6227 8.61259 12.3738H8.60302ZM19.541 9.99046C19.4932 10 19.4453 10.0096 19.3879 10.0192C19.4453 10.2298 19.4453 10.4786 19.5602 10.6509C19.6559 10.8041 20.2875 10.6988 20.4119 10.5552C20.1248 10.3638 19.8281 10.1723 19.541 9.98089V9.99046ZM5.54076 10.536C5.38765 10.268 4.93788 10.1053 4.69864 10.2776C4.59337 10.3542 4.5838 10.5648 4.50725 10.7945C4.92831 10.6892 5.22496 10.6222 5.54076 10.5456V10.536ZM10.0767 7.74112C9.53127 8.23885 9.49299 8.31542 9.65568 8.593C9.89491 8.41114 10.1342 8.23885 10.4117 8.03784C10.2873 7.93256 10.1916 7.84641 10.0672 7.74112H10.0767ZM8.75613 12.1058C8.79441 11.8282 8.81355 11.6464 8.85183 11.3688C8.60302 11.4932 8.43077 11.5794 8.19153 11.6942C8.39249 11.8378 8.52647 11.9335 8.75613 12.0962V12.1058ZM10.5935 10.7562C10.4978 10.3446 10.3255 10.2585 10.0959 10.3446C10.048 10.3638 10.0385 10.4882 10.0097 10.5648C10.182 10.6222 10.3543 10.6796 10.6031 10.7562H10.5935ZM6.52643 11.9048C6.48815 12.0962 6.44987 12.2972 6.40202 12.4982C6.44987 12.4982 6.49772 12.5174 6.53599 12.5269C6.6604 12.3451 7.02404 12.2207 6.51686 11.9144L6.52643 11.9048ZM18.3736 9.49273C18.3831 9.69374 18.3927 9.89474 18.4023 10.0957C18.4405 10.0957 18.4692 10.0957 18.5075 10.0957C18.4692 9.89474 18.9286 9.68417 18.3736 9.49273Z" fill="#666666"/>
<path id="Vector_5" d="M115.6 36.2742V36.7241C115.639 37.6812 115.639 38.648 115.639 39.6051C115.639 40.5623 115.916 40.8495 116.864 40.9356C116.911 40.9356 117.065 40.9547 117.065 40.9547V41.328C116.95 41.3376 116.835 41.3568 116.72 41.3568C115.285 41.3568 113.849 41.3568 112.414 41.3568C112.06 41.3568 111.973 41.2228 112.06 40.9165C112.088 40.8973 112.107 40.8686 112.127 40.8686C113.256 40.7442 113.466 40.5145 113.466 39.3754C113.466 36.9442 113.466 34.5035 113.466 32.0627C113.466 31.2204 113.323 30.6748 112.251 30.6078C112.184 30.6078 112.127 30.5791 112.05 30.5504V30.1388C112.117 30.1196 112.174 30.1005 112.232 30.1005C114.146 30.1005 116.06 30.0813 117.983 30.1196C118.538 30.1292 119.103 30.2441 119.629 30.4068C120.758 30.7609 121.419 31.5458 121.505 32.7614C121.591 33.9579 121.036 34.8097 120.041 35.3936C119.773 35.5468 119.486 35.6616 119.16 35.8148C119.447 36.2646 119.696 36.7049 119.983 37.1261C120.538 37.9397 121.036 38.7916 121.677 39.5286C122.069 39.988 122.644 40.323 123.199 40.6006C123.84 40.9165 124.567 40.457 124.682 39.7391C124.711 39.5669 124.711 39.3946 124.711 39.2223C124.711 36.8485 124.711 34.4843 124.711 32.1105C124.711 30.9619 124.586 30.8088 123.476 30.5982C123.428 30.5886 123.38 30.5695 123.313 30.5504C123.304 30.4738 123.285 30.3972 123.285 30.3206C123.285 30.2632 123.304 30.1962 123.313 30.1101H128.404C128.404 30.1101 128.452 30.6556 128.089 30.6939C127.247 30.7992 127.017 31.0864 127.017 31.9478C127.017 34.4269 127.017 36.8964 127.017 39.3754C127.017 40.5815 127.189 40.7825 128.395 40.926C128.519 41.3472 128.491 41.395 128.089 41.395C126.175 41.395 124.261 41.395 122.356 41.395C120.663 41.395 119.428 40.6772 118.643 39.1744C118.261 38.4374 117.887 37.7004 117.466 36.9825C117.036 36.2455 116.567 36.0636 115.61 36.2359L115.6 36.2742ZM115.639 33.1538C115.639 33.8622 115.639 34.5705 115.639 35.2883C115.639 35.4702 115.639 35.6425 115.887 35.6425C116.481 35.6425 117.074 35.6999 117.648 35.6138C118.404 35.5085 118.95 35.0682 119.17 34.2929C119.744 32.235 118.05 30.3685 115.945 30.7131C115.715 30.7514 115.639 30.8279 115.639 31.0577C115.648 31.7564 115.639 32.4551 115.639 33.1443V33.1538Z" fill="#666666"/>
<path id="Vector_6" d="M39.7807 29.4211V29.9284C39.7807 32.2544 39.7807 34.5898 39.7807 36.9157C39.7807 37.3943 39.8381 37.8921 39.9529 38.3611C40.1443 39.1651 40.6802 39.682 41.5032 39.7968C42.0391 39.8734 42.6133 39.883 43.1492 39.7968C44.154 39.6341 44.7186 38.9354 44.8621 37.8059C44.9195 37.3752 44.9387 36.9445 44.9483 36.5042C44.9483 34.2931 44.9578 32.0821 44.9483 29.871C44.9483 29.5073 45.044 29.3924 45.4076 29.4116C46.2593 29.4403 47.111 29.4116 47.9914 29.4116C48.001 29.5934 48.0105 29.7179 48.0105 29.8423C48.0105 32.2161 48.0105 34.5803 48.0105 36.954C48.0105 37.9208 47.8574 38.8684 47.3789 39.7298C46.6134 41.1177 45.3406 41.7494 43.8573 41.9887C42.5941 42.1993 41.331 42.1802 40.0965 41.8356C38.0295 41.2709 36.7854 39.6915 36.7471 37.4805C36.7089 34.8961 36.728 32.3214 36.7471 29.737C36.7471 29.6221 36.8524 29.4211 36.9194 29.4211C37.8668 29.402 38.8142 29.4116 39.8094 29.4116L39.7807 29.4211Z" fill="#666666"/>
<path id="Vector_7" d="M61.6471 33.7284C61.494 33.7284 61.3505 33.7475 61.2069 33.7571C60.7572 33.7571 60.3074 33.7188 59.8672 33.7571C59.0729 33.8337 58.5274 33.7571 58.2308 32.7999C57.915 31.7662 56.604 31.2972 55.2929 31.4695C53.7714 31.6801 52.8336 32.5415 52.4316 33.9868C52.0871 35.212 52.0967 36.4372 52.5178 37.6432C53.2546 39.7681 56.0489 40.5913 57.8576 39.2417C58.3361 38.878 58.6423 38.3898 58.7763 37.8059C58.8432 37.5379 58.9581 37.4422 59.2356 37.4422C60.0873 37.4613 60.939 37.4422 61.8385 37.4422C61.7237 38.4951 61.3983 39.3852 60.7572 40.1606C60.049 41.022 59.1112 41.558 58.0394 41.826C56.2882 42.2663 54.5369 42.2472 52.824 41.6442C50.5369 40.8401 49.3502 39.1364 49.0536 36.7818C48.8909 35.5087 48.9674 34.2548 49.4842 33.0584C50.422 30.8856 52.135 29.6987 54.4317 29.335C55.9245 29.0957 57.4078 29.201 58.8145 29.7945C60.4605 30.4932 61.3888 31.7471 61.6663 33.4891C61.6758 33.5465 61.6663 33.6135 61.6663 33.7093L61.6471 33.7284Z" fill="#666666"/>
<path id="Vector_8" d="M101.906 41.0506V41.4718H96.9015C96.9015 41.3378 96.8919 41.1942 96.8823 41.0411C97.1024 41.0028 97.2938 40.9836 97.4756 40.9453C98.0115 40.8305 98.2316 40.5816 98.2986 40.036C98.3178 39.8542 98.3178 39.6723 98.3178 39.4809C98.3178 37.0688 98.3178 34.6663 98.3178 32.2543C98.3178 32.1107 98.3178 31.9671 98.2986 31.8236C98.2412 31.1727 97.9828 30.8951 97.3321 30.7994C97.1886 30.7802 97.0546 30.7515 96.8919 30.7228V30.2729H101.897V30.7228C101.725 30.7515 101.552 30.7802 101.39 30.7994C100.825 30.8951 100.509 31.1823 100.49 31.747C100.461 32.7999 100.471 33.8527 100.49 34.9056C100.49 35.0013 100.643 35.1641 100.729 35.1641C102.796 35.1641 104.873 35.1641 106.94 35.1641C106.959 35.1641 106.988 35.1449 107.064 35.1066V33.6326C107.064 33.0774 107.064 32.5319 107.064 31.9767C107.064 31.0674 106.806 30.7707 105.906 30.6367C105.811 30.6271 105.715 30.5984 105.591 30.5792V30.2825H110.576C110.682 30.5888 110.624 30.7515 110.251 30.7898C109.457 30.8855 109.189 31.2014 109.189 32.0246C109.189 34.5706 109.189 37.1071 109.189 39.6436C109.189 40.6103 109.457 40.8975 110.423 41.0028C110.471 41.0028 110.519 41.0219 110.586 41.0315V41.4718H105.552C105.552 41.3378 105.543 41.2038 105.533 41.0506C105.753 41.0123 105.945 40.9932 106.136 40.9549C106.653 40.8401 106.93 40.5816 106.94 40.0743C106.969 38.6864 106.95 37.2985 106.95 35.8819H100.509C100.509 36.0255 100.49 36.1595 100.49 36.3031C100.49 37.3464 100.49 38.3993 100.49 39.4426C100.49 40.6869 100.653 40.8783 101.906 41.0602V41.0506Z" fill="#666666"/>
<path id="Vector_9" d="M169.554 26.5972H37.2065C37.1395 26.5972 37.0629 26.6163 37.0151 26.5972C36.9002 26.5397 36.795 26.4536 36.6897 26.377C36.8045 26.3004 36.9098 26.2047 37.0342 26.1664C37.1395 26.1281 37.2734 26.1664 37.3883 26.1664H168.912C169.046 26.1664 169.18 26.1664 169.305 26.1664C169.611 26.1569 169.659 26.31 169.554 26.6067V26.5972Z" fill="#666666"/>
<path id="Vector_10" d="M95.5617 33.374H94.9684C94.9684 33.374 94.9206 33.3165 94.9206 33.2974C94.4899 31.4118 93.1885 30.4833 91.399 30.1196C90.2985 29.8899 89.198 29.8707 88.1262 30.2632C86.2793 30.9428 85.1979 32.2924 84.9204 34.2259C84.6524 36.0828 85.0448 37.8248 86.174 39.3467C87.6764 41.3663 90.1932 41.9502 92.5378 40.8494C93.5617 40.3708 94.4134 39.6817 95.1215 38.8107C95.2459 38.6575 95.3608 38.5044 95.5617 38.2651C95.5617 38.9925 95.5713 39.6051 95.5522 40.2081C95.5522 40.3134 95.4086 40.4474 95.2938 40.5144C93.2268 41.8353 90.9683 42.333 88.5377 42.1225C87.1405 41.998 85.8199 41.6535 84.6333 40.8686C81.3701 38.7054 80.4514 32.6848 85.5041 30.2153C87.2362 29.373 89.0831 29.1816 90.9779 29.306C92.4134 29.4017 93.8201 29.6889 95.1981 30.1196C95.466 30.2058 95.5713 30.3206 95.5617 30.6078C95.5426 31.5171 95.5617 32.4264 95.5617 33.374Z" fill="#666666"/>
<path id="Vector_11" d="M169.18 33.1541C168.791 33.2307 168.552 33.0999 168.463 32.7617C168.051 31.1823 166.721 30.5506 165.19 30.6368C164.788 30.6559 164.348 30.7899 163.994 30.9813C162.97 31.5269 162.845 32.6659 163.764 33.3647C164.376 33.8337 165.094 34.1495 165.774 34.5324C166.654 35.0301 167.554 35.4896 168.405 36.0447C168.989 36.4276 169.381 37.0019 169.534 37.7006C169.85 39.1268 169.142 40.5721 167.735 41.1464C167.046 41.4336 166.262 41.6442 165.525 41.625C164.242 41.5963 162.96 41.3666 161.687 41.2039C161.573 41.1847 161.391 41.0316 161.391 40.9358C161.372 40.1127 161.381 39.28 161.381 38.4472C161.764 38.3515 161.994 38.3706 162.147 38.8014C162.74 40.4764 164.673 41.424 166.357 40.8593C166.759 40.7253 167.171 40.4573 167.458 40.1414C168.032 39.5192 168.003 38.6865 167.362 38.1409C166.874 37.7198 166.281 37.4039 165.707 37.088C165.104 36.7626 164.463 36.5233 163.85 36.2075C163.419 35.9873 162.998 35.7289 162.616 35.4321C161.152 34.2835 161.123 32.2352 162.549 31.01C163.4 30.273 164.434 29.9954 165.515 30.0146C166.616 30.0337 167.716 30.1965 168.807 30.3017C169.094 30.3305 169.2 30.474 169.19 30.7708C169.171 31.5652 169.19 32.3692 169.19 33.1541H169.18Z" fill="#666666"/>
<path id="Vector_12" d="M49.9436 9.95215C51.7714 10.0383 53.5609 9.95215 55.2834 10.2297C57.6567 10.603 58.7667 12.8811 57.8385 15.1208C57.36 16.279 56.3743 16.7959 55.226 17.0735C55.0729 17.1117 54.9198 17.1405 54.6997 17.1883C56.0873 19.2079 57.4461 21.1893 58.8242 23.1897C58.0586 23.4195 57.7332 23.3142 57.3409 22.7494C56.1447 21.017 54.9485 19.2845 53.7618 17.5425C53.5896 17.2936 53.4078 17.1979 53.0346 17.2649C52.6231 17.3319 52.202 17.351 51.7809 17.284C51.1494 17.1883 50.9675 17.2266 50.9675 17.6669C50.9867 19.3898 50.9771 21.1127 50.9675 22.8356C50.9675 22.9792 50.9005 23.228 50.8431 23.2376C50.5656 23.2663 50.269 23.2472 49.9914 23.2089C49.9532 23.2089 49.934 22.9696 49.934 22.8452C49.934 20.4235 49.934 18.0019 49.934 15.5803V10.5647C49.934 10.4116 49.934 10.2489 49.934 9.96172L49.9436 9.95215ZM50.9484 13.6277C50.9484 14.4317 50.9484 15.2357 50.9484 16.0301C50.9484 16.2407 50.9867 16.3747 51.2451 16.3747C52.2594 16.3556 53.2738 16.4034 54.2882 16.346C55.1877 16.2982 56.0394 16.0397 56.5849 15.2357C57.7332 13.5511 56.8145 11.273 54.8049 11.005C53.6662 10.8519 52.4987 10.938 51.3407 10.8902C51.0154 10.8806 50.9388 11.005 50.9484 11.3018C50.9675 12.0771 50.9484 12.8524 50.9484 13.6277Z" fill="#666666"/>
<path id="Vector_13" d="M155.352 15.4274V8.92822H156.338C156.338 9.0718 156.357 9.21537 156.357 9.34938C156.357 13.8098 156.357 18.2702 156.357 22.7305C156.357 22.8837 156.309 23.1613 156.242 23.1708C155.974 23.2187 155.697 23.1996 155.429 23.1708C155.391 23.1708 155.352 22.9603 155.352 22.855C155.352 22.319 155.352 21.783 155.352 21.1991C155.037 21.5819 154.778 21.9457 154.462 22.252C153.247 23.4006 151.802 23.659 150.242 23.1708C148.673 22.6827 147.783 21.5245 147.458 19.9643C147.084 18.184 147.237 16.4707 148.414 14.9775C149.592 13.4843 151.783 12.9579 153.486 13.7236C154.29 14.0778 154.845 14.6999 155.343 15.4274H155.352ZM155.419 18.4042C155.372 17.983 155.362 17.5619 155.285 17.1503C154.96 15.3891 153.831 14.3841 152.08 14.2692C150.491 14.1639 149.113 15.1211 148.615 16.71C148.252 17.8873 148.252 19.0742 148.635 20.2419C149.036 21.4767 149.859 22.2902 151.171 22.5104C152.568 22.7401 153.754 22.319 154.616 21.1608C155.218 20.3472 155.41 19.3996 155.419 18.3946V18.4042Z" fill="#666666"/>
<path id="Vector_14" d="M93.8105 15.4178V8.92822H94.8057C94.8057 9.06223 94.8249 9.18666 94.8249 9.31109C94.8249 13.8002 94.8249 18.2893 94.8344 22.7784C94.8344 23.1996 94.6622 23.2378 94.3177 23.2378C93.9732 23.2378 93.7722 23.1996 93.8009 22.7784C93.8392 22.2807 93.8009 21.783 93.8009 21.2087C93.7148 21.2852 93.667 21.3139 93.6382 21.3618C92.5856 22.9507 91.0258 23.6494 89.2745 23.3144C87.5137 22.9794 86.2601 21.7351 85.8965 19.8782C85.6381 18.5382 85.6859 17.1981 86.2697 15.9347C87.1884 13.9438 89.3702 12.9387 91.4755 13.5418C92.4995 13.8385 93.198 14.5181 93.8009 15.4082L93.8105 15.4178ZM86.7195 18.4329C86.7195 18.4329 86.7769 18.452 86.796 18.4616C86.8343 18.8636 86.8534 19.2752 86.93 19.6772C87.2458 21.4001 88.4037 22.4625 90.0879 22.587C91.6573 22.7018 93.0832 21.716 93.6 20.1271C93.9732 18.9976 93.954 17.8394 93.6287 16.7004C93.2076 15.1977 92.1454 14.3841 90.5377 14.2788C89.1023 14.1831 87.7817 14.9488 87.2362 16.3175C86.9683 16.9876 86.8821 17.7341 86.7195 18.4424V18.4329Z" fill="#666666"/>
<path id="Vector_15" d="M78.059 15.5228V9.00455C78.1355 8.96626 78.1547 8.94712 78.1834 8.94712C78.7894 8.90245 79.0925 9.17365 79.0925 9.76071V22.6824C79.0925 23.2185 78.7097 23.4673 78.2025 23.2376C78.1164 23.1993 78.0685 23.027 78.059 22.9122C78.0494 22.3762 78.059 21.8306 78.059 21.2946C78.0207 21.2658 77.9824 21.2276 77.9441 21.1988C77.9154 21.2658 77.9059 21.352 77.8676 21.4094C76.7384 23.0462 75.0637 23.7162 73.1211 23.3142C71.3698 22.9504 70.0684 21.5626 69.7813 19.7152C69.5421 18.2221 69.6569 16.7672 70.5182 15.4463C71.9249 13.2735 75.1785 12.7279 77.0637 14.3742C77.4274 14.6901 77.7049 15.1113 78.0781 15.5324L78.059 15.5228ZM78.0973 18.3943C78.059 18.0115 78.0398 17.6286 77.9824 17.2553C77.6953 15.4654 76.5183 14.3838 74.7383 14.269C73.1019 14.1637 71.7335 15.1591 71.255 16.8342C70.9296 17.9636 70.9488 19.1026 71.2933 20.2225C71.7335 21.6391 72.834 22.4719 74.3268 22.5772C75.6474 22.6729 76.9776 21.8976 77.5901 20.682C77.9537 19.9641 78.0781 19.1888 78.0973 18.3848V18.3943Z" fill="#666666"/>
<path id="Vector_16" d="M111.773 19.5238C111.83 19.4951 111.84 19.4856 111.859 19.476C112.72 19.3611 112.72 19.3611 112.959 20.1651C113.294 21.3233 114.041 22.0699 115.218 22.3666C116.289 22.6346 117.361 22.6633 118.395 22.2326C119.907 21.6105 120.557 20.012 119.935 18.4997C119.734 18.0115 119.39 17.6191 118.902 17.4659C118.002 17.1884 117.074 16.9874 116.165 16.7481C115.495 16.5662 114.806 16.4226 114.155 16.1738C113.103 15.7526 112.433 14.9869 112.318 13.8096C112.184 12.4982 112.576 11.4167 113.677 10.6413C115.151 9.59804 117.744 9.57889 119.227 10.5839C120.127 11.1965 120.567 12.0675 120.739 13.197C120.443 13.197 120.184 13.2161 119.935 13.1874C119.859 13.1874 119.754 13.0438 119.734 12.9577C119.371 11.4932 118.318 10.7658 116.758 10.7562C116.127 10.7562 115.457 10.8136 114.854 11.0051C113.505 11.4262 112.873 12.9481 113.438 14.2594C113.667 14.7954 114.069 15.1592 114.596 15.3219C115.447 15.5803 116.328 15.7335 117.189 15.9728C117.983 16.1833 118.797 16.3939 119.553 16.7002C120.347 17.0352 120.825 17.6957 121.017 18.5475C121.591 21.0266 120.022 23.1419 117.419 23.3908C116.347 23.4961 115.285 23.4291 114.27 23.0079C112.73 22.3666 111.993 21.1414 111.763 19.5334L111.773 19.5238Z" fill="#666666"/>
<path id="Vector_17" d="M68.4033 20.548C68.2214 21.8402 67.2166 22.9122 65.8195 23.2376C63.9247 23.6779 62.1735 23.4291 60.8624 21.8402C59.8481 20.615 59.6758 19.141 59.8481 17.6191C59.9916 16.2982 60.5084 15.1592 61.5706 14.3169C64.1544 12.2685 67.9056 13.7234 68.4224 16.9586C68.4798 17.3224 68.4798 17.6957 68.5181 18.0594C68.5564 18.404 68.4415 18.5092 68.0875 18.5092C65.8482 18.4901 63.6089 18.5092 61.3601 18.5092C60.805 18.5092 60.7763 18.5092 60.872 19.0548C60.9581 19.5717 61.0443 20.0981 61.2356 20.5863C61.7715 21.9455 63.0443 22.6921 64.585 22.5868C65.2357 22.5485 65.9056 22.4719 66.4128 22.0508C66.7669 21.754 67.0922 21.3807 67.2932 20.9692C67.4559 20.6342 67.609 20.5001 67.9631 20.548C68.1066 20.5671 68.2501 20.548 68.4224 20.548H68.4033ZM67.475 17.6191C67.3793 16.3365 67.0922 15.1879 65.8865 14.5849C64.6616 13.9723 63.3984 14.0297 62.2692 14.8529C61.3505 15.5229 60.9868 16.4896 60.8816 17.6191H67.475Z" fill="#666666"/>
<path id="Vector_18" d="M105.705 20.5672C105.504 21.5052 105.045 22.2135 104.289 22.7208C101.457 24.616 97.5617 22.8452 97.1407 19.476C96.9876 18.2221 97.0546 16.997 97.6192 15.8484C98.3464 14.3839 99.5331 13.5512 101.169 13.4363C102.796 13.3214 104.165 13.8192 105.074 15.2549C105.648 16.1547 105.782 17.1692 105.792 18.203C105.792 18.5476 105.562 18.4901 105.351 18.4901C103.112 18.4901 100.873 18.4901 98.624 18.4901H98.1646C97.7627 20.2322 99.1694 22.2518 100.921 22.5102C101.648 22.6155 102.366 22.5868 103.064 22.3475C103.744 22.1178 104.289 21.6871 104.528 21.0075C104.672 20.5959 104.882 20.481 105.275 20.5289C105.39 20.548 105.514 20.548 105.696 20.5576L105.705 20.5672ZM104.748 17.6861C104.662 16.4322 104.385 15.3123 103.236 14.6902C102.021 14.0393 100.768 14.0776 99.6096 14.8721C98.6431 15.5325 98.2699 16.5279 98.1455 17.6765C100.375 17.6765 102.528 17.6765 104.748 17.6765V17.6861Z" fill="#666666"/>
<path id="Vector_19" d="M123.285 16.3269C123.428 15.1592 123.974 14.3073 125.017 13.8383C126.137 13.3214 127.314 13.2832 128.491 13.6469C129.706 14.0297 130.405 15.1018 130.405 16.5662C130.414 18.4901 130.405 20.414 130.405 22.3284C130.405 22.5389 130.405 22.7495 130.405 22.9601C130.414 23.1707 130.328 23.2568 130.108 23.276C129.438 23.3143 129.428 23.3143 129.428 22.6347V21.9168C129.323 22.0029 129.285 22.0317 129.247 22.0604C128.041 23.3813 126.194 23.812 124.519 23.1611C123.524 22.7687 122.95 22.0508 122.864 20.9596C122.768 19.8015 123.18 18.9017 124.232 18.337C125.39 17.7244 126.682 17.7244 127.955 17.7053C128.328 17.7053 128.701 17.7148 129.074 17.7244C129.323 17.7244 129.448 17.6574 129.419 17.3894C129.381 16.8917 129.39 16.3844 129.304 15.8962C129.151 15.0061 128.586 14.4509 127.696 14.3456C127.132 14.2786 126.538 14.2978 125.974 14.403C125.17 14.5562 124.586 15.0635 124.376 15.8675C124.27 16.2791 124.079 16.4035 123.696 16.3461C123.572 16.3269 123.438 16.3365 123.275 16.3269H123.285ZM129.467 18.5476C129.4 18.5284 129.361 18.4997 129.323 18.4997C128.615 18.4997 127.897 18.4423 127.189 18.5093C126.462 18.5763 125.725 18.6816 125.036 18.9113C124.223 19.1889 123.821 19.9833 123.907 20.8352C124.002 21.7636 124.5 22.3284 125.409 22.5294C126.175 22.6921 126.931 22.6538 127.668 22.3858C128.644 22.0221 129.371 21.4095 129.467 20.3088C129.515 19.7345 129.467 19.1602 129.467 18.5571V18.5476Z" fill="#666666"/>
<path id="Vector_20" d="M144.099 21.6774C143.448 22.5867 142.625 23.1897 141.563 23.3237C140.874 23.4098 140.127 23.3907 139.457 23.2471C138.213 22.9695 137.448 21.9262 137.342 20.5096C137.285 19.7056 137.304 18.9016 137.304 18.0976C137.304 16.7958 137.304 15.4941 137.304 14.1828C137.304 13.7744 137.502 13.5734 137.897 13.5797C138.003 13.5797 138.108 13.5893 138.28 13.5989V14.0583C138.28 15.8578 138.28 17.6668 138.28 19.4759C138.28 19.7822 138.299 20.0789 138.338 20.3756C138.558 21.9071 139.563 22.6824 141.094 22.5484C142.988 22.3857 144.089 21.1988 144.089 19.3036C144.089 17.552 144.089 15.8004 144.089 14.0487C144.089 13.8956 144.146 13.6276 144.223 13.618C144.472 13.5702 144.74 13.5893 144.998 13.6276C145.036 13.6276 145.075 13.8573 145.075 13.9817C145.075 15.3122 145.075 16.6427 145.075 17.9731C145.075 19.5907 145.056 21.2083 145.084 22.8355C145.084 23.2471 144.902 23.2758 144.587 23.2662C144.28 23.2662 144.041 23.2471 144.079 22.8355C144.108 22.4431 144.079 22.0507 144.079 21.6678L144.099 21.6774Z" fill="#666666"/>
<path id="Vector_21" d="M133.419 8.92822H134.405C134.414 9.06223 134.433 9.18666 134.433 9.31109C134.433 13.8098 134.433 18.318 134.433 22.8167C134.433 22.9507 134.366 23.1996 134.299 23.2091C134.031 23.2474 133.754 23.2187 133.486 23.1804C133.448 23.1804 133.429 22.9411 133.429 22.8167C133.429 20.9885 133.429 19.1603 133.429 17.3226V9.42595C133.429 9.2728 133.429 9.11966 133.429 8.92822H133.419Z" fill="#666666"/>
<path id="Vector_22" d="M71.9058 37.5378C70.7574 37.5378 69.8961 36.7242 69.9057 35.6522C69.9057 34.6185 70.7957 33.8145 71.9249 33.8145C73.0541 33.8145 73.9632 34.6376 73.9536 35.6809C73.9536 36.7338 73.0637 37.5378 71.9058 37.5283V37.5378Z" fill="#666666"/>
<path id="Vector_23" d="M26.7182 26.2525C26.7182 32.5123 21.6464 37.5853 15.3783 37.5853C9.11022 37.5853 4.02877 32.4836 4.03834 26.1185C4.03834 19.983 9.18677 14.8909 15.3783 14.8813C21.6559 14.8813 26.7182 19.9543 26.7182 26.2525ZM9.80879 26.0323C11.4452 26.0323 13.0816 26.0323 14.7084 26.0323C15.0721 26.0323 15.2156 25.9557 15.2156 25.5537C15.1965 22.2611 15.1965 18.9684 15.2156 15.6854C15.2156 15.3025 15.0816 15.2259 14.7276 15.2451C13.1773 15.3695 11.6844 15.7332 10.316 16.4894C6.73696 18.4707 4.76563 21.4954 4.40199 25.5729C4.37328 25.9175 4.46897 26.0323 4.83262 26.0323C6.49772 26.0132 8.15326 26.0323 9.80879 26.0323ZM15.1965 30.9713V30.5023C15.1965 29.2867 15.1773 28.0807 15.206 26.8651C15.206 26.4535 15.0816 26.3673 14.6893 26.3673C11.6174 26.3865 8.54561 26.3673 5.47378 26.3673C4.70183 26.3673 4.36371 26.7566 4.4594 27.5351C5.091 32.7995 9.3973 36.8579 14.7084 37.2024C15.1773 37.2312 15.1965 37.2216 15.1965 36.7334C15.1965 34.9914 15.1965 33.2589 15.1965 31.5169C15.1965 31.402 15.1773 31.2776 15.1678 31.1532C14.9764 31.5743 14.651 31.6987 14.2586 31.7275C13.6653 31.7657 13.3782 32.1677 13.5409 32.7325C13.5983 32.9239 13.6366 33.1919 13.5409 33.3451C13.3304 33.6896 13.3017 34.0247 13.3687 34.4075C13.3974 34.5607 13.2634 34.7521 13.1964 34.9148C13.1581 35.0105 13.0529 35.1062 13.072 35.1828C13.1773 35.6614 12.8041 35.939 12.5935 36.2644C12.45 36.4941 12.1342 36.4941 11.9332 36.2644C11.4548 35.7188 11.3878 35.001 11.1485 34.3501C11.1198 34.2639 11.1964 34.1491 11.1964 34.0438C11.1964 33.9098 11.206 33.7566 11.139 33.6609C10.8902 33.3163 10.8614 32.9622 11.0433 32.5889C11.0815 32.5028 11.1198 32.3688 11.072 32.3018C10.871 32.005 10.7562 31.6222 10.2299 31.6987C9.82793 31.7562 9.51214 31.4786 9.45472 31.1723C9.37816 30.7703 9.70353 30.665 9.95234 30.5597C10.2681 30.4257 10.2968 30.2056 10.2107 29.9567C10.1055 29.6408 9.95234 29.3441 9.80879 28.9804C9.64611 29.1144 9.3973 29.2101 9.33989 29.3633C9.1772 29.8323 8.91883 30.1673 8.49776 30.2343C8.60303 31.1627 8.72743 32.0337 8.79442 32.9048C8.82313 33.2972 8.41164 33.6035 7.98101 33.5844C7.55038 33.5652 7.23458 33.2781 7.24415 32.8665C7.26329 32.3783 7.30157 31.8902 7.37812 31.4116C7.43554 31.0862 7.34942 30.9522 7.02405 30.8564C5.9714 30.5693 5.51206 29.9376 5.46421 28.8464C5.46421 28.7028 5.33024 28.5401 5.20583 28.4252C5.07186 28.2912 4.89004 28.2051 4.72735 28.0998C4.74649 28.0711 4.76563 28.0328 4.78477 28.0041C5.01444 28.1189 5.23454 28.2242 5.50249 28.3582C5.60775 28.1189 5.78958 27.8988 5.78001 27.6978C5.76087 27.5255 5.52163 27.3628 5.37808 27.2001C5.37808 27.1618 5.39722 27.1235 5.40679 27.0852C5.78001 27.4681 6.14365 27.6499 6.43074 27.0852C6.32547 26.9225 6.21064 26.7502 6.10537 26.5779C6.22978 26.5683 6.28719 26.5971 6.32547 26.6449C6.51686 26.9512 6.7561 27.0278 7.11975 26.9129C7.69392 26.7311 8.27766 26.8268 8.80399 27.1043C9.06237 27.2384 9.22505 27.2383 9.3973 26.9895C9.51214 26.8172 9.68439 26.6736 9.82793 26.5205C9.86621 26.5492 9.89492 26.5779 9.92363 26.6066C9.77052 26.7885 9.60783 26.9703 9.47386 27.1618C9.41644 27.2479 9.34946 27.4106 9.38773 27.4585C9.55999 27.6595 9.41644 27.7648 9.31118 27.8988C9.22505 28.0041 9.14849 28.1094 9.07194 28.2242C9.09108 28.2434 9.11979 28.2721 9.1485 28.2912C9.6174 27.9084 10.0959 27.5255 10.5648 27.1426C10.5839 27.1713 10.6126 27.2001 10.6318 27.2288C10.2107 27.8892 9.15806 28.0615 9.16763 29.1718C9.90449 28.7602 10.5744 28.3869 11.2442 28.0041C11.2634 28.0424 11.2921 28.0807 11.3112 28.1189C11.0146 28.3104 10.7275 28.4922 10.4308 28.6837C10.45 28.7315 10.4787 28.7794 10.4978 28.8272C10.737 28.7315 11.005 28.6932 11.206 28.5497C11.8663 28.0807 12.7371 28.0328 13.3878 28.521C13.6558 28.722 13.9141 28.7794 14.2299 28.7698C14.8807 28.7602 15.0242 28.9995 14.7371 29.6025C14.6797 29.7174 14.5457 29.8131 14.5266 29.928C14.4979 30.1194 14.4787 30.3683 14.5744 30.5214C14.6893 30.6841 14.9285 30.7703 15.206 30.9426L15.1965 30.9713ZM26.3546 26.4535H16.1056C15.5601 26.4535 15.5601 26.4535 15.5601 26.9895C15.5601 30.1386 15.5601 33.2781 15.5601 36.4271C15.5601 37.346 15.3496 37.3652 16.4692 37.2503C20.9286 36.8004 24.699 33.6801 25.9431 29.3824C26.211 28.4444 26.3833 27.4968 26.3546 26.463V26.4535ZM26.3546 25.994C26.3546 25.8217 26.3546 25.6782 26.3546 25.5346C26.2876 24.2041 25.9909 22.9215 25.4072 21.7251C23.5028 17.8007 20.3545 15.6375 16.0003 15.2355C15.6367 15.1972 15.5505 15.3312 15.5505 15.6758C15.5601 18.9397 15.5505 22.2037 15.5505 25.4676C15.5505 26.0132 15.5505 26.0132 16.0864 26.0132H25.857C26.0101 26.0132 26.1632 25.994 26.345 25.994H26.3546ZM11.694 29.5068C11.5313 29.3537 11.4165 29.1335 11.2442 29.0857C10.9859 29.0187 10.6988 29.057 10.4212 29.0761C10.3543 29.0761 10.2873 29.1623 10.2203 29.2101C10.2873 29.2771 10.3447 29.3728 10.4212 29.392C10.5648 29.4207 10.7179 29.392 10.871 29.392C10.871 29.4207 10.871 29.4494 10.871 29.4685C10.6988 29.4973 10.5361 29.526 10.3638 29.5547L10.3447 29.6791C10.6031 29.7844 10.8519 29.8801 11.1964 30.0237C11.0337 30.0811 10.9571 30.129 10.8806 30.129C10.7275 30.129 10.5457 30.0716 10.5361 30.3204C10.5265 30.5789 10.6988 30.5789 10.8806 30.5789C11.5792 30.5789 12.2777 30.5789 12.9763 30.5789C13.2538 30.5789 13.5314 30.598 13.8089 30.5693C13.9141 30.5597 14.0098 30.4353 14.1151 30.3587C14.0194 30.2821 13.9333 30.2056 13.8376 30.1386C13.761 30.0907 13.6749 30.0811 13.4931 30.0237C13.8663 29.8801 14.1247 29.7844 14.3926 29.6887L14.3735 29.5451C14.1917 29.5164 14.0098 29.4973 13.8376 29.4685C14.0098 29.392 14.1725 29.4015 14.3352 29.3824C14.4022 29.3824 14.4596 29.2867 14.5266 29.2293C14.4692 29.1718 14.4118 29.0665 14.3543 29.0665C14.0385 29.057 13.7132 29.0282 13.4165 29.0953C13.3017 29.1144 13.2347 29.3633 13.1294 29.526C12.8806 29.2388 13.1294 29.0187 13.2156 28.7985C12.6127 28.3678 11.9332 28.3774 11.4643 28.8177C11.6557 29.0091 11.8471 29.2101 11.6749 29.5068H11.694ZM9.09108 27.7265C8.77528 27.3915 8.33508 27.2671 7.86617 27.2096C6.93792 27.0948 6.02881 27.7265 5.85656 28.6167C5.67474 29.5355 6.20107 30.33 7.16759 30.6076C7.39726 30.6746 7.60779 30.8181 7.83746 30.8947C7.94273 30.933 8.0767 30.8947 8.19154 30.8947C8.1724 30.7894 8.19154 30.6267 8.11498 30.5789C7.96187 30.464 7.78005 30.3779 7.59822 30.3109C6.91878 30.0716 6.58385 29.6121 6.62213 28.9134C6.65084 28.2817 7.05276 27.7744 7.74177 27.6786C8.18197 27.6212 8.64131 27.7074 9.08151 27.7361L9.09108 27.7265ZM11.8758 33.4504C11.6079 33.0101 11.6462 32.8856 12.1438 32.6655C12.2299 32.6272 12.316 32.5889 12.4021 32.5602C12.8711 32.3879 13.2825 32.1486 13.4931 31.6605C13.5983 31.4307 13.7802 31.3637 14.0385 31.3733C14.2682 31.3829 14.517 31.3063 14.8328 31.2584C14.6988 31.0957 14.6701 31.0383 14.6223 31C14.1725 30.6554 13.6175 30.7416 13.273 31.3063C12.9572 31.8327 12.5266 32.1295 11.9811 32.3209C11.7993 32.3879 11.627 32.5028 11.4835 32.6368C11.2634 32.8473 11.206 33.1153 11.3782 33.3834C11.5122 33.6035 11.6749 33.6801 11.8663 33.4408L11.8758 33.4504ZM8.46906 32.6846C8.43078 32.3209 8.42121 31.9476 8.35422 31.5935C8.33508 31.4786 8.16283 31.3446 8.03842 31.3063C7.83746 31.2489 7.7322 31.3637 7.72263 31.5839C7.69392 31.938 7.64607 32.2826 7.60779 32.6368C7.55995 33.0675 7.68435 33.2685 8.00972 33.2876C8.35422 33.3068 8.48819 33.1249 8.46906 32.6846ZM12.6892 32.7133C13.0242 33.1153 12.8328 33.3068 12.517 33.4599C12.2682 33.5844 12.0289 33.7184 11.7993 33.8715C11.5505 34.0438 11.4548 34.3022 11.5696 34.5989C11.5983 34.6755 11.7131 34.7234 11.7801 34.7904C11.8375 34.7042 11.9715 34.599 11.9524 34.5319C11.8663 34.2257 12.0768 34.1299 12.2682 34.0151C12.4596 33.9002 12.6892 33.8332 12.8519 33.6896C13.0242 33.5461 13.1964 33.3546 13.2634 33.1441C13.3017 33.0101 13.1869 32.7995 13.0912 32.6655C13.0624 32.6176 12.8711 32.6846 12.6988 32.7038L12.6892 32.7133ZM12.3734 35.3934C12.3734 35.3934 12.3065 35.3073 12.2777 35.269C12.4117 35.1637 12.5457 35.0488 12.6988 34.9531C12.9668 34.7808 13.1199 34.5607 13.0337 34.2257C13.0146 34.1682 12.938 34.0821 12.8806 34.0725C12.8232 34.0725 12.6892 34.1299 12.6892 34.1682C12.6988 34.6085 12.2586 34.6851 12.0672 34.9531C11.9524 35.1158 11.8758 35.3838 11.9045 35.5753C11.9428 35.7571 12.1438 35.9103 12.3065 36.1113C12.4691 35.8528 12.6222 35.6135 12.8232 35.2977C12.5935 35.3455 12.4883 35.3647 12.383 35.3838L12.3734 35.3934ZM9.73224 31.268C10.0576 31.3254 10.2873 31.402 10.5074 31.3829C10.804 31.3542 10.9859 31.4594 11.1103 31.6987C11.1677 31.804 11.2251 31.9093 11.2921 32.005C11.4548 32.2348 11.627 32.2539 11.8088 32.0433C11.5983 31.7466 11.4165 31.4403 11.1772 31.1819C10.7466 30.7033 10.2394 30.7033 9.72267 31.2776L9.73224 31.268ZM11.9907 31.938C12.6031 31.8423 12.7179 31.5839 12.4787 30.8277C12.3065 30.9139 12.0481 30.9713 12.0194 31.0862C11.9524 31.3542 12.0002 31.6413 12.0002 31.938H11.9907ZM8.90926 28.6645C8.38293 28.6645 8.1724 28.856 8.16283 29.3058C8.63174 29.3537 8.84227 29.1718 8.90926 28.6645ZM7.89488 29.3058C7.86617 28.8464 7.62693 28.6358 7.14845 28.6837C7.1963 29.1718 7.42597 29.3633 7.89488 29.3058ZM9.00495 29.4207C8.46905 29.3441 8.27766 29.459 8.13412 29.9184C8.59346 30.0524 8.86141 29.9088 9.00495 29.4207ZM7.90445 29.928C7.78962 29.4494 7.52167 29.2963 7.05276 29.4494C7.20587 29.9088 7.42597 30.0333 7.90445 29.928ZM7.28243 27.9275C7.28243 28.4444 7.47382 28.655 7.91402 28.6071C7.88531 28.2242 7.70349 27.9849 7.28243 27.9275ZM8.16283 28.6645C8.67002 28.5688 8.8327 28.3487 8.71786 27.9467C8.27766 28.0615 8.16283 28.1955 8.16283 28.6645Z" fill="#666666"/>
<path id="Vector_24" d="M15.9429 38.5141C16.0099 38.5045 16.163 38.4758 16.2778 38.4662C16.3066 38.7342 16.3257 38.9831 16.364 39.3085C16.6989 39.2415 17.0338 39.2511 17.2444 39.098C17.3496 39.0214 17.2252 38.6385 17.1965 38.3801C17.2826 38.3801 17.4262 38.3514 17.5315 38.3418C17.5984 38.9448 17.6654 39.5478 17.742 40.1508H17.4166C17.3783 39.902 17.3496 39.6531 17.3018 39.3181C16.986 39.3755 16.6319 39.3468 16.4405 39.5095C16.3161 39.6148 16.4405 40.0073 16.4597 40.2944C16.364 40.2944 16.23 40.3136 16.1343 40.3231C16.0577 39.7105 15.9908 39.1267 15.9238 38.5237L15.9429 38.5141Z" fill="#666666"/>
<path id="Vector_25" d="M24.3354 17.8584C24.833 17.4372 25.2828 17.0544 25.7613 16.6523C25.9431 16.9012 26.2015 17.1979 26.3928 17.5329C26.6321 17.9637 26.5364 18.3465 26.1919 18.6241C25.8282 18.9113 25.388 18.94 25.034 18.6241C24.7756 18.404 24.5746 18.1264 24.345 17.8584H24.3354ZM25.8378 17.0448C25.5124 17.3128 25.1679 17.5808 24.8521 17.8679C24.7852 17.9349 24.7564 18.1168 24.7947 18.203C24.9957 18.6432 25.4646 18.7485 25.8474 18.4614C26.3737 18.0785 26.3833 17.5138 25.8282 17.0352L25.8378 17.0448Z" fill="#666666"/>
<path id="Vector_26" d="M20.699 15.1593C21.0052 14.6137 21.2923 14.1064 21.5985 13.5513C21.8664 13.7236 22.2014 13.8958 22.4885 14.1256C22.8617 14.4223 22.9191 14.8339 22.699 15.2167C22.4789 15.6092 22.0674 15.7815 21.6272 15.657C21.5411 15.6283 21.4454 15.6092 21.3688 15.5613C21.1392 15.4369 20.9191 15.2933 20.6894 15.1593H20.699ZM22.6129 14.719C22.4406 14.451 22.3258 14.2309 22.1631 14.0586C21.9717 13.848 21.7899 13.848 21.6463 14.1351C21.5124 14.4223 21.3114 14.6807 21.1966 14.9679C21.1487 15.0827 21.2253 15.3412 21.3018 15.3699C21.5315 15.456 21.8569 15.5613 22.0196 15.456C22.2588 15.3125 22.3928 14.9966 22.6033 14.7094L22.6129 14.719Z" fill="#666666"/>
<path id="Vector_27" d="M29.6369 27.9468C29.5891 27.8607 29.5412 27.7745 29.4743 27.6693C29.436 27.7171 29.4073 27.7363 29.3977 27.765C29.1393 28.3297 28.6991 28.5211 28.1537 28.3106C27.6656 28.1191 27.4455 27.5831 27.6082 27.0279C27.7517 26.5494 28.2493 26.2814 28.7757 26.4249C28.9097 26.4632 29.0819 26.5302 29.1393 26.6355C29.369 27.0471 29.5508 27.4778 29.7518 27.899C29.7135 27.9181 29.6656 27.9373 29.6274 27.9564L29.6369 27.9468ZM28.5269 26.7217C28.0484 26.7217 27.656 27.0662 27.6752 27.4682C27.6943 27.8033 28.0675 28.0617 28.5269 28.0521C28.9958 28.0521 29.3594 27.7267 29.3499 27.3247C29.3499 26.9609 29.0053 26.7121 28.5269 26.7217Z" fill="#666666"/>
<path id="Vector_28" d="M7.4834 38.0065C7.80876 37.4513 8.11499 36.944 8.44036 36.3984C8.7083 36.5803 9.0241 36.7622 9.29205 36.9823C9.66526 37.2886 9.73225 37.6906 9.51215 38.0735C9.29205 38.4659 8.87099 38.6669 8.44036 38.5042C8.10542 38.3798 7.79919 38.1692 7.4834 38.0065ZM9.41645 37.5853C9.2442 37.3173 9.13893 37.0972 8.98582 36.9153C8.81357 36.7143 8.62218 36.676 8.47863 36.9727C8.37337 37.1929 8.20112 37.3939 8.10542 37.614C8.03843 37.7863 7.95231 38.0639 8.02886 38.15C8.22983 38.3702 8.55519 38.5329 8.83271 38.3128C9.06238 38.1309 9.20592 37.8438 9.41645 37.5758V37.5853Z" fill="#666666"/>
<path id="Vector_29" d="M4.13404 34.0535C3.58857 34.0535 3.11009 33.5558 3.10052 32.9719C3.10052 32.4933 3.53116 32.0913 4.06705 32.0913C4.61252 32.0913 5.08143 32.5603 5.091 33.125C5.10057 33.6323 4.66036 34.0535 4.12447 34.0535H4.13404ZM3.92351 33.8333C4.35414 33.8333 4.88047 33.3452 4.89003 32.9336C4.89003 32.5986 4.62209 32.3019 4.30629 32.3115C3.84695 32.321 3.34933 32.79 3.34933 33.2112C3.34933 33.5653 3.59814 33.8333 3.92351 33.8333Z" fill="#666666"/>
<path id="Vector_30" d="M7.99058 14.2019C8.55519 14.3742 9.12936 14.5369 9.81837 14.7379C9.55042 14.288 9.34946 13.9434 9.12936 13.5893C9.17721 13.5606 9.26334 13.5127 9.33989 13.4648C9.62698 14.0104 9.89493 14.5369 10.2203 15.159C9.55999 14.9676 8.98582 14.8144 8.42121 14.6517C8.40208 14.6804 8.37337 14.7092 8.35423 14.7379C8.56476 15.0633 8.76572 15.3983 8.98582 15.7429C8.96668 15.7429 8.88055 15.8003 8.76572 15.8673C8.47863 15.3313 8.21068 14.8049 7.93317 14.2784C7.95231 14.2497 7.97145 14.221 7.99058 14.1923V14.2019Z" fill="#666666"/>
<path id="Vector_31" d="M16.23 13.2256V14.02C16.096 14.0009 15.9429 13.9817 15.8472 13.9721C15.9046 13.3787 15.962 12.7948 16.0194 12.1918C16.3448 12.1918 16.7658 12.1152 17.0147 12.4598C17.2252 12.747 16.9955 12.9958 16.7371 13.2638C16.9572 13.551 17.1773 13.8477 17.3783 14.1253C16.7658 14.2306 16.7658 13.4553 16.2204 13.2351L16.23 13.2256ZM16.23 12.747C16.3352 12.9193 16.4118 13.0341 16.4883 13.1586C16.6032 13.0341 16.8137 12.9097 16.8137 12.7757C16.8137 12.6321 16.6414 12.479 16.5362 12.3354C16.4405 12.4598 16.3544 12.5843 16.2204 12.747H16.23Z" fill="#666666"/>
<path id="Vector_32" d="M3.02394 29.976C2.6603 30.1196 2.29665 30.2632 1.91387 30.4163C1.88516 30.3589 1.85645 30.2823 1.81818 30.2057C2.39235 30.0143 2.94739 29.8325 3.62683 29.6123C3.33974 30.244 3.1005 30.78 2.85169 31.3161C2.87083 31.3448 2.88997 31.3639 2.90911 31.3926C3.27275 31.2395 3.63639 31.0959 4.01918 30.9332C4.11487 31.0576 4.11487 31.1725 3.84693 31.2491C3.35888 31.3831 2.8804 31.5745 2.27752 31.7755C2.58374 31.1342 2.83255 30.6078 3.09093 30.0717C3.07179 30.0526 3.05265 30.0239 3.02394 29.9952V29.976Z" fill="#666666"/>
<path id="Vector_33" d="M5.75128 15.9247C5.81827 15.8672 5.94267 15.7619 6.01923 15.7045C6.32546 16.0587 6.60297 16.4224 6.93791 16.7191C7.04317 16.8148 7.36854 16.7957 7.48337 16.7C7.59821 16.6042 7.6652 16.2884 7.58864 16.1639C7.36854 15.7811 7.07188 15.4461 6.76566 15.0632C6.80393 15.0249 6.87092 14.9579 6.95705 14.8813C6.99533 14.9483 7.0049 14.9771 7.02403 15.0058C7.23457 15.2929 7.46423 15.5609 7.6652 15.8577C7.95228 16.2884 7.84702 16.7095 7.41639 16.968C7.07188 17.1785 6.76566 17.102 6.44986 16.7382C6.22019 16.4798 6.00009 16.2214 5.75128 15.9342V15.9247Z" fill="#666666"/>
<path id="Vector_34" d="M27.4838 24.051C27.4455 23.917 27.4072 23.7926 27.3689 23.6681C27.6177 23.5437 27.8761 23.4767 27.79 23.0843C27.6943 22.6823 27.4359 22.7397 27.1584 22.7493C27.1297 22.644 27.0914 22.5387 27.0723 22.4717C27.723 22.5865 28.3833 22.6918 29.1393 22.8258C28.546 23.2757 28.0292 23.6586 27.4838 24.0606V24.051ZM27.8474 22.8067C27.9048 22.9981 27.9335 23.113 27.9814 23.2853C28.1823 23.1513 28.3259 23.046 28.479 22.9503C28.4694 22.9215 28.4599 22.8833 28.4503 22.8545C28.278 22.845 28.1058 22.8354 27.857 22.8163L27.8474 22.8067Z" fill="#666666"/>
<path id="Vector_35" d="M23.8378 17.3318C23.7421 17.2457 23.6368 17.1691 23.5411 17.0925C23.7708 16.5948 23.7612 16.4704 23.3689 16.2885C23.2349 16.2215 23.0148 16.3459 22.833 16.3747C22.833 16.4129 22.833 16.4608 22.833 16.5087C22.7564 16.4417 22.6799 16.3747 22.5746 16.2885C23.1775 15.9726 23.7612 15.6759 24.4311 15.3218C24.211 16.0492 24.0196 16.681 23.8186 17.3318H23.8378ZM23.9909 15.8578C23.9909 15.8578 23.9335 15.8195 23.9048 15.7908C23.7516 15.8769 23.5985 15.9726 23.3976 16.0971C23.5411 16.2119 23.6464 16.2981 23.7804 16.4034C23.8665 16.1832 23.9239 16.0205 23.9813 15.8578H23.9909Z" fill="#666666"/>
<path id="Vector_36" d="M26.1536 35.3172C25.5316 35.1258 24.9096 34.9248 24.2589 34.7238C24.3354 34.6377 24.412 34.5324 24.5077 34.4175C24.8043 34.6377 25.0436 34.6664 25.2732 34.3314C25.4838 34.0346 25.2732 33.8815 25.101 33.6996C25.1584 33.6326 25.2158 33.5656 25.2924 33.4795C25.5986 34.0729 25.9048 34.6568 26.2015 35.2311C26.1823 35.2598 26.1632 35.2885 26.1441 35.3172H26.1536ZM25.168 34.6855C25.3976 34.7621 25.5699 34.8099 25.8378 34.9057C25.6943 34.6472 25.6082 34.5037 25.5029 34.2931C25.3785 34.4367 25.2924 34.5324 25.168 34.6855Z" fill="#666666"/>
<path id="Vector_37" d="M4.82305 19.9258C4.47855 19.3802 4.12447 18.8347 3.77997 18.2891C3.79911 18.2604 3.80868 18.2316 3.82782 18.1934C4.44027 18.3274 5.06229 18.4518 5.73216 18.5954C5.6556 18.7294 5.59819 18.8347 5.5312 18.9495C5.24411 18.7581 5.01444 18.7007 4.80391 19.0452C4.68908 19.2367 4.68908 19.3611 4.80391 19.543C4.8709 19.6483 4.86133 19.8014 4.89004 19.9258C4.8709 19.9258 4.84219 19.9258 4.82305 19.9258ZM4.86133 18.7389C4.61252 18.6719 4.4307 18.6241 4.14361 18.5475C4.31586 18.7964 4.42113 18.9495 4.5551 19.141C4.66037 19.0069 4.73693 18.9112 4.86133 18.7389Z" fill="#666666"/>
<path id="Vector_38" d="M14.9285 38.9064C14.5744 38.5427 14.1629 38.4661 13.8567 38.7054C13.5505 38.9543 13.4644 39.5573 13.7036 39.9019C13.9237 40.2273 14.3735 40.3039 14.785 40.0837C14.7467 40.3804 14.6223 40.4283 14.1629 40.3517C13.5026 40.2464 13.1199 39.7774 13.2251 39.2223C13.3304 38.6288 13.8663 38.3513 14.6223 38.5044C14.9859 38.5714 14.9955 38.5905 14.9285 38.9064Z" fill="#666666"/>
<path id="Vector_39" d="M3.73213 21.3901C4.04793 21.5528 4.06707 21.706 3.82783 22.1941C3.54074 22.778 3.02398 22.9886 2.49766 22.7302C2.00004 22.4909 1.8565 21.9166 2.14358 21.2944C2.23928 21.0934 2.2967 20.7584 2.60292 20.9881C2.45938 21.1796 2.28713 21.3423 2.19143 21.5528C2.13401 21.6868 2.14358 21.8974 2.201 22.041C2.34454 22.3952 2.94743 22.5962 3.33021 22.4526C3.71299 22.2994 3.87568 21.8783 3.73213 21.3997V21.3901Z" fill="#666666"/>
<path id="Vector_40" d="M22.8425 38.2175C22.498 37.7102 22.1727 37.222 21.8473 36.7339C22.4597 36.2362 22.5459 36.2074 22.7086 36.3797C22.5554 36.4563 22.3928 36.5233 22.2014 36.619C22.3353 36.8296 22.4406 37.0019 22.5554 37.1837C22.7468 37.0976 22.8999 37.021 23.0626 36.954C23.0818 36.9827 23.0913 37.021 23.1009 37.0497C22.9669 37.1359 22.8234 37.2125 22.6224 37.3369C22.7947 37.5379 22.9095 37.7676 23.1009 37.8538C23.1966 37.8921 23.4071 37.6623 23.5602 37.5666C23.6113 37.7261 23.3752 37.9431 22.8521 38.2175H22.8425Z" fill="#666666"/>
<path id="Vector_41" d="M5.29193 34.6184C5.11011 34.762 4.90915 34.8673 4.77518 35.03C4.71776 35.1066 4.79431 35.2884 4.80388 35.432C4.84216 35.4416 4.89001 35.4511 4.92829 35.4607C5.33978 35.0874 5.75127 34.7237 6.17233 34.3408C6.22975 34.3983 6.30631 34.5035 6.39243 34.5993C5.93309 35.0013 5.48332 35.3937 5.00484 35.8149C4.82302 35.4703 4.28713 35.2693 4.57421 34.7524C4.7369 34.4557 5.05269 34.4844 5.28236 34.6184H5.29193Z" fill="#666666"/>
<path id="Vector_42" d="M15.0529 13.0917C14.8807 13.1109 14.7084 13.13 14.5362 13.1492C14.45 13.8766 14.4979 13.934 15.1582 13.8192C15.1582 13.8575 15.1678 13.8862 15.1773 13.9245C14.8424 13.9723 14.5075 14.0106 14.2012 14.0585C14.1725 13.4459 14.1438 12.8524 14.1151 12.1729H15.0051C15.0051 12.2686 15.0051 12.2973 15.0051 12.3164H14.517C14.3639 12.9386 14.4022 12.9864 15.0625 13.0917H15.0529Z" fill="#666666"/>
<path id="Vector_43" d="M10.7179 38.6383C10.6701 38.935 10.5744 39.1743 10.6222 39.3753C10.6413 39.4615 10.9476 39.4806 11.1103 39.5285C10.9763 39.7391 10.9667 39.7391 10.1342 39.3562C10.3447 38.801 10.5648 38.2459 10.7753 37.6812C11.4835 37.863 11.5792 37.9109 11.5696 38.1597C11.4165 38.0736 11.2538 37.997 11.0624 37.8917C10.9763 38.1214 10.8997 38.3033 10.8136 38.5043C11.005 38.6 11.1581 38.6862 11.3208 38.7723C11.3016 38.8106 11.2825 38.8393 11.2538 38.8776C11.1103 38.8106 10.9571 38.7436 10.7083 38.6383H10.7179Z" fill="#666666"/>
<path id="Vector_44" d="M25.7804 33.192C25.589 32.991 25.6847 32.6943 26.0292 32.3306C26.4216 31.9285 26.967 31.8998 27.3689 32.2444C27.7804 32.5986 27.7613 33.2016 27.3211 33.7663C27.2158 33.9003 27.1106 34.1396 26.8809 33.8812C27.3402 33.6132 27.5603 33.2782 27.4838 32.9719C27.3976 32.6369 26.9192 32.3018 26.546 32.321C26.144 32.3401 25.9144 32.5986 25.7708 33.2016L25.7804 33.192Z" fill="#666666"/>
<path id="Vector_45" d="M12.9763 12.3449C13.0337 12.3449 13.139 12.3162 13.2156 12.3066C13.0625 12.9671 12.9189 13.6084 12.7562 14.355C12.316 13.7328 11.9332 13.2064 11.5409 12.6608C11.6366 12.6416 11.761 12.6034 11.9045 12.5651C12.1533 12.9479 12.4022 13.3308 12.651 13.7041C12.6892 13.7041 12.718 13.685 12.7562 13.685C12.8232 13.2542 12.8998 12.8235 12.9763 12.3449Z" fill="#666666"/>
<path id="Vector_46" d="M27.168 21.9356C26.8618 21.9739 26.6704 21.7538 26.5747 21.2561C26.4694 20.6818 26.7374 20.2223 27.2541 20.0979C27.8092 19.9639 28.2876 20.3085 28.4886 20.988C28.5556 21.2082 28.613 21.4283 28.2589 21.4666C28.4121 21.0263 28.2972 20.6052 27.9718 20.4329C27.6561 20.2702 27.0819 20.4425 26.8522 20.787C26.613 21.1412 26.7182 21.5528 27.1584 21.9356H27.168Z" fill="#666666"/>
<path id="Vector_47" d="M29.2255 25.8888C29.2446 25.7452 29.2829 25.6112 29.2637 25.4964C29.2446 25.4006 29.1393 25.2475 29.0819 25.2571C28.5747 25.2858 28.0771 25.3432 27.5604 25.4006V25.0656C28.0867 25.0178 28.613 24.9699 29.1872 24.9125C29.1681 24.6828 29.1585 24.4913 29.1393 24.2808C29.4073 24.4818 29.4647 25.7165 29.2159 25.8984L29.2255 25.8888Z" fill="#666666"/>
<path id="Vector_48" d="M1.55981 24.6927C1.5311 24.865 1.49283 25.0468 1.44498 25.2861C1.71293 25.2861 1.95216 25.3531 2.11485 25.267C2.22968 25.2095 2.22968 24.9415 2.30624 24.7118C2.39556 25.133 2.66669 25.3595 3.11965 25.3914V25.736C2.53591 25.6786 1.95216 25.6307 1.37799 25.5733C1.26316 24.9415 1.32057 24.6927 1.55981 24.6831V24.6927Z" fill="#666666"/>
<path id="Vector_49" d="M1.55984 27.7649C1.55984 27.9564 1.55984 28.0521 1.55984 28.1574C1.56941 28.368 1.66511 28.4541 1.89478 28.4062C2.34455 28.3105 2.79432 28.2435 3.26323 28.1574C3.26323 28.2435 3.28236 28.3488 3.29193 28.4732C2.76561 28.569 2.24885 28.6647 1.68425 28.77C1.72252 28.9901 1.77037 29.1911 1.79908 29.373C1.55984 29.3155 1.30146 28.0617 1.55984 27.7554V27.7649Z" fill="#666666"/>
<path id="Vector_50" d="M17.9142 13.9341C17.9716 14.0011 18.0099 14.1064 18.0769 14.1351C18.2109 14.1734 18.4023 14.2308 18.498 14.1734C18.5745 14.116 18.6032 13.8862 18.5649 13.7714C18.498 13.5895 18.297 13.4555 18.2587 13.2737C18.2204 13.0727 18.23 12.7376 18.3544 12.6515C18.5267 12.5366 18.8138 12.6036 19.053 12.6228C19.0913 12.6228 19.1104 12.8046 19.0817 12.9195C19.0434 12.8716 19.0147 12.7855 18.9669 12.7759C18.8329 12.7376 18.6894 12.7185 18.5458 12.6994C18.5458 12.8429 18.498 12.9961 18.5458 13.1205C18.6128 13.2832 18.7659 13.4077 18.852 13.5704C18.986 13.8097 18.9669 14.0681 18.7372 14.2404C18.4788 14.4414 18.1917 14.3935 17.9334 14.2308C17.8664 14.1925 17.8759 14.0394 17.8472 13.9437C17.8664 13.9437 17.8855 13.9341 17.9142 13.9245V13.9341Z" fill="#666666"/>
<path id="Vector_51" d="M21.7707 38.629C21.6942 39.1267 21.1774 39.0214 20.9191 39.2511C20.6607 38.6864 20.4119 38.16 20.1439 37.5857C20.2205 37.5474 20.3545 37.4899 20.4501 37.4517C20.6511 37.892 20.8329 38.3227 21.0435 38.7343C21.187 39.0214 21.4454 38.964 21.7707 38.629Z" fill="#666666"/>
<path id="Vector_52" d="M27.101 29.9664C27.1776 29.6123 27.2637 29.2581 27.3307 28.9614C27.9336 29.1241 28.5077 29.2773 29.1011 29.4304C29.0819 29.507 29.0436 29.6602 29.0149 29.7559C28.5364 29.6314 28.0675 29.4879 27.5891 29.3922C27.5125 29.373 27.3594 29.5262 27.302 29.6314C27.2446 29.7272 27.2541 29.8707 27.2446 29.9856C27.1967 29.9856 27.1489 29.9665 27.101 29.9569V29.9664Z" fill="#666666"/>
<path id="Vector_53" d="M1.3397 27.1334C1.3397 27.0376 1.33013 26.9036 1.32056 26.8175C1.92344 26.7792 2.51675 26.7409 3.11964 26.7026V27.0281C2.52632 27.0664 1.94258 27.0951 1.3397 27.1334Z" fill="#666666"/>
<path id="Vector_54" d="M1.50243 23.7832C1.52157 23.6779 1.55028 23.5534 1.56942 23.4673C2.1723 23.5821 2.74647 23.6874 3.34936 23.8023C3.33022 23.9076 3.30151 24.0512 3.28237 24.1373C2.69862 24.0224 2.11488 23.9076 1.49286 23.7832H1.50243Z" fill="#666666"/>
<path id="Vector_55" d="M20.4406 13.0919C20.2205 13.6854 20.0195 14.2405 19.809 14.8148C19.7324 14.7861 19.608 14.7287 19.4932 14.6808C19.7133 14.1065 19.9238 13.5513 20.1343 12.9771C20.2492 13.0153 20.364 13.0632 20.4406 13.0823V13.0919Z" fill="#666666"/>
<path id="Vector_56" d="M28.4982 31.3642C28.4599 31.4503 28.4216 31.5652 28.3833 31.6609C27.8187 31.4312 27.2733 31.2206 26.6991 30.9909C26.7278 30.9239 26.7661 30.809 26.8139 30.6846C27.3785 30.9143 27.9336 31.1344 28.4982 31.3737V31.3642Z" fill="#666666"/>
<path id="Vector_57" d="M10.6796 12.9771C10.8901 13.5418 11.1007 14.0969 11.3112 14.6617C11.1963 14.7095 11.0815 14.767 10.9954 14.7957C10.7944 14.2309 10.5935 13.6662 10.3829 13.0823C10.4308 13.0632 10.5456 13.0249 10.6796 12.9771Z" fill="#666666"/>
<path id="Vector_58" d="M4.36373 20.8638C3.8087 20.5671 3.29194 20.2991 2.75604 20.0215C2.81346 19.9067 2.85174 19.8014 2.89002 19.7344C3.42591 20.012 3.94267 20.2704 4.50727 20.5575C4.469 20.6341 4.41158 20.7681 4.3733 20.8734L4.36373 20.8638Z" fill="#666666"/>
<path id="Vector_59" d="M19.5315 39.7583C19.4262 39.7871 19.3018 39.8253 19.1965 39.8541C19.0243 39.2702 18.8616 38.7055 18.6989 38.112C18.7659 38.0929 18.8616 38.0642 18.986 38.0259C19.1678 38.6097 19.3496 39.1745 19.5315 39.7679V39.7583Z" fill="#666666"/>
<path id="Vector_60" d="M22.1344 8.40133C22.1057 7.74088 22.1918 7.69302 22.6607 7.92274C22.9765 8.08546 23.2923 8.15246 23.6177 7.89403C23.8473 7.71217 24.0579 7.80788 24.0579 8.07589C24.0579 8.53533 24.345 8.72676 24.699 8.87034C25.1297 9.0522 25.1584 9.17663 24.7756 9.46378C24.4981 9.67436 24.4119 9.96151 24.4024 10.2869C24.4024 10.4975 24.4024 10.7081 24.3545 10.9091C24.2588 11.2824 23.9048 11.5408 23.522 11.5025C22.699 11.4068 21.9621 11.1005 21.3688 10.4975C21.0339 10.1529 21.0339 9.67436 21.3688 9.32978C21.5028 9.1862 21.6846 9.09049 21.809 8.93734C21.9621 8.73633 22.0674 8.50661 22.1344 8.39175V8.40133ZM23.7803 8.07589C23.3019 8.45876 22.8425 8.23861 22.3832 8.1046C22.3194 8.57042 22.0674 9.00434 21.6272 9.40635C21.2348 9.77007 21.2253 10.0764 21.5793 10.4018C22.1057 10.8804 22.7181 11.1675 23.4263 11.2633C23.8282 11.3207 24.1536 11.0814 24.144 10.6794C24.1249 10.0955 24.1918 9.5595 24.7277 9.15749C24.1918 8.94691 23.8378 8.65976 23.7708 8.06632L23.7803 8.07589Z" fill="#666666"/>
<path id="Vector_61" d="M21.12 8.24854C21.3018 8.5644 21.254 8.79412 21.0052 9.06212C20.7659 9.32056 20.632 9.66514 20.4501 9.99058C20.1248 9.89486 20.0004 9.65557 20.0291 9.10998C20.0482 8.86112 20.7468 8.30597 21.12 8.24854ZM20.3449 9.54071C20.565 9.22484 20.7851 8.90898 21.0052 8.58354C20.4023 8.78455 20.2109 9.10041 20.3449 9.54071Z" fill="#666666"/>
<path id="Vector_62" d="M21.5219 8.45884C21.4836 8.11426 21.4645 7.74097 20.9573 7.89412C20.9573 7.82711 20.9477 7.78883 20.9573 7.77926C21.0722 7.64525 21.1966 7.50168 21.321 7.36768C21.4358 7.53997 21.5793 7.71225 21.6463 7.90369C21.7037 8.06641 21.6559 8.26741 21.6559 8.44927C21.608 8.44927 21.5698 8.45884 21.5219 8.46842V8.45884Z" fill="#666666"/>
<path id="Vector_63" d="M16.8137 8.12403V9.06205C16.6223 8.96633 16.4979 8.88976 16.3639 8.83233C16.2587 8.79404 16.1438 8.78447 16.0386 8.75576C16.0386 8.88976 15.9907 9.07162 16.0577 9.13863C16.2108 9.2822 16.4214 9.36834 16.6223 9.49278C16.6223 9.49278 16.6319 9.53106 16.6223 9.55021C16.4501 9.7225 16.4214 10.1532 16.0481 9.96179C15.6079 9.74164 15.4453 8.97591 15.7802 8.66961C16.0481 8.42075 16.3926 8.2676 16.7084 8.07617L16.8137 8.1336V8.12403Z" fill="#666666"/>
<path id="Vector_64" d="M13.9237 8.02832C14.3065 8.24847 14.651 8.39204 14.9094 8.62176C15.2826 8.95677 15.0816 9.78951 14.6223 9.98094C14.5553 10.0097 14.4213 9.9618 14.3544 9.90437C14.2395 9.79908 14.163 9.66507 14.0386 9.50236C14.2395 9.40664 14.4501 9.34921 14.5745 9.22478C14.6702 9.12906 14.7371 8.88977 14.6797 8.79405C14.5649 8.58348 14.4405 8.75577 14.3161 8.86105C14.2204 8.93763 14.0577 8.95677 13.9237 8.95677C13.895 8.95677 13.8472 8.75577 13.8472 8.65048C13.8472 8.48776 13.8854 8.32504 13.9237 8.03789V8.02832Z" fill="#666666"/>
<path id="Vector_65" d="M13.4644 7.96129C13.4452 8.22929 13.3974 8.47816 13.4261 8.71745C13.4644 9.10031 13.3304 9.28217 12.9476 9.2726C12.7562 8.98545 12.5744 8.70787 12.383 8.4303C12.6956 7.91981 13.0592 7.76347 13.4739 7.96129H13.4644ZM13.1868 9.0716C13.2155 8.74616 13.2538 8.47816 13.2538 8.21015C13.2538 8.14315 13.1677 8.04743 13.1007 8.01872C13.0337 7.99957 12.9285 8.01872 12.871 8.07615C12.5552 8.33458 12.6414 8.66002 13.1868 9.0716Z" fill="#666666"/>
<path id="Vector_66" d="M17.7611 9.26321C17.4166 9.26321 17.1965 9.1675 17.2922 8.75592C17.3209 8.62191 17.2731 8.46877 17.2635 8.32519C17.2348 8.11462 17.2061 7.92318 17.4836 7.82747C17.742 7.73175 17.8951 7.76046 18.0386 7.99976C18.1248 8.14333 18.2492 8.26776 18.3449 8.40177C18.1535 8.68891 17.9621 8.96649 17.7611 9.26321ZM18.0673 8.41134C18.0291 8.35391 18.0099 8.28691 17.9621 8.24862C17.8472 8.16247 17.7228 8.09547 17.608 8.00933C17.5601 8.14333 17.4836 8.26776 17.4645 8.40177C17.4453 8.53577 17.4645 8.68891 17.474 8.83249C17.474 8.89949 17.5314 8.95692 17.5697 9.02392C17.6271 8.98564 17.7133 8.96649 17.7515 8.90906C17.8664 8.75592 17.9621 8.58363 18.0673 8.41134Z" fill="#666666"/>
<path id="Vector_67" d="M16.5649 10.3446C16.7276 10.1341 16.8233 10.0096 16.9094 9.87564C17.0147 9.72249 17.0721 9.53106 17.3592 9.62678C17.5984 9.71292 17.7802 9.76078 17.7898 10.0766C17.7898 10.2776 17.9046 10.4787 18.0003 10.7849C17.5027 10.6318 17.0625 10.4978 16.5745 10.3446H16.5649ZM16.919 10.1341C16.9381 10.1819 16.9572 10.2298 16.9668 10.2872C17.1678 10.3447 17.3687 10.4021 17.5697 10.4595C17.608 10.4212 17.6367 10.3925 17.675 10.3542C17.5793 10.1819 17.474 10.0192 17.3783 9.8565C17.2252 9.95221 17.0721 10.0479 16.919 10.1436V10.1341Z" fill="#666666"/>
<path id="Vector_68" d="M12.6988 10.8039C12.7945 10.4785 12.8998 10.2679 12.9189 10.0573C12.9476 9.74144 13.139 9.69359 13.3782 9.61701C13.6557 9.53087 13.6749 9.76059 13.7802 9.88502C13.8758 10.0094 13.962 10.1339 14.1151 10.3349C13.6462 10.488 13.2155 10.6316 12.6988 10.7943V10.8039ZM13.005 10.3445C13.005 10.3445 13.0911 10.4306 13.1294 10.4689C13.3304 10.4019 13.5313 10.3349 13.7323 10.2679C13.7514 10.2296 13.761 10.1913 13.7802 10.153C13.627 10.0573 13.4739 9.95202 13.3208 9.8563C13.2155 10.019 13.1103 10.1817 13.005 10.354V10.3445Z" fill="#666666"/>
<path id="Vector_69" d="M17.9238 7.14753C17.8377 6.84124 17.7324 6.58281 17.7228 6.32437C17.7228 6.19037 17.8664 6.05637 17.9525 5.92236C18.0865 6.02765 18.2683 6.09465 18.3353 6.22866C18.5075 6.55409 18.3831 6.83167 17.9238 7.14753ZM18.1248 6.14251C18.0482 6.14251 17.9716 6.15208 17.8951 6.16165C17.9238 6.36266 17.9621 6.56366 17.9908 6.76467C18.0482 6.76467 18.1056 6.7551 18.1726 6.74553C18.1535 6.54452 18.1439 6.35309 18.1248 6.15208V6.14251Z" fill="#666666"/>
<path id="Vector_70" d="M12.785 7.13796C12.3543 6.86996 12.2203 6.56366 12.3639 6.23823C12.4213 6.10422 12.5936 6.02765 12.7084 5.92236C12.8137 6.05637 12.9955 6.19037 12.9955 6.32437C12.9859 6.58281 12.8711 6.84124 12.785 7.14753V7.13796ZM12.8041 6.16165C12.7275 6.16165 12.651 6.14251 12.5744 6.14251C12.5649 6.34352 12.5457 6.53495 12.5361 6.73595C12.6031 6.73595 12.6605 6.74552 12.7275 6.7551C12.7562 6.56366 12.7754 6.36266 12.8041 6.17123V6.16165Z" fill="#666666"/>
<path id="Vector_71" d="M15.3495 9.82764C15.5122 10.0191 15.6462 10.1722 15.7802 10.3349C15.3974 10.6987 15.3495 10.7082 14.938 10.3541C15.0625 10.2009 15.1869 10.0382 15.3495 9.83721V9.82764Z" fill="#666666"/>
<path id="Vector_72" d="M5.88526 9.45457C5.62688 9.28228 5.64602 9.12913 5.82784 8.97598C5.92354 8.88984 6.0288 8.80369 6.13407 8.73669C6.48814 8.48783 6.72738 8.18153 6.66996 7.5498C7.19629 8.21025 7.73219 7.94224 8.26808 7.84653C8.51689 7.79867 8.53603 7.82738 8.62216 8.18154C8.19153 8.22939 7.82788 8.54526 7.3494 8.35382C7.23457 8.30597 6.92834 8.43997 6.89006 8.54526C6.71781 9.04298 6.21062 9.1387 5.88526 9.45457Z" fill="#666666"/>
<path id="Vector_73" d="M6.59343 10.4691C6.43075 10.2681 6.36376 10.1819 6.26807 10.0575C7.00492 9.43533 7.83748 9.06204 8.79443 8.87061C8.83271 8.99504 8.87099 9.11947 8.95712 9.35876C8.55519 9.36833 8.22026 9.35876 7.89489 9.39705C7.69393 9.42576 7.4834 9.51191 7.33029 9.64591C7.07191 9.87563 6.86138 10.1628 6.59343 10.4691Z" fill="#666666"/>
<path id="Vector_74" d="M9.00492 9.9043C9.0719 10.1532 9.10061 10.268 9.15803 10.4595C8.89008 10.4595 8.66041 10.4977 8.45945 10.4595C8.13409 10.3829 7.93312 10.4595 7.77044 10.7466C7.65561 10.9476 7.49292 11.1295 7.3111 11.3688C7.16756 11.1965 7.08143 11.0912 6.90918 10.8902C7.6269 10.5552 8.2872 10.2489 9.00492 9.91387V9.9043Z" fill="#666666"/>
<path id="Vector_75" d="M11.3399 9.27246C11.4739 9.40646 11.627 9.54047 11.7227 9.69361C11.7514 9.74147 11.6366 9.89462 11.56 9.98076C11.4739 10.0765 11.3495 10.1435 11.2538 10.2296C11.2155 10.0861 11.1581 9.94248 11.1581 9.78933C11.1581 9.61704 11.1964 9.45432 11.2251 9.28203C11.2633 9.28203 11.3112 9.28203 11.359 9.27246H11.3399Z" fill="#666666"/>
<path id="Vector_76" d="M5.71303 12.8236C5.26007 12.9129 5.02402 12.7215 5.00488 12.2493C5.34939 12.1918 5.69389 12.4694 5.71303 12.8236Z" fill="#666666"/>
<path id="Vector_77" d="M8.13409 24.8267C8.11495 24.5396 8.05754 24.3385 8.10539 24.1854C8.22022 23.86 8.05754 23.726 7.8183 23.592C7.54078 23.4388 7.24412 23.3144 6.99531 23.1229C5.9618 22.3285 5.91395 20.7587 6.91876 20.06C7.16757 19.8877 7.49293 19.7824 7.78959 19.7537C8.37333 19.7059 8.96665 19.7442 9.64609 19.7442C9.64609 19.4187 9.66523 19.0263 9.64609 18.6434C9.62695 18.3371 9.73221 18.2127 10.048 18.2318C10.3734 18.251 10.7083 18.2318 11.0337 18.2318C11.3399 18.251 11.4643 18.1361 11.4547 17.8203C11.4356 17.3895 11.4547 16.9492 11.4547 16.5185C11.4547 16.2696 11.5409 16.1548 11.7992 16.1739C12.1246 16.1835 12.4595 16.1835 12.7849 16.1739C13.0433 16.1644 13.139 16.2792 13.1294 16.5281C13.1198 16.9397 13.1485 17.3417 13.1294 17.7533C13.1007 18.1457 13.2634 18.2701 13.6366 18.2414C13.9524 18.2223 14.2682 18.2414 14.584 18.2414C14.8615 18.2223 14.9572 18.3467 14.9381 18.6147C14.9189 18.9306 14.9189 19.2464 14.9381 19.5623C14.9572 19.8494 14.8328 19.9356 14.5744 19.926C14.249 19.9069 13.9141 19.9452 13.5887 19.926C13.2347 19.8973 13.1294 20.0409 13.139 20.3855C13.1485 21.9743 13.139 23.5728 13.139 25.1617C13.139 25.6977 13.139 25.6977 12.5935 25.6977C11.8407 25.6977 11.4643 25.3276 11.4643 24.5874C11.4643 23.1899 11.4643 21.7925 11.4643 20.4046C11.4643 20.0504 11.3686 19.8973 10.9954 19.926C10.6605 19.9547 10.3255 19.926 9.95231 19.926C10.1437 20.4812 10.6987 20.1653 10.9763 20.5003C10.737 20.596 10.3638 20.2706 10.2107 20.7587C10.3925 20.7779 10.5552 20.8066 10.7179 20.797C10.9667 20.7875 11.0241 20.8928 11.0432 21.1225C11.0911 21.7925 10.9093 22.3859 10.316 22.7114C9.85662 22.9698 9.9236 23.458 9.98102 23.7068C10.0863 24.128 10.0002 24.3481 9.65566 24.5683C9.84705 24.7406 10.0576 24.8554 10.1724 25.0373C10.2777 25.1809 10.3064 25.3914 10.3064 25.5733C10.3064 25.6116 10.048 25.6882 9.90446 25.6882C9.32072 25.6977 8.74655 25.6977 8.1628 25.6882C8.02883 25.6882 7.78959 25.6307 7.78959 25.5829C7.78002 25.4106 7.80873 25.2191 7.88528 25.066C7.95227 24.9416 8.09582 24.865 8.14366 24.8267H8.13409ZM11.7705 22.4816C11.7705 23.3335 11.7705 24.195 11.7705 25.0468C11.7705 25.1713 11.8088 25.3914 11.8567 25.401C12.1246 25.4393 12.4117 25.468 12.6701 25.401C12.7466 25.3819 12.804 25.0947 12.804 24.9224C12.8136 23.3335 12.804 21.7351 12.804 20.1462C12.804 19.6006 12.804 19.6006 13.3304 19.6006C13.6175 19.6006 13.9141 19.591 14.2012 19.6006C14.4691 19.6197 14.6031 19.5336 14.5744 19.2464C14.5648 19.1316 14.5648 19.0071 14.5744 18.8923C14.5936 18.6338 14.4883 18.5381 14.2299 18.5477C13.8758 18.5573 13.5218 18.5381 13.1581 18.5477C12.871 18.5668 12.7849 18.452 12.804 18.184C12.8232 17.8011 12.804 17.4182 12.804 17.0354C12.804 16.4898 12.804 16.5089 12.2681 16.4802C11.8758 16.4611 11.694 16.5759 11.761 16.9875C11.7801 17.1024 11.761 17.2268 11.761 17.3417C11.7514 17.7245 11.8758 18.2605 11.6748 18.4328C11.4452 18.6338 10.938 18.5286 10.5456 18.5381C9.94274 18.5477 9.94274 18.5381 9.95231 19.1507C9.95231 19.189 9.95231 19.2273 9.95231 19.2656C9.93317 19.5049 10.0384 19.591 10.2777 19.591C10.6605 19.5814 11.0432 19.6006 11.426 19.591C11.694 19.5814 11.761 19.6867 11.761 19.9356C11.7514 20.7779 11.761 21.6202 11.761 22.4625L11.7705 22.4816ZM9.03363 21.1512C8.603 21.1512 8.1628 21.1608 7.73217 21.1512C7.46422 21.1512 7.39724 21.266 7.40681 21.5053C7.42595 21.9552 8.41161 22.9889 8.87095 23.0081C8.89966 23.0081 8.92837 23.0081 8.94751 23.0081C9.60781 22.8741 10.1341 22.5199 10.5265 21.9839C10.6222 21.8499 10.6413 21.6393 10.67 21.467C10.6987 21.2565 10.5935 21.1608 10.3734 21.1608C9.9236 21.1608 9.4834 21.1608 9.03363 21.1608V21.1512ZM8.36376 23.1612C7.95227 22.8358 7.5982 22.6061 7.29197 22.3189C6.90919 21.9552 6.86134 21.4096 7.11015 20.9693C7.33025 20.5865 7.69389 20.4333 8.23936 20.5482C8.49774 20.596 8.73698 20.7587 8.98579 20.7779C9.25373 20.797 9.53125 20.7109 9.7992 20.6535C9.82791 20.6535 9.84705 20.462 9.82791 20.4525C9.58867 20.3376 9.34943 20.1844 9.10062 20.1366C8.78482 20.0792 8.44989 20.1079 8.11495 20.0887C7.34939 20.0313 6.73694 20.462 6.58382 21.2182C6.36372 22.2711 7.14843 22.9889 7.97141 23.2665C8.05754 23.2952 8.19151 23.2091 8.35419 23.1612H8.36376ZM8.02883 25.4201H9.94274C9.96188 25.3531 9.96188 25.3627 9.98102 25.2957C9.71307 25.0851 9.45469 24.7406 9.15804 24.7023C8.71784 24.6353 8.40204 25.0181 8.02883 25.4201ZM8.50731 23.8025C8.90923 23.6877 9.2633 23.592 9.60781 23.4675C9.66523 23.4484 9.7035 23.3335 9.74178 23.257C9.66523 23.2091 9.56953 23.1134 9.50254 23.1325C9.14847 23.2091 8.79439 23.3144 8.44989 23.4197C8.39247 23.4388 8.30635 23.5728 8.32548 23.6207C8.35419 23.6972 8.45946 23.7451 8.50731 23.793V23.8025ZM8.54559 24.5491C8.93794 24.4438 9.29201 24.3481 9.63652 24.2333C9.7035 24.2141 9.73221 24.0801 9.78006 23.994C9.7035 23.9557 9.61738 23.86 9.55996 23.8791C9.20589 23.9653 8.85181 24.061 8.50731 24.1758C8.44032 24.195 8.3829 24.329 8.37333 24.4151C8.37333 24.463 8.49774 24.5108 8.54559 24.5491Z" fill="#666666"/>
<path id="Vector_78" d="M20.8329 34.1874C20.8042 34.398 20.7851 34.5607 20.7755 34.7234C20.7564 34.9914 20.6224 35.1924 20.3544 35.202C20.0482 35.2211 19.9047 35.0201 19.876 34.733C19.8568 34.5894 19.8568 34.4458 19.8568 34.3023C19.8568 34.0917 19.7324 34.0438 19.5602 33.9385C18.7659 33.4312 17.8281 33.4791 16.8711 33.1632C17.1199 32.6846 17.34 32.2443 17.5793 31.7658C17.474 31.7849 17.3783 31.8041 17.2922 31.8136C16.6797 31.9189 16.1055 31.5648 15.962 30.9713C15.9046 30.7225 15.8854 30.531 16.1534 30.2726C16.4883 29.9472 16.6127 29.4111 16.8233 28.9804C16.7563 28.9134 16.7276 28.8847 16.6989 28.8656C16.2587 28.588 16.1438 28.1955 16.3926 27.851C16.6414 27.5064 17.0529 27.5064 17.4549 27.8318C17.7419 28.0711 19.3305 27.8701 19.5027 27.5638C19.5506 27.4777 19.5315 27.3628 19.5506 27.2575C19.6176 26.8459 19.9429 26.5684 20.3449 26.5684C20.7468 26.5684 21.1009 26.8651 21.1104 27.2671C21.12 27.5734 21.2635 27.7074 21.5124 27.7552C21.9621 27.8414 22.4215 27.9084 22.8712 27.9562C22.9861 27.9658 23.12 27.8988 23.2157 27.8222C23.6177 27.5064 24.0387 27.5064 24.278 27.851C24.5268 28.1955 24.4215 28.5593 23.9909 28.8464C23.9526 28.8751 23.9143 28.9038 23.8282 28.9708C24.144 29.4207 24.1153 30.0524 24.6607 30.3875C24.7182 30.4257 24.7277 30.5502 24.7373 30.6363C24.7756 31.4212 24.1727 31.8902 23.1966 31.8041C22.8904 32.5602 22.565 33.3164 22.2779 34.0917C22.1439 34.4554 21.9813 34.6085 21.5889 34.4267C21.3688 34.3214 21.12 34.2735 20.8329 34.197V34.1874ZM20.23 34.8766C20.2875 34.8766 20.3449 34.8766 20.4023 34.8766C20.431 34.7426 20.4693 34.6085 20.4788 34.4745C20.6128 32.6272 20.7468 30.7703 20.8712 28.923C20.8903 28.6837 20.9765 28.5976 21.2061 28.6071C21.6655 28.6071 22.1248 28.6071 22.5937 28.6071C22.9478 28.6071 23.3114 28.6358 23.6559 28.588C23.8091 28.5688 23.9717 28.4253 24.0579 28.2913C24.0961 28.2338 23.9526 27.9658 23.8856 27.9658C23.7325 27.9658 23.5698 28.052 23.4263 28.1094C23.3401 28.1477 23.2636 28.2625 23.1775 28.2625C22.4215 28.3008 21.675 28.2243 20.986 27.8797C20.8138 27.7935 20.7468 27.7074 20.7755 27.4777C20.7946 27.3149 20.6989 27.0757 20.565 26.9799C20.4597 26.8938 20.1822 26.9034 20.0674 26.9799C19.9429 27.0757 19.8281 27.3245 19.8568 27.4681C19.9142 27.717 19.809 27.8318 19.6176 27.8797C19.0051 28.0232 18.3927 28.1477 17.7802 28.253C17.541 28.2913 17.2826 28.3008 17.1391 28.0041C17.1008 27.9275 16.8903 27.8892 16.7946 27.9275C16.6989 27.9658 16.584 28.119 16.5936 28.2147C16.5936 28.3295 16.7084 28.4731 16.8137 28.5401C16.919 28.5976 17.0625 28.588 17.1965 28.588C17.9046 28.588 18.6223 28.5976 19.3305 28.588C19.6176 28.588 19.7516 28.6454 19.7707 28.9708C19.8855 30.7607 20.0195 32.5411 20.1535 34.331C20.163 34.5128 20.2109 34.6947 20.2396 34.8766H20.23ZM17.2826 32.9048C17.6941 32.9622 17.9908 33.0101 18.2778 33.0292C18.5267 33.0388 18.785 32.9527 19.0147 33.0197C19.2348 33.0771 19.4262 33.2589 19.6654 33.4217C19.6941 33.3259 19.7516 33.2302 19.742 33.1441C19.6941 32.4645 19.6463 31.7849 19.5793 31.1053C19.5793 31.0288 19.4549 30.933 19.3688 30.8947C19.2157 30.8373 19.0434 30.799 18.8712 30.7895C18.7755 30.7895 18.6223 30.8086 18.5745 30.8756C18.1534 31.5073 17.7515 32.1486 17.273 32.9239L17.2826 32.9048ZM21.0339 31.0287C20.9669 31.7945 20.9095 32.5028 20.8521 33.2207C20.8233 33.6227 21.2061 34.0342 21.6081 34.0247C21.6846 34.0247 21.7994 33.9672 21.8282 33.9098C22.1535 33.2015 22.4693 32.4741 22.766 31.7945C22.1727 31.536 21.6272 31.2968 21.0339 31.0287ZM22.5459 31.4116C22.4789 31.1245 22.4215 30.9426 22.4023 30.7416C22.3928 30.6363 22.4119 30.464 22.4789 30.4257C23.0339 30.1099 22.9956 29.4686 23.3689 28.9421H22.0483C21.1679 28.9421 21.1679 28.9421 21.0913 29.8323C21.0434 30.3492 20.9478 30.8852 21.675 31.0287C21.7994 31.0479 21.8951 31.1819 22.01 31.2298C22.1631 31.2968 22.3258 31.335 22.5363 31.402L22.5459 31.4116ZM17.3783 28.9326C17.3783 28.9326 17.3017 28.99 17.2635 29.0283C17.5888 29.5834 17.9142 30.1386 18.2491 30.732C18.4022 30.5597 18.4979 30.4449 18.5936 30.3396C18.7946 30.4162 18.9764 30.5023 19.1678 30.5597C19.4071 30.6363 19.5506 30.5597 19.5219 30.2822C19.4836 29.8419 19.4549 29.4016 19.4262 28.9421C18.7085 28.9421 18.0386 28.9421 17.3783 28.9421V28.9326ZM16.2204 30.7225C16.2874 31.268 16.6319 31.5839 17.0721 31.5648C17.5218 31.5456 17.8376 31.201 17.8281 30.7225H16.2108H16.2204ZM22.766 30.7225C22.766 31.201 23.0913 31.5456 23.5411 31.5552C24.0004 31.5648 24.345 31.2202 24.3545 30.7225H22.766ZM17.0338 28.9708C16.8137 29.4686 16.6414 29.8419 16.4501 30.2822H17.6175C17.4262 29.8514 17.2539 29.4686 17.0338 28.9708ZM23.5507 28.9804C23.3306 29.4781 23.1583 29.8706 22.9765 30.2822H24.1344C23.943 29.8419 23.7708 29.4686 23.5507 28.9804Z" fill="#666666"/>
<path id="Vector_79" d="M17.5889 22.9408C16.6223 22.9982 16.029 22.5675 15.9716 21.84C15.9046 20.969 16.4309 20.3564 17.3209 20.2798C17.6654 20.2511 18.0099 20.299 18.3448 20.2607C18.4884 20.2416 18.6894 20.1171 18.7468 19.9927C18.9573 19.4567 19.2348 18.9494 19.1583 18.3081C19.0721 17.5711 19.7611 17.0255 20.5267 17.0925C21.2349 17.1499 21.7516 17.8104 21.6272 18.5474C21.5315 19.1695 21.9239 19.6385 22.1153 20.1746C22.1344 20.2416 22.3162 20.2703 22.4215 20.2798C22.7851 20.299 23.1583 20.2607 23.5316 20.3086C24.4024 20.4138 24.8904 21.036 24.8043 21.8974C24.7373 22.5962 24.1249 23.0269 23.2062 22.9599C23.254 23.113 23.2827 23.2375 23.3306 23.3619C23.5794 23.9841 23.8186 24.6158 24.0675 25.238C24.1631 25.4868 24.2014 25.6783 23.9048 25.8218C23.6177 25.9558 23.4741 25.8218 23.3689 25.6017C23.2636 25.3624 23.0914 25.2954 22.833 25.2954C21.2157 25.305 19.5889 25.305 17.9716 25.2954C17.6941 25.2954 17.4932 25.3528 17.3783 25.6208C17.2826 25.841 17.1295 25.9367 16.8711 25.8123C16.6032 25.6878 16.584 25.506 16.6797 25.2667C16.9286 24.6445 17.1678 24.0224 17.4166 23.3906C17.4644 23.2566 17.5123 23.1226 17.5793 22.9503L17.5889 22.9408ZM19.7037 23.8022C19.7037 23.5342 19.6846 23.2566 19.7037 22.9886C19.7229 22.8355 19.8186 22.7015 19.8856 22.5483C19.943 22.7015 20.0482 22.845 20.0482 22.9982C20.0674 23.5438 20.0674 24.0989 20.0482 24.6445C20.0482 24.8455 20.2013 24.9987 20.4023 24.9987C20.6415 24.9987 20.699 24.8934 20.699 24.6732C20.699 24.0798 20.6894 23.4863 20.699 22.8929C20.699 22.778 20.7947 22.6632 20.8521 22.5483C20.9191 22.6632 21.0435 22.778 21.0435 22.8929C21.0626 23.4959 21.0626 24.1085 21.0435 24.7115C21.0435 24.9317 21.1487 24.9987 21.3497 24.9987C21.5411 24.9987 21.6751 24.97 21.6751 24.7307C21.6751 24.1276 21.6942 23.5151 21.6751 22.912C21.6559 22.4239 21.321 22.1655 20.8234 22.175H19.8951C19.3975 22.175 19.0626 22.4239 19.0434 22.912C19.0147 23.5151 19.0434 24.1276 19.0339 24.7307C19.0339 24.97 19.1678 24.9987 19.3592 24.9987C19.5506 24.9987 19.6846 24.9604 19.675 24.7211C19.6654 24.4052 19.675 24.0989 19.675 23.7926L19.7037 23.8022ZM23.6751 25.4677C23.6751 25.4677 23.7517 25.4294 23.7899 25.4102C22.9765 23.3428 22.1631 21.2849 21.3593 19.2365C20.9956 19.3992 20.699 19.5237 20.3545 19.6768C21.4645 21.6103 22.565 23.5438 23.6751 25.4677ZM16.9764 25.4102C16.9764 25.4102 17.0338 25.4485 17.0721 25.4677C17.1391 25.3624 17.2156 25.2571 17.2826 25.1518C18.1822 23.5821 19.0817 22.0027 20.0004 20.433C20.1726 20.1363 20.1918 19.897 19.9717 19.6481C19.8281 19.4854 19.6559 19.3514 19.4453 19.16C18.6032 21.2944 17.7994 23.3523 16.986 25.4102H16.9764ZM21.2827 18.3081C21.2827 17.8104 20.8712 17.3988 20.3736 17.4083C19.8856 17.4083 19.4741 17.8295 19.4836 18.3272C19.4836 18.8249 19.8951 19.227 20.3927 19.2174C20.8904 19.2174 21.2923 18.8058 21.2827 18.3081ZM18.4884 20.634C18.0195 20.634 17.608 20.5957 17.2156 20.634C16.584 20.7106 16.2395 21.237 16.3352 21.8592C16.4214 22.4143 17.0625 22.778 17.5314 22.5196C17.8281 22.3569 17.9429 22.0793 17.8281 21.7826C17.7707 21.6199 17.5601 21.4954 17.3975 21.3997C17.34 21.371 17.1391 21.4763 17.0912 21.572C17.0625 21.6294 17.1678 21.773 17.2348 21.8783C17.2826 21.9549 17.3496 22.0219 17.4166 22.0889C17.3113 22.1272 17.1678 22.2133 17.1104 22.1846C16.9573 22.0889 16.7467 21.9453 16.7276 21.8017C16.6989 21.6103 16.7754 21.3136 16.919 21.2179C17.1104 21.0934 17.407 21.0647 17.6463 21.0934C17.8281 21.1126 17.9908 21.304 18.1917 21.438C18.2874 21.1796 18.3831 20.9307 18.498 20.634H18.4884ZM22.6033 21.4859C22.9478 21.103 23.2827 20.9116 23.7325 21.1126C24.0005 21.237 24.144 21.4763 24.0675 21.7539C24.0196 21.9262 23.8378 22.0697 23.6751 22.1846C23.6273 22.2229 23.4741 22.1367 23.3689 22.0985C23.4263 22.0219 23.4837 21.9549 23.5316 21.8783C23.589 21.7826 23.7038 21.639 23.6751 21.572C23.6368 21.4859 23.4646 21.3806 23.3784 21.3997C23.2349 21.438 23.0148 21.5529 22.9957 21.6582C22.9574 21.8783 22.9478 22.1942 23.0818 22.3377C23.2253 22.4909 23.5411 22.5675 23.7804 22.5483C24.1631 22.51 24.4407 22.1367 24.4694 21.7443C24.5077 21.2657 24.2588 20.8063 23.7995 20.701C23.3306 20.5957 22.833 20.6053 22.2684 20.567C22.4023 20.9307 22.498 21.17 22.6129 21.4667L22.6033 21.4859ZM19.6367 21.7443H21.1296C20.9286 21.3902 20.7755 21.0934 20.5937 20.8063C20.4789 20.6244 20.3066 20.5957 20.1918 20.7871C20.0004 21.0839 19.8377 21.3902 19.6367 21.7539V21.7443ZM22.211 23.5725C22.211 23.5725 22.1344 23.5821 22.1057 23.5916C22.1057 23.9266 22.0961 24.2616 22.1057 24.5967C22.1057 24.7211 22.1535 24.9221 22.2301 24.9604C22.3545 25.0178 22.6033 25.0178 22.6607 24.9317C22.7373 24.8264 22.7469 24.6062 22.6894 24.4722C22.5555 24.1659 22.3641 23.8788 22.2014 23.5821L22.211 23.5725ZM18.6511 23.6012C18.6511 23.6012 18.5841 23.5821 18.5458 23.5725C18.364 23.9075 18.163 24.2234 18.0195 24.5679C17.9525 24.7211 17.9238 24.9604 18.2204 24.9795C18.4214 24.9891 18.6606 25.0465 18.6511 24.7019C18.6415 24.3382 18.6511 23.9649 18.6511 23.6012Z" fill="#666666"/>
<path id="Vector_80" d="M23.2349 10.3061C22.967 10.1913 22.7182 10.086 22.4598 9.98068C22.632 9.82753 22.7851 9.55952 22.5268 9.29152C22.8043 9.2628 23.0722 9.22452 23.3593 9.1958C23.321 9.45424 23.4742 9.69353 23.8378 9.80839C23.455 9.84667 23.2062 10.0094 23.2253 10.3061H23.2349Z" fill="#666666"/>
<path id="Vector_81" d="M20.8425 18.2893C20.632 18.452 20.5171 18.6051 20.4119 18.5956C20.297 18.5956 20.2013 18.4233 20.0961 18.3276C20.1918 18.2223 20.2683 18.0596 20.3832 18.0404C20.4884 18.0213 20.6128 18.1553 20.8425 18.2797V18.2893Z" fill="#666666"/>
</g>
</svg>
