<svg width="188" height="84" viewBox="0 0 188 84" fill="none" xmlns="http://www.w3.org/2000/svg">
<g id="Capa 1">
<path id="Vector" d="M0.119873 53.2282C1.90938 53.2378 3.69889 53.2665 5.49797 53.2378C5.67979 53.2378 5.9573 52.9889 6.03386 52.7879C7.50758 48.9497 8.96217 45.0923 10.4167 41.2445C13.0005 34.4295 15.5747 27.6145 18.1585 20.7995C20.1394 15.5638 22.1203 10.3281 24.1012 5.10195C24.1586 4.95838 24.1873 4.8148 24.2543 4.58508C23.996 4.56594 23.7758 4.53722 23.5557 4.53722C21.7854 4.53722 20.0054 4.53722 18.2351 4.53722C17.9958 4.53722 17.7087 4.60423 17.7087 4.20222C17.7087 2.8909 17.7087 1.58916 17.7087 0.22998H41.0585V1.18715C41.0585 2.13474 41.0394 3.07276 41.0585 4.02035C41.0585 4.42236 40.9245 4.5468 40.5226 4.5468C38.7522 4.52765 36.9723 4.5468 35.2019 4.5468H34.4651C34.5991 4.94881 34.6947 5.26467 34.8096 5.58053C37.2594 12.051 39.7188 18.5214 42.1686 25.0014C45.049 32.6109 47.9199 40.2203 50.7908 47.8298C51.4128 49.4666 52.0444 51.1033 52.6377 52.7401C52.7908 53.1516 53.0109 53.2857 53.4415 53.2857C54.9439 53.2665 56.4464 53.2857 57.9488 53.2665C58.4368 53.2665 58.5804 53.4292 58.5708 53.8982C58.5421 54.9224 58.5517 55.937 58.5708 56.9612C58.5804 57.411 58.4655 57.612 57.9584 57.612C52.408 57.5929 46.8577 57.6025 41.3073 57.612C40.8958 57.612 40.714 57.4972 40.7236 57.0569C40.7427 55.9753 40.7427 54.9033 40.7236 53.8217C40.714 53.3814 40.8958 53.2665 41.3073 53.2761C43.0968 53.2952 44.8959 53.2761 46.6854 53.2761H47.4318C47.1926 52.5869 46.9916 51.9935 46.7811 51.4096C45.0969 46.8631 43.3935 42.3261 41.7379 37.7796C41.5083 37.1479 41.2021 36.9564 40.5322 36.9564C32.9531 36.9851 25.3836 36.9756 17.8045 36.9564C17.259 36.9564 16.991 37.1096 16.7901 37.636C15.0676 42.3548 13.3163 47.0545 11.5747 51.7638C11.4024 52.2232 11.2397 52.6922 11.0388 53.2761H11.8235C13.6704 53.2761 15.5269 53.2952 17.3738 53.2665C17.9001 53.2665 18.0246 53.4484 18.015 53.9461C17.9863 54.932 17.9767 55.9083 18.015 56.8942C18.0341 57.4493 17.8523 57.6216 17.2973 57.6216C11.8235 57.6025 6.34967 57.612 0.875877 57.6216C0.627069 57.6216 0.378261 57.6408 0.129452 57.6503C0.129452 56.1859 0.129452 54.7214 0.129452 53.2569L0.119873 53.2282ZM29.3932 4.37451C29.3262 4.35536 29.2592 4.34579 29.1827 4.32665C25.6706 13.7547 22.1682 23.1924 18.6179 32.7162H39.8432C36.3407 23.2115 32.8574 13.793 29.3836 4.37451H29.3932Z" fill="#666666"/>
<path id="Vector_2" d="M53.9009 83.2834C53.1544 83.1015 52.408 82.9388 51.6711 82.7378C47.4031 81.5605 44.0251 79.1963 41.9963 75.1953C40.5896 72.4195 40.0728 69.4715 41.1542 66.4277C41.958 64.1688 43.9102 62.8862 46.0825 63.135C47.6711 63.3169 49.1161 64.6761 49.3553 66.2075C49.6328 68.0453 48.7524 69.7778 47.1639 70.4478C46.9151 70.5531 46.6567 70.6296 46.3983 70.7062C45.6423 70.9359 45.6232 70.9455 45.805 71.74C46.3792 74.2764 48.0443 75.9515 50.2166 77.1767C54.1975 79.426 60.322 79.1293 64.0446 75.6931C65.815 74.0563 66.7624 71.9984 67.3557 69.7299C67.9968 67.2509 68.1404 64.7144 68.1404 62.1683C68.15 51.4576 68.1404 40.7469 68.1404 30.0363C68.1404 29.4811 67.8692 29.2035 67.327 29.2035C64.8197 29.2035 62.3125 29.1844 59.8053 29.2131C59.2407 29.2131 59.078 29.0408 59.1067 28.4952C59.145 27.4711 59.1354 26.4565 59.1067 25.4323C59.1067 25.0494 59.1928 24.8867 59.6139 24.8867C66.3222 24.8963 73.0304 24.8963 79.7387 24.8867C80.1502 24.8867 80.265 25.0494 80.2554 25.4323C80.2363 26.4948 80.2267 27.5476 80.2554 28.6101C80.265 29.0791 80.0832 29.2035 79.643 29.2035C77.7004 29.1844 75.7482 29.2035 73.8056 29.2035C73.04 29.2035 73.04 29.2035 73.04 29.9884C73.04 40.7565 73.0304 51.5246 73.04 62.3023C73.04 65.3365 72.8295 68.342 72.0543 71.2805C70.3988 77.5691 66.5136 81.57 60.0637 82.9292C59.5469 83.0441 59.0301 83.1685 58.5038 83.2929C56.9631 83.2929 55.4224 83.2929 53.8722 83.2929L53.9009 83.2834Z" fill="#666666"/>
<path id="Vector_3" d="M0.119873 69.8734C0.253847 69.3757 0.368684 68.878 0.540936 68.3994C0.732328 67.8825 0.933301 67.3561 1.21082 66.8775C1.93811 65.6332 3.09601 65.0589 4.48359 65.0589C15.3355 65.0398 26.1874 65.0493 37.0393 65.0589C37.135 65.0589 37.2211 65.0685 37.4029 65.0876C37.1637 65.4896 36.9723 65.8534 36.7331 66.1979C36.6661 66.3032 36.4938 66.3702 36.3598 66.3989C36.178 66.4372 35.9771 66.4085 35.7857 66.4085C25.2209 66.4085 14.656 66.4085 4.09124 66.4181C3.79458 66.4181 3.2587 66.2075 3.26827 66.7339C3.26827 67.2412 3.80417 67.0402 4.1104 67.0402C14.5221 67.0498 24.9338 67.0402 35.3359 67.0402C35.5082 67.0402 35.69 67.0115 35.8526 67.0402C36.0058 67.0785 36.1493 67.1934 36.2929 67.27C36.1398 67.3944 35.9962 67.5667 35.8144 67.6337C35.6421 67.7007 35.4316 67.6528 35.2402 67.6528H4.30177C4.20607 67.6528 4.11039 67.6337 4.0147 67.6528C3.72761 67.7103 3.23955 67.4805 3.25869 67.9974C3.27783 68.476 3.75632 68.3228 4.0434 68.3228C14.3594 68.3228 24.6658 68.3228 34.9818 68.3228C35.2115 68.3228 35.4507 68.3037 35.6708 68.3516C35.7761 68.3707 35.9292 68.5334 35.9292 68.6387C35.9292 68.7344 35.7761 68.8876 35.6613 68.9067C35.4603 68.9546 35.2402 68.9259 35.0297 68.9259C24.7328 68.9259 14.4455 68.9259 4.14865 68.9354C3.83286 68.9354 3.26826 68.7248 3.25869 69.2609C3.24912 69.8734 3.84245 69.615 4.16781 69.615C14.4838 69.6342 24.7902 69.6246 35.1062 69.6342C35.3837 69.6342 35.6517 69.7586 35.9292 69.8256C35.7857 70.3042 35.3837 70.0936 35.1062 70.0936C24.8476 70.1032 14.5986 70.1032 4.34006 70.1032C4.09125 70.1032 3.8233 70.0649 3.59363 70.1415C3.44052 70.1893 3.27784 70.3903 3.23956 70.553C3.22042 70.6296 3.4501 70.8306 3.60321 70.8785C3.7946 70.9359 4.02428 70.8976 4.23481 70.8976C14.5317 70.8976 24.8189 70.8976 35.1158 70.8976C35.3837 70.8976 35.6613 71.0316 35.9292 71.0986C35.7857 71.5772 35.3837 71.3666 35.1062 71.3666C24.8476 71.3762 14.5986 71.3762 4.34006 71.3762C4.09125 71.3762 3.83287 71.3475 3.59363 71.4145C3.45009 71.4528 3.34481 71.6442 3.2204 71.7591C3.34481 71.8835 3.45967 72.0558 3.60321 72.1036C3.81374 72.1706 4.06255 72.1324 4.29222 72.1324C14.6656 72.1324 25.0295 72.1324 35.4029 72.1324C35.7761 72.1324 36.2259 72.0366 36.1876 72.7258H4.21565C4.00512 72.7258 3.78501 72.6971 3.58405 72.7449C3.45008 72.7832 3.34482 72.9364 3.22998 73.0321C3.33525 73.147 3.42137 73.3288 3.55535 73.3671C3.77545 73.4245 4.01469 73.3958 4.24436 73.3958C14.7517 73.3958 25.2591 73.3958 35.7665 73.3958C36.1302 73.3958 36.5895 73.281 36.5704 73.9988H4.26351C4.05298 73.9988 3.83288 73.9605 3.63192 74.018C3.48837 74.0563 3.37354 74.2285 3.23956 74.3338C3.37354 74.4487 3.48836 74.5827 3.65105 74.6593C3.76588 74.7071 3.91901 74.6784 4.05298 74.6784C8.93346 74.6784 13.8044 74.6784 18.6848 74.6784C23.0773 74.6688 27.4697 74.6306 31.8622 74.6114C33.3072 74.6114 34.7522 74.688 36.1972 74.6593C36.7713 74.6593 37.1063 74.822 37.2594 75.3676C37.3168 75.5686 37.4221 75.7504 37.5465 76.0472H36.8766C26.1204 76.0472 15.3642 76.0472 4.608 76.0472C2.63667 76.0472 1.30651 75.0804 0.694053 73.1948C0.483523 72.5439 0.320843 71.8739 0.129452 71.2135C0.129452 70.754 0.129452 70.285 0.129452 69.8256L0.119873 69.8734Z" fill="#666666"/>
<path id="Vector_4" d="M159.903 19.9286C158.764 17.9377 157.616 15.9372 156.477 13.9463C156.429 13.9463 156.381 13.9463 156.324 13.9559C156.276 14.377 156.219 14.7982 156.2 15.2193C156.133 16.7029 156.094 18.177 156.027 19.6606C156.008 20.0817 156.247 20.12 156.573 20.1296C157.539 20.1583 157.539 20.1583 157.539 21.1442C157.539 21.7121 157.252 21.9961 156.678 21.9961C155.482 21.9961 154.286 21.9769 153.089 22.0056C152.573 22.0152 152.381 21.8334 152.448 21.3356C152.458 21.2399 152.448 21.1442 152.448 21.0485C152.448 19.986 152.439 20.12 153.338 20.1392C153.769 20.1392 153.951 20.0243 153.97 19.5553C154.066 17.1145 154.2 14.6738 154.314 12.233C154.353 11.4098 154.324 11.3811 153.511 11.3715C152.745 11.3715 152.735 11.3715 152.745 10.5962C152.745 9.33277 152.649 9.51464 153.817 9.50506C154.41 9.50506 155.013 9.53378 155.606 9.49549C156.066 9.46678 156.295 9.65821 156.506 10.0411C157.558 11.9841 158.63 13.9272 159.702 15.8606C159.779 16.0042 159.893 16.1382 160.047 16.3679C160.209 16.1095 160.334 15.9276 160.439 15.7362C161.492 13.8315 162.554 11.9363 163.587 10.0219C163.798 9.6295 164.047 9.47635 164.496 9.49549C165.262 9.53378 166.037 9.51464 166.812 9.49549C167.157 9.49549 167.319 9.59121 167.291 9.95493C167.281 10.0889 167.291 10.2229 167.291 10.3569C167.291 11.496 167.358 11.3715 166.315 11.362C165.903 11.362 165.74 11.4864 165.76 11.9363C165.884 14.4153 165.989 16.8944 166.075 19.383C166.095 19.9286 166.295 20.2157 166.879 20.12C167.463 20.0243 167.645 20.2636 167.626 20.857C167.578 22.1205 167.76 21.9769 166.458 21.9865C165.339 21.9865 164.219 21.9769 163.109 21.9865C162.697 21.9865 162.487 21.8716 162.535 21.4313C162.535 21.3548 162.535 21.2782 162.535 21.2016C162.535 20.187 162.535 20.1775 163.549 20.12C163.836 20.1009 164.028 20.053 164.008 19.6989C163.932 17.8515 163.865 16.0042 163.798 14.1569C163.798 14.0899 163.74 14.0229 163.645 13.8123C162.429 15.9276 161.281 17.9377 160.123 19.9477C160.047 19.9382 159.97 19.9286 159.903 19.9095V19.9286Z" fill="#666666"/>
<path id="Vector_5" d="M155.233 42.977C155.558 42.9961 155.759 43.0153 155.96 43.0153C156.697 43.0248 156.707 43.0153 156.697 43.7906C156.688 45.0157 156.879 44.8722 155.578 44.8817C154.535 44.8817 153.491 44.8817 152.458 44.8817C152.094 44.8817 151.922 44.7764 151.941 44.384C151.97 43.9629 151.941 43.5417 151.941 43.1684C152.018 43.1014 152.056 43.0535 152.075 43.0535C152.879 43.1684 153.137 42.6898 153.367 42.0198C154.2 39.5886 155.099 37.167 155.96 34.7358C156.008 34.6114 156.018 34.4773 156.066 34.2668C155.855 34.2476 155.673 34.2093 155.491 34.2093C154.755 34.1902 154.745 34.1902 154.755 33.4245C154.755 32.2376 154.621 32.3907 155.807 32.3812C157.597 32.3812 159.396 32.4003 161.185 32.3716C161.712 32.3716 161.874 32.5343 161.827 33.032C161.788 33.3957 161.827 33.7595 161.827 34.1711C161.377 34.1998 160.984 34.2285 160.487 34.2572C160.755 35.0134 160.994 35.7025 161.243 36.3821C161.96 38.3922 162.697 40.3926 163.396 42.4122C163.549 42.843 163.74 43.0727 164.219 43.0153C164.563 42.9674 164.697 43.1301 164.688 43.4843C164.659 45.1306 164.898 44.853 163.396 44.8722C162.41 44.8817 161.434 44.8626 160.448 44.8722C160.027 44.8722 159.836 44.7382 159.884 44.3074C159.932 43.8959 159.817 43.3598 160.037 43.111C160.228 42.8908 160.793 42.9961 161.3 42.9483C161.09 42.3165 160.917 41.7231 160.678 41.1488C160.63 41.0339 160.362 40.9382 160.2 40.9382C158.908 40.9191 157.616 40.9191 156.324 40.9382C156.152 40.9382 155.893 41.0818 155.836 41.2254C155.616 41.7518 155.453 42.307 155.233 42.9674V42.977ZM156.525 39.1292H160.027C159.453 37.5211 158.908 35.9801 158.362 34.4295H158.19C157.645 35.9705 157.099 37.502 156.535 39.1292H156.525Z" fill="#666666"/>
<path id="Vector_6" d="M97.0597 11.4956C97.3085 12.2039 97.5286 12.8931 97.7774 13.5726C98.409 15.3434 99.0693 17.1142 99.6913 18.8849C99.9401 19.5932 100.045 20.4164 101.203 20.1101C101.203 20.694 101.222 21.1917 101.184 21.6798C101.184 21.7947 100.945 21.9766 100.811 21.9766C99.4807 21.9957 98.1506 21.9861 96.8204 21.9861C96.7821 21.9861 96.7343 21.9861 96.7056 21.9766C96.1027 21.6128 96.5333 21.0385 96.4281 20.5791C96.3611 20.2824 96.5238 20.1101 96.8491 20.1292C97.1266 20.1388 97.4137 20.1292 97.8539 20.1292C97.5955 19.3922 97.3946 18.7796 97.1553 18.1958C97.117 18.1 96.8587 18.0522 96.696 18.0522C95.4233 18.0426 94.1505 18.0426 92.8777 18.0522C92.715 18.0522 92.4471 18.1383 92.3992 18.2532C92.16 18.8083 91.9878 19.3922 91.7485 20.0622C92.1026 20.0909 92.3418 20.1101 92.5811 20.1292C92.715 20.1292 92.8777 20.0909 92.983 20.1484C93.5285 20.4929 93.1553 21.0481 93.251 21.498C93.3084 21.7755 93.184 21.9861 92.849 21.9861C91.4997 21.9861 90.1504 21.9861 88.8011 21.9861C88.7628 21.9861 88.715 21.9861 88.6863 21.9766C88.1312 21.5745 88.5236 20.9907 88.4279 20.5025C88.3609 20.1867 88.581 20.0909 88.8489 20.1292C89.404 20.2154 89.6145 19.9186 89.7772 19.4305C90.6289 16.9993 91.5093 14.5777 92.3801 12.156C92.6481 11.4094 92.6385 11.3807 91.8538 11.3712C91.4519 11.3712 91.3275 11.2276 91.3179 10.8256C91.2988 9.49512 91.2796 9.49512 92.6002 9.49512C94.3323 9.49512 96.0644 9.50469 97.7965 9.49512C98.2367 9.49512 98.4568 9.60998 98.3898 10.079C98.3898 10.1173 98.3898 10.1556 98.3898 10.1938C98.3898 10.9085 98.0389 11.3042 97.3372 11.3807C97.2893 11.3807 97.2319 11.419 97.0501 11.486L97.0597 11.4956ZM94.8969 11.62C94.8204 11.62 94.7438 11.62 94.6673 11.62C94.1314 13.1323 93.605 14.6447 93.05 16.2048H96.5333C95.9687 14.616 95.4328 13.1132 94.8969 11.6105V11.62Z" fill="#666666"/>
<path id="Vector_7" d="M183.109 20.1679C183.588 20.1392 183.999 20.1105 184.526 20.0722C184.296 19.4117 184.124 18.8279 183.894 18.2727C183.846 18.1483 183.588 18.0526 183.425 18.0526C182.133 18.0334 180.841 18.0238 179.549 18.0526C179.367 18.0526 179.109 18.2631 179.033 18.4354C178.812 18.9331 178.659 19.4692 178.449 20.0722C178.755 20.0913 178.956 20.1105 179.157 20.12C179.291 20.12 179.425 20.12 179.559 20.12C180.037 20.1009 179.98 20.4742 179.923 20.723C179.827 21.1442 180.305 21.8908 179.559 21.9482C178.219 22.0631 176.86 21.9865 175.521 21.9674C175.396 21.9674 175.195 21.7568 175.176 21.6324C175.138 21.1538 175.157 20.6752 175.157 20.1009C176.344 20.4455 176.411 19.5553 176.659 18.8757C177.492 16.5785 178.296 14.2813 179.138 11.9841C179.31 11.5151 179.224 11.3045 178.726 11.3715C178.095 11.4577 177.913 11.1801 177.98 10.5962C178.018 10.2708 177.98 9.94537 177.98 9.5625H185.061C185.061 10.0698 185.09 10.5867 185.042 11.0844C185.033 11.1993 184.717 11.3428 184.535 11.3524C183.693 11.4098 183.693 11.3907 183.98 12.166C184.822 14.5015 185.674 16.8274 186.487 19.1629C186.707 19.7946 186.918 20.3402 187.789 20.0913V21.9291C187.636 21.9482 187.454 21.9769 187.272 21.9769C186.095 21.9769 184.918 21.9578 183.75 21.9865C183.224 22.0056 183.061 21.8238 183.119 21.3261C183.157 20.9528 183.119 20.5699 183.119 20.1583L183.109 20.1679ZM183.234 16.2244C182.659 14.6163 182.124 13.0849 181.578 11.5534C181.521 11.5534 181.454 11.5534 181.396 11.5534C180.851 13.0849 180.305 14.6163 179.741 16.2148H183.234V16.2244Z" fill="#666666"/>
<path id="Vector_8" d="M114.285 21.9957V20.2537C114.285 20.2537 114.361 20.1675 114.39 20.1675C115.223 20.2919 115.481 19.7942 115.72 19.0955C116.534 16.7121 117.405 14.3575 118.256 11.9837C118.304 11.8402 118.333 11.687 118.409 11.4286C118.094 11.4094 117.826 11.3616 117.558 11.3712C117.232 11.3712 117.108 11.2372 117.117 10.9213C117.127 10.481 117.117 10.0407 117.117 9.56212C117.338 9.54298 117.51 9.50469 117.672 9.50469C119.634 9.50469 121.606 9.51426 123.567 9.49512C124.027 9.49512 124.209 9.63869 124.161 10.0886C124.161 10.146 124.161 10.2034 124.161 10.2608C124.161 10.9309 123.826 11.3042 123.156 11.3807C123.098 11.3807 123.051 11.419 122.907 11.4764C123.022 11.8689 123.127 12.2613 123.271 12.6442C124.103 14.9797 124.945 17.3056 125.778 19.6411C125.893 19.9761 126.065 20.1675 126.448 20.1197C126.61 20.1005 126.783 20.1388 126.993 20.1484V21.9766H125.271C124.496 21.9766 123.73 21.9574 122.955 21.9766C122.448 21.9957 122.237 21.8617 122.247 21.3065C122.275 20.2058 122.247 20.2058 123.328 20.0909C123.395 20.0909 123.462 20.0431 123.634 19.9952C123.424 19.3826 123.232 18.7892 122.993 18.2053C122.945 18.1 122.706 18.0235 122.553 18.0235C121.242 18.0043 119.931 18.0043 118.62 18.0235C118.457 18.0235 118.228 18.1862 118.161 18.3393C117.969 18.7509 117.835 19.2008 117.692 19.6411C117.577 19.9761 117.739 20.0814 118.065 20.1005C119.031 20.1579 119.031 20.1675 119.031 21.1725C119.031 21.6958 118.767 21.9606 118.237 21.967C116.955 21.967 115.663 21.967 114.304 21.967L114.285 21.9957ZM120.696 11.6009C120.62 11.6105 120.543 11.6296 120.476 11.6392C119.95 13.1419 119.414 14.6447 118.859 16.2336H122.352C121.778 14.6351 121.242 13.1132 120.696 11.6009Z" fill="#666666"/>
<path id="Vector_9" d="M127.979 20.1868C128.189 20.1676 128.323 20.1389 128.448 20.1389C129.491 20.1389 129.414 20.1963 129.414 19.1626C129.414 16.7984 129.405 14.4246 129.424 12.0604C129.424 11.5244 129.242 11.3521 128.725 11.3713C127.979 11.3904 127.969 11.3713 127.969 10.6151V9.55265C128.209 9.53351 128.381 9.51437 128.544 9.51437C130.122 9.51437 131.701 9.49522 133.28 9.51437C134.668 9.53351 135.998 9.8398 137.194 10.5481C139.185 11.7254 139.95 13.5632 139.912 15.8029C139.845 19.7273 137.233 21.5842 134.017 21.8905C132.161 22.0628 130.285 21.9671 128.419 21.9958C128.113 21.9958 127.95 21.9001 127.96 21.5651C127.979 21.1056 127.96 20.6462 127.96 20.1772L127.979 20.1868ZM131.529 15.7742C131.529 16.741 131.52 17.6981 131.529 18.6649C131.558 20.3878 131.252 20.158 133.041 20.1198C135.51 20.0623 137.099 18.9329 137.577 16.8654C138.075 14.6831 137.395 12.5582 134.984 11.7637C134.161 11.4861 133.252 11.4478 132.371 11.3904C131.529 11.333 131.529 11.3808 131.529 12.1944C131.529 13.3909 131.529 14.5778 131.529 15.7742Z" fill="#666666"/>
<path id="Vector_10" d="M115.5 32.2856C116.84 32.4101 118.208 32.3909 119.51 32.6781C122.697 33.3864 124.352 35.7506 124.142 39.0241C123.95 42.0009 122.151 44.1832 119.165 44.5948C117.003 44.8915 114.792 44.7958 112.601 44.8724C112.562 44.8724 112.514 44.8724 112.486 44.8628C111.921 44.4608 112.323 43.8865 112.227 43.3983C112.16 43.0825 112.39 43.0346 112.658 43.0155C113.692 42.958 113.692 42.9485 113.692 41.9339C113.692 39.6175 113.682 37.3108 113.692 35.004C113.692 34.4776 113.567 34.2287 112.983 34.2574C112.218 34.2861 112.208 34.2574 112.218 33.463C112.227 32.2378 112.046 32.4196 113.299 32.4005C114.036 32.4005 114.763 32.4005 115.5 32.4005C115.5 32.3622 115.5 32.3239 115.5 32.2856ZM115.787 38.6317C115.787 39.8185 115.787 41.015 115.787 42.2114C115.787 43.0155 115.787 43.0442 116.562 43.0155C117.213 42.9963 117.864 42.9389 118.515 42.8336C120.275 42.5656 121.577 41.2543 121.893 39.4931C122.237 37.5405 121.539 35.8272 119.998 34.9657C118.907 34.3531 117.701 34.2574 116.476 34.2478C115.95 34.2478 115.759 34.401 115.768 34.937C115.797 36.1717 115.778 37.3969 115.778 38.6317H115.787Z" fill="#666666"/>
<path id="Vector_11" d="M98.8396 32.4194H103.816C103.816 32.9459 103.835 33.434 103.797 33.9317C103.797 34.0466 103.615 34.1902 103.481 34.238C103.328 34.2955 103.136 34.2763 102.964 34.2572C102.457 34.2093 102.294 34.4199 102.304 34.9272C102.323 36.7171 102.304 38.507 102.313 40.2969C102.332 41.9145 103.079 42.9195 104.466 43.1492C105.806 43.3694 107.376 42.7664 107.452 40.8999C107.538 38.842 107.49 36.7841 107.51 34.7262C107.51 34.3146 107.28 34.2572 106.945 34.2668C105.911 34.2668 106.007 34.372 106.007 33.2904C106.007 32.295 105.902 32.4099 106.916 32.4099C108.074 32.4099 109.232 32.429 110.38 32.4003C110.849 32.3907 111.012 32.563 110.964 33.0033C110.955 33.099 110.964 33.1947 110.964 33.2904C110.964 34.1997 110.964 34.2189 110.065 34.2668C109.653 34.2859 109.615 34.506 109.615 34.8315C109.615 36.6788 109.644 38.5261 109.615 40.3735C109.596 41.5986 109.357 42.7855 108.486 43.7427C107.433 44.8913 106.065 45.1689 104.591 45.1114C104.093 45.0923 103.596 44.9966 103.117 44.853C101.49 44.3648 100.543 43.2162 100.352 41.5795C100.189 40.2299 100.237 38.8516 100.208 37.4924C100.189 36.6405 100.189 35.7982 100.208 34.9463C100.227 34.4582 100.074 34.1998 99.5573 34.2763C99.0022 34.3529 98.7822 34.1423 98.8491 33.5776C98.8874 33.2234 98.8491 32.8501 98.8491 32.4386L98.8396 32.4194Z" fill="#666666"/>
<path id="Vector_12" d="M148.86 18.4829C149.463 18.4829 150.018 18.4638 150.563 18.502C150.678 18.502 150.869 18.7318 150.869 18.8658C150.888 19.7751 150.869 20.6748 150.879 21.5841C150.879 22.034 150.582 22.0053 150.286 22.0053H144.965C143.998 22.0053 143.041 21.9957 142.075 22.0053C141.683 22.0053 141.491 21.8904 141.539 21.4788C141.558 21.3448 141.539 21.2108 141.539 21.0768C141.539 20.1867 141.539 20.1675 142.458 20.1388C142.869 20.1388 142.984 19.9569 142.984 19.5741C142.974 17.028 142.974 14.4915 142.984 11.9455C142.984 11.5147 142.821 11.3616 142.4 11.3712C141.462 11.3999 141.539 11.419 141.539 10.481C141.539 9.35154 141.415 9.51426 142.534 9.50469C145.099 9.50469 147.664 9.50469 150.228 9.49512C150.726 9.49512 150.917 9.61955 150.889 10.1364C150.85 10.9213 150.869 11.7157 150.889 12.5102C150.889 12.8835 150.745 13.0462 150.372 13.0175C150.314 13.0175 150.257 13.0175 150.199 13.0175C149.798 12.9983 149.271 13.1323 149.022 12.9313C148.802 12.7495 148.936 12.1848 148.841 11.8115C148.802 11.6487 148.592 11.3999 148.448 11.3999C147.482 11.3616 146.525 11.3807 145.558 11.3807C145.242 11.3807 145.099 11.5147 145.099 11.8306C145.099 12.6538 145.099 13.4865 145.099 14.3192C145.099 14.683 145.29 14.7787 145.606 14.7787C146.515 14.7787 147.415 14.7882 148.324 14.7787C148.716 14.7787 148.869 14.9031 148.869 15.3147C148.841 16.8461 149.003 16.559 147.616 16.5781C146.965 16.5877 146.305 16.5973 145.644 16.5781C145.271 16.5781 145.07 16.6739 145.089 17.095C145.108 17.9469 145.108 18.7892 145.089 19.6411C145.089 20.0144 145.233 20.1579 145.606 20.1484C146.534 20.1292 147.453 20.1292 148.381 20.1484C148.735 20.1484 148.869 20.0144 148.85 19.6698C148.831 19.3061 148.85 18.9423 148.85 18.502L148.86 18.4829Z" fill="#666666"/>
<path id="Vector_13" d="M112.227 18.6268C112.658 19.0671 113.06 19.4404 113.414 19.8711C113.491 19.9668 113.395 20.3018 113.28 20.4167C111.892 21.7376 110.208 22.2927 108.323 22.2257C106.361 22.1587 104.591 21.527 103.366 19.9094C101.739 17.7558 101.509 15.3628 102.61 12.9412C103.682 10.5674 105.672 9.41885 108.256 9.29442C109.73 9.21784 111.136 9.47628 112.352 10.3952C113.213 11.046 113.586 11.9745 113.337 12.7976C113.108 13.5538 112.505 13.9175 111.739 13.7739C110.955 13.6208 110.505 13.0848 110.639 12.2903C110.715 11.8118 110.534 11.6395 110.132 11.4959C106.84 10.3377 103.644 13.0369 104.237 16.4732C104.533 18.1578 105.395 19.4021 107.031 19.986C108.763 20.5985 110.323 20.2157 111.72 19.0671C111.864 18.9426 112.007 18.8086 112.218 18.6268H112.227Z" fill="#666666"/>
<path id="Vector_14" d="M142.821 41.5027C143.233 41.9334 143.644 42.3355 144.008 42.7758C144.075 42.8619 143.989 43.1682 143.874 43.2831C143.022 44.1062 142.017 44.6709 140.86 44.9102C138.505 45.3888 136.324 45.0538 134.496 43.3883C131.587 40.737 131.73 34.8026 136.266 32.7638C138.381 31.8162 140.544 31.8641 142.592 33.0414C143.262 33.4243 143.769 33.989 143.951 34.7643C144.247 36.0086 143.29 36.937 142.094 36.5925C141.51 36.4202 141.156 35.9607 141.242 35.262C141.319 34.6686 141.051 34.4963 140.582 34.3336C137.453 33.2328 134.266 35.9416 134.812 39.2534C135.414 42.9385 139.3 44.3742 142.238 42.0005C142.41 41.8569 142.582 41.7037 142.821 41.5123V41.5027Z" fill="#666666"/>
<path id="Vector_15" d="M170.162 44.8816C168.87 44.8816 167.578 44.8625 166.286 44.8912C165.798 44.9008 165.616 44.7285 165.683 44.2595C165.693 44.1638 165.683 44.068 165.683 43.9723C165.683 43.0726 165.683 43.0534 166.592 43.0247C166.956 43.0152 167.119 42.8812 167.119 42.5079C167.119 39.9235 167.119 37.3487 167.119 34.7644C167.119 34.2858 166.831 34.2571 166.468 34.2571C165.693 34.2571 165.683 34.238 165.693 33.4626C165.702 32.2088 165.54 32.4098 166.764 32.4002C167.941 32.3906 169.119 32.4098 170.296 32.3906C170.726 32.3906 170.908 32.5246 170.86 32.9554C170.86 33.0128 170.86 33.0702 170.86 33.1276C170.86 34.2092 170.86 34.2188 169.779 34.2571C169.396 34.2667 169.214 34.4007 169.214 34.8027C169.214 37.3679 169.214 39.9235 169.214 42.4887C169.214 42.8907 169.386 43.0343 169.769 43.0247C170.583 43.0056 171.387 43.0056 172.2 43.0247C172.611 43.0343 172.726 42.862 172.736 42.4791C172.765 41.2061 172.784 41.2444 174.066 41.1965C174.678 41.1774 174.822 41.388 174.793 41.9527C174.745 42.6993 174.755 43.4555 174.793 44.202C174.822 44.7285 174.659 44.9103 174.114 44.9008C172.803 44.8721 171.492 44.8912 170.181 44.8912L170.162 44.8816Z" fill="#666666"/>
<path id="Vector_16" d="M92.6672 34.2571V32.4576C92.8107 32.4289 92.9351 32.3906 93.0595 32.3906C94.5237 32.3906 95.9878 32.3906 97.452 32.3906C97.8156 32.3906 97.9974 32.5055 97.9592 32.8788C97.9496 33.0128 97.9592 33.1468 97.9592 33.2808C97.9592 34.1805 97.9592 34.2092 97.0596 34.2475C96.5907 34.2667 96.6099 34.5538 96.6099 34.8697C96.6099 36.8319 96.629 38.7941 96.6099 40.7562C96.5907 41.9431 96.3898 43.1013 95.5189 44.0106C93.6911 45.9345 89.6815 45.2262 88.9159 42.8046C88.7533 42.2781 88.7915 41.6081 88.9638 41.0817C89.1934 40.3542 90.0643 40.1245 90.7533 40.4691C91.337 40.7562 91.6146 41.5316 91.2509 42.1633C90.9734 42.6514 91.1935 42.8237 91.5667 42.9864C93.0883 43.6469 94.4184 42.9099 94.4854 41.2731C94.5716 39.0812 94.5141 36.8893 94.5237 34.6974C94.5237 34.3815 94.3706 34.2475 94.0644 34.2475C93.6242 34.2475 93.184 34.2475 92.6768 34.2475L92.6672 34.2571Z" fill="#666666"/>
<path id="Vector_17" d="M108.409 62.647C108.457 62.7044 108.476 62.714 108.476 62.7331C108.648 63.8721 108.62 63.9104 107.49 63.9104C106.849 63.9104 106.218 63.8913 105.586 63.9104C105.089 63.9296 105.012 63.6807 105.022 63.2691C105.031 62.9054 104.993 62.5321 105.538 62.6087C105.95 62.6661 106.084 62.4651 106.065 62.0727C106.045 61.6132 106.045 61.1442 106.065 60.6848C106.074 60.3115 105.912 60.1775 105.548 60.1871C104.562 60.2062 103.577 60.2062 102.6 60.1871C102.189 60.1871 102.045 60.3402 102.065 60.7326C102.084 61.0389 102.084 61.3548 102.065 61.6611C102.036 62.2354 102.017 62.7331 102.868 62.6374C103.328 62.5895 103.146 63.049 103.165 63.2978C103.184 63.5563 103.232 63.8817 102.821 63.8913C101.873 63.8913 100.935 63.92 99.9879 63.8913C99.4616 63.8721 99.6913 63.4031 99.653 63.116C99.6147 62.848 99.6626 62.58 100.026 62.6278C100.581 62.6948 100.648 62.3981 100.648 61.9387C100.629 60.4168 100.629 58.8949 100.648 57.373C100.648 56.9231 100.591 56.636 100.036 56.6551C99.4999 56.6743 99.6817 56.2244 99.653 55.9277C99.6243 55.631 99.6339 55.3342 100.074 55.3342C100.964 55.3342 101.844 55.3438 102.734 55.3342C103.213 55.3342 103.184 55.6597 103.175 55.966C103.165 56.2723 103.289 56.7125 102.754 56.6551C102.151 56.5977 102.065 56.8944 102.065 57.4017C102.074 58.9332 102.065 58.9332 103.586 58.9332C104.208 58.9332 104.821 58.9045 105.433 58.9332C105.959 58.9715 106.132 58.7513 106.084 58.2632C106.065 58.0334 106.065 57.8037 106.084 57.574C106.112 57.038 106.132 56.5881 105.347 56.6264C104.888 56.6455 105.05 56.1574 105.069 55.8894C105.079 55.698 105.27 55.3629 105.385 55.3534C106.323 55.3055 107.27 55.3247 108.218 55.3342C108.323 55.3342 108.495 55.4491 108.505 55.5352C108.543 55.8224 108.601 56.1478 108.505 56.3871C108.438 56.5403 108.084 56.5498 107.873 56.6743C107.73 56.7604 107.529 56.9136 107.529 57.038C107.51 58.7705 107.5 60.5029 107.529 62.2354C107.529 62.3598 107.758 62.5321 107.912 62.5991C108.074 62.6661 108.275 62.6278 108.428 62.6374L108.409 62.647Z" fill="#666666"/>
<path id="Vector_18" d="M174.143 9.50469C174.143 10.0694 174.162 10.5576 174.123 11.0553C174.123 11.1702 173.932 11.3137 173.798 11.352C173.616 11.3999 173.415 11.3807 173.224 11.3712C172.765 11.3329 172.631 11.553 172.631 11.9933C172.64 14.4915 172.65 16.9993 172.631 19.4975C172.631 19.9665 172.765 20.1867 173.253 20.1388C173.444 20.1197 173.635 20.1197 173.827 20.1388C173.922 20.1484 174.095 20.2345 174.095 20.2824C174.114 20.7992 174.114 21.3161 174.085 21.833C174.085 21.8904 173.836 21.9766 173.693 21.9766C172.267 21.9861 170.841 21.9766 169.415 21.9861C169.099 21.9861 168.946 21.8713 168.975 21.5458C168.985 21.431 168.975 21.3161 168.975 21.2012C168.975 20.1675 168.975 20.1484 169.98 20.1292C170.391 20.1292 170.506 19.9569 170.506 19.5741C170.506 17.0376 170.497 14.4915 170.506 11.955C170.506 11.4956 170.324 11.3233 169.884 11.3616C169.75 11.3712 169.616 11.352 169.482 11.3616C169.071 11.4094 168.965 11.2084 168.956 10.816C168.937 9.49512 168.927 9.49512 170.238 9.49512C171.501 9.49512 172.774 9.49512 174.114 9.49512L174.143 9.50469Z" fill="#666666"/>
<path id="Vector_19" d="M125.787 43.0155C126.151 43.0155 126.457 42.9963 126.764 43.0155C127.175 43.0442 127.299 42.8623 127.299 42.4699C127.29 39.9334 127.29 37.3873 127.299 34.8508C127.299 34.3914 127.137 34.2095 126.687 34.2574C126.515 34.2765 126.323 34.3053 126.17 34.2383C126.017 34.1712 125.816 34.0085 125.807 33.865C125.759 33.4151 125.787 32.9461 125.787 32.4579C125.979 32.4292 126.122 32.3909 126.266 32.3909C127.634 32.3909 129.003 32.4005 130.362 32.3813C130.792 32.3813 130.965 32.5249 130.917 32.9461C130.907 33.0418 130.917 33.1375 130.917 33.2332C130.917 34.2 130.917 34.2095 129.941 34.2478C129.548 34.2574 129.395 34.4105 129.405 34.803C129.414 37.3586 129.414 39.9238 129.405 42.4794C129.405 42.891 129.567 43.0346 129.96 43.0059C130.113 42.9963 130.266 43.0059 130.419 43.0059C130.496 43.0059 130.591 42.9867 130.649 43.025C131.223 43.3983 130.821 43.963 130.898 44.4321C130.917 44.5565 130.658 44.8436 130.524 44.8436C129.06 44.8724 127.596 44.8724 126.132 44.8436C126.017 44.8436 125.807 44.6331 125.797 44.5086C125.759 44.0396 125.787 43.5515 125.787 42.9963V43.0155Z" fill="#666666"/>
<path id="Vector_20" d="M148.381 32.3909C149.07 32.3909 149.769 32.41 150.458 32.3909C150.841 32.3813 150.984 32.5345 150.955 32.8982C150.946 33.013 150.955 33.1279 150.955 33.2428C150.955 34.1999 150.955 34.2191 149.979 34.2478C149.587 34.2573 149.434 34.4201 149.434 34.8029C149.434 37.3586 149.434 39.9238 149.434 42.4794C149.434 42.8814 149.606 43.0346 149.998 43.0058C150.152 42.9963 150.305 43.0058 150.458 43.0058C150.534 43.0058 150.63 42.9867 150.687 43.025C151.252 43.3696 150.86 43.9247 150.955 44.3746C151.013 44.6426 150.927 44.8723 150.573 44.8723C149.109 44.8723 147.644 44.8723 146.18 44.8723C146.142 44.8723 146.094 44.8723 146.065 44.8532C145.52 44.4416 145.884 43.8673 145.826 43.3791C145.817 43.2738 146.094 43.0441 146.257 43.025C147.348 42.9197 147.348 42.9388 147.348 41.8572C147.348 39.5888 147.348 37.3203 147.348 35.0422C147.348 34.2669 147.329 34.2573 146.582 34.2478C145.797 34.2478 145.788 34.2478 145.797 33.4438C145.797 32.2569 145.644 32.3909 146.831 32.3813C147.348 32.3813 147.864 32.3813 148.391 32.3813L148.381 32.3909Z" fill="#666666"/>
<path id="Vector_21" d="M124.342 55.3434C125.252 55.3434 126.151 55.353 127.06 55.3434C127.433 55.3434 127.587 55.4582 127.567 55.8411C127.548 56.3388 127.548 56.8461 127.567 57.3439C127.587 57.8033 127.28 57.7937 126.993 57.7554C126.697 57.7267 126.189 57.9469 126.228 57.363C126.276 56.6738 125.95 56.5398 125.366 56.5973C124.945 56.6356 124.515 56.6068 124.094 56.5973C123.749 56.5973 123.596 56.76 123.606 57.095C123.606 57.1141 123.606 57.1333 123.606 57.1524C123.51 58.971 123.51 58.9615 125.338 58.9806C125.673 58.9806 126.209 58.7222 126.228 59.4305C126.256 60.1292 126.228 60.1771 125.51 60.1771C125.051 60.1771 124.582 60.1866 124.122 60.1771C123.768 60.1675 123.615 60.2919 123.596 60.6748C123.491 62.6274 123.481 62.6083 125.443 62.637C125.988 62.637 126.276 62.5508 126.218 61.9287C126.17 61.3352 126.668 61.5458 126.965 61.5171C127.261 61.498 127.606 61.431 127.587 61.9383C127.567 62.4551 127.615 62.9816 127.567 63.4984C127.548 63.6516 127.319 63.8909 127.175 63.9004C125.328 63.9292 123.472 63.91 121.625 63.9196C121.079 63.9196 121.194 63.5463 121.194 63.24C121.194 62.9433 121.108 62.57 121.625 62.6274C122.065 62.6848 122.189 62.4838 122.18 62.0627C122.161 60.4642 122.161 58.8657 122.18 57.2673C122.18 56.8748 122.113 56.6356 121.644 56.6643C121.003 56.7121 121.232 56.2144 121.194 55.8985C121.146 55.5348 121.252 55.3242 121.692 55.3338C122.582 55.353 123.462 55.3338 124.352 55.3338L124.342 55.3434Z" fill="#666666"/>
<path id="Vector_22" d="M97.5573 61.6798C98.8204 62.6752 98.696 62.7039 97.5477 63.4027C95.2031 64.8384 92.0356 63.9483 90.9925 61.5649C90.3035 59.9952 90.3992 58.4254 91.4136 57.0088C92.4184 55.6113 93.8538 55.0849 95.5476 55.2189C96.3802 55.2859 97.1362 55.5156 97.7869 56.0421C98.3611 56.5111 98.5525 57.1907 98.3037 57.7267C98.0836 58.2053 97.7008 58.3584 97.2127 58.2531C96.7151 58.1383 96.4376 57.7937 96.5142 57.2864C96.5812 56.8844 96.3706 56.7887 96.074 56.6834C94.7247 56.2335 93.2509 56.7504 92.5524 57.9277C91.739 59.2869 91.9973 60.981 93.1744 62.0244C94.1983 62.9337 95.8922 62.9432 97.0788 62.0531C97.2415 61.9286 97.4042 61.7946 97.5573 61.6702V61.6798Z" fill="#666666"/>
<path id="Vector_23" d="M114.074 62.6658C114.237 62.6467 114.333 62.618 114.428 62.6276C114.916 62.7041 114.993 62.4457 114.993 62.0245C114.974 60.4452 114.974 58.8659 114.993 57.2961C114.993 56.8846 114.945 56.6453 114.438 56.6644C113.835 56.6931 114.103 56.1858 114.055 55.8987C114.007 55.5828 114.055 55.334 114.495 55.3435C115.366 55.3627 116.227 55.3627 117.098 55.3435C117.567 55.334 117.586 55.6211 117.567 55.9465C117.548 56.2624 117.701 56.7218 117.117 56.674C116.601 56.6357 116.457 56.8559 116.467 57.344C116.486 58.9042 116.486 60.4644 116.467 62.015C116.467 62.5031 116.629 62.6658 117.108 62.6371C117.51 62.6084 117.921 62.6084 118.323 62.6371C118.725 62.6658 118.917 62.5223 118.85 62.1107C118.735 61.412 119.194 61.479 119.653 61.4502C120.218 61.412 120.285 61.6991 120.256 62.149C120.237 62.551 120.228 62.9626 120.256 63.3646C120.285 63.7953 120.094 63.9293 119.682 63.9197C118.027 63.9006 116.371 63.891 114.715 63.9197C114.16 63.9293 113.988 63.7187 114.055 63.2114C114.074 63.0487 114.074 62.8764 114.084 62.6563L114.074 62.6658Z" fill="#666666"/>
<path id="Vector_24" d="M112.026 62.5605C112.18 62.5797 112.294 62.6275 112.4 62.6084C112.983 62.5127 113.05 62.8381 113.05 63.3167C113.05 63.7761 112.869 63.9197 112.428 63.9101C111.644 63.891 110.849 63.8814 110.065 63.9101C109.596 63.9293 109.452 63.7283 109.481 63.2976C109.5 62.9243 109.424 62.5222 110.017 62.6084C110.467 62.6754 110.562 62.4457 110.562 62.0341C110.543 60.4356 110.543 58.8372 110.562 57.2483C110.562 56.7888 110.409 56.607 109.959 56.6548C109.385 56.7123 109.49 56.2911 109.481 55.9561C109.471 55.6115 109.452 55.2956 109.969 55.3148C110.83 55.3435 111.701 55.3339 112.572 55.3148C113.089 55.3148 113.041 55.6594 113.041 55.9848C113.041 56.3102 113.089 56.7027 112.572 56.6453C112.055 56.5878 111.979 56.8558 111.979 57.2961C111.998 58.8563 111.979 60.4165 111.979 61.9671C111.979 62.1585 111.998 62.3404 112.007 62.5414L112.026 62.5605Z" fill="#666666"/>
</g>
</svg>
