<svg width="140" height="60" viewBox="0 0 140 60" fill="none" xmlns="http://www.w3.org/2000/svg">
<g id="Group">
<path id="Vector" d="M140 59.6121H52.4576V0.114746H140V59.6121ZM115.99 28.5043C116.047 28.5043 116.114 28.5043 116.172 28.5043C116.784 30.3325 117.387 32.1702 118.038 33.9888C118.162 34.3238 118.526 34.5823 118.775 34.8694C119.043 34.5918 119.425 34.3621 119.559 34.0367C120.095 32.7062 120.555 31.347 121.043 30.007C121.253 29.4327 121.473 28.868 121.799 28.0065C121.913 30.2176 122.057 32.0745 122.105 33.9314C122.134 34.8694 122.507 35.08 123.416 34.745C123.225 31.8639 123.043 28.9924 122.861 26.1879C121.741 25.8242 121.186 26.1209 120.899 27.1259C120.593 28.2075 120.143 29.2413 119.751 30.2942C119.473 31.0503 119.205 31.8161 118.861 32.7445C118.114 30.5813 117.483 28.6287 116.736 26.7144C116.612 26.3889 116.019 26.1592 115.607 26.0826C115.425 26.0444 114.966 26.4846 114.947 26.7431C114.727 29.3274 114.583 31.9213 114.421 34.5057C114.421 34.611 114.488 34.7163 114.555 34.8886C114.88 34.8598 115.205 34.8407 115.588 34.812C115.722 32.6584 115.856 30.5909 115.98 28.5138L115.99 28.5043ZM100.583 32.6009C99.3102 30.5813 98.0949 28.7053 96.9465 26.8005C96.4776 26.0156 95.9321 25.8529 95.157 26.1784V34.8886C95.5685 34.8503 95.8842 34.8216 96.3053 34.7928V28.131C97.6546 30.3037 98.8891 32.2181 100.047 34.1707C100.459 34.8694 100.947 35.0608 101.789 34.7258C101.789 32.1702 101.808 29.5763 101.76 26.9824C101.76 26.6665 101.406 26.3602 101.214 26.0444C101.004 26.3698 100.612 26.6857 100.602 27.0111C100.545 28.8201 100.573 30.6196 100.573 32.6105L100.583 32.6009ZM92.7646 30.4186C92.7646 28.198 91.6259 26.4846 89.8268 26.0252C87.5397 25.4509 85.4152 26.7239 84.8124 29.0307C84.1042 31.7586 85.2907 34.2855 87.5779 34.8981C90.3913 35.6543 92.755 33.606 92.7646 30.4186ZM104.162 31.2226C104.21 32.3425 104.727 33.874 106.468 34.6684C108.028 35.3863 109.569 35.1949 110.813 34.0463C112.42 32.5722 112.564 30.6387 111.99 28.667C111.33 26.4176 109.129 25.3648 106.899 26.1305C105.148 26.7335 104.162 28.3416 104.172 31.213L104.162 31.2226ZM73.8647 26.1784C73.8647 27.5184 73.8934 28.868 73.8647 30.208C73.8456 31.0503 73.8264 31.9213 73.6255 32.7349C73.4245 33.5772 72.7355 33.9697 71.8647 33.9697C70.9843 33.9697 70.3622 33.539 70.1421 32.6871C69.989 32.1319 69.922 31.5481 69.9125 30.9738C69.8838 29.5763 69.9316 28.1788 69.8742 26.7909C69.8646 26.5325 69.4818 26.2932 69.2713 26.0444C69.0607 26.2932 68.6875 26.5421 68.678 26.8005C68.6301 28.466 68.611 30.1315 68.678 31.7969C68.7545 33.9123 69.9125 35.0704 71.8264 35.08C73.7499 35.08 75.0034 33.941 75.1278 31.9118C75.2331 30.2463 75.1566 28.5808 75.1949 26.9154C75.214 25.9582 74.726 25.9295 73.8839 26.1879L73.8647 26.1784ZM125.292 34.7258C126.306 35.1374 126.67 34.7258 126.918 33.9123C127.11 33.2997 127.387 32.3999 127.856 32.2276C129.502 31.6246 130.469 32.1989 131.005 33.874C131.273 34.7163 131.655 35.1853 132.679 34.7163C131.751 32.0171 130.852 29.2987 129.875 26.6091C129.78 26.3315 129.244 26.0826 128.909 26.0731C128.631 26.0731 128.172 26.3698 128.076 26.6378C127.119 29.2987 126.229 31.9788 125.292 34.7258ZM66.7736 34.7258C65.8454 31.9979 64.9267 29.2604 63.9506 26.5421C63.8645 26.3124 63.4434 26.0635 63.1755 26.0635C62.8501 26.0635 62.3238 26.2358 62.2377 26.4655C61.2424 29.2126 60.3238 31.9788 59.3859 34.7354C60.4099 35.1374 60.7544 34.6876 61.0223 33.9123C61.2328 33.2997 61.5009 32.4095 61.9602 32.2372C63.5775 31.6342 64.5439 32.2085 65.0989 33.874C65.3765 34.6971 65.7305 35.1757 66.7736 34.7354V34.7258ZM69.2808 17.9467C70.4675 19.8611 71.4531 21.5074 72.5249 23.0963C72.7546 23.4409 73.2906 23.5749 73.6829 23.8046C73.8169 23.4409 74.056 23.0867 74.056 22.723C74.0943 20.9044 74.1039 19.0858 74.056 17.2671C74.0465 16.9034 73.7308 16.5493 73.5585 16.1855C73.3671 16.5301 73.0226 16.8651 73.013 17.2193C72.946 18.6646 72.9843 20.1099 72.9843 21.785C71.8646 19.9951 70.9172 18.4062 69.8646 16.8843C69.5871 16.4823 68.9939 16.3004 68.5441 16.0133C68.4388 16.109 68.3335 16.1951 68.2378 16.2908C68.2378 18.4923 68.2187 20.6938 68.2665 22.8857C68.2665 23.2016 68.611 23.4983 68.7928 23.8142C68.9555 23.4887 69.2617 23.1729 69.2713 22.8378C69.3191 21.316 69.2904 19.7845 69.2904 17.9467H69.2808ZM126.603 16.2143C126.516 16.4248 126.44 16.5301 126.44 16.6354C126.421 18.186 126.411 19.7366 126.402 21.2872C126.402 24.1109 126.689 24.3406 129.541 23.7567C129.914 23.6802 130.296 23.5844 130.651 23.4313C132.124 22.79 132.909 21.1532 132.679 19.2389C132.488 17.6309 131.493 16.4536 129.895 16.243C128.804 16.0994 127.674 16.2143 126.593 16.2143H126.603ZM110.459 20.0142C110.459 20.3971 110.459 20.7895 110.459 21.1724C110.459 24.1109 110.765 24.3597 113.703 23.7376C115.866 23.2781 116.947 21.7563 116.784 19.3921C116.65 17.449 115.406 16.3004 113.244 16.1473C112.631 16.0994 112.009 16.176 111.387 16.1473C110.708 16.1281 110.411 16.3961 110.449 17.1044C110.497 18.0712 110.459 19.0379 110.459 20.0046V20.0142ZM97.4346 20.0142C97.5303 19.9089 97.7886 19.6792 97.9896 19.4112C98.6977 18.454 98.4776 16.8747 97.4058 16.5301C96.3436 16.1951 95.1475 16.2717 94.0087 16.2334C93.8747 16.2334 93.6163 16.6833 93.6163 16.9321C93.5876 18.9805 93.578 21.0288 93.6163 23.0771C93.6163 23.326 93.9321 23.5653 94.1044 23.8046C94.2958 23.5462 94.6402 23.2973 94.6689 23.0293C94.7455 22.2444 94.6977 21.45 94.6977 20.6842C96.3341 20.5119 96.6499 20.7034 96.9944 21.9955C97.0901 22.3688 97.1761 22.7517 97.2718 23.125C97.4632 23.8429 97.8843 23.996 98.6499 23.6227C98.248 22.4167 97.8652 21.2681 97.4441 20.0142H97.4346ZM118.124 23.6227C119.129 24.1396 119.406 23.5366 119.531 22.8378C119.732 21.7371 120.287 21.4021 121.435 21.383C122.669 21.3542 122.823 22.0913 123.062 22.9049C123.272 23.6227 123.588 24.1013 124.507 23.6132C123.713 21.2872 122.938 18.9805 122.115 16.7024C122.028 16.4631 121.626 16.2143 121.349 16.2047C121.081 16.1856 120.612 16.3961 120.536 16.6067C119.693 18.9326 118.918 21.2681 118.124 23.6227ZM65.7401 16.2908C64.965 16.0324 64.6301 16.2143 64.6396 16.9991C64.6588 18.4732 64.6684 19.9472 64.5727 21.4117C64.5153 22.3688 63.9411 22.991 62.898 22.9719C61.9028 22.9527 61.4625 22.3018 61.3094 21.4212C61.2424 21.0384 61.252 20.6459 61.252 20.2631C61.252 19.1432 61.2808 18.0137 61.2233 16.8939C61.2138 16.645 60.8979 16.4153 60.7161 16.176C60.5152 16.3961 60.1515 16.6067 60.142 16.8269C60.0941 18.3392 60.0559 19.8515 60.1516 21.3638C60.2568 22.9814 61.252 23.8812 62.764 23.9194C64.4387 23.9577 65.587 23.1059 65.7114 21.45C65.8358 19.7653 65.7401 18.052 65.7401 16.2908ZM88.3914 17.0949C89.2335 17.0949 89.9702 17.1331 90.688 17.0757C90.9272 17.0566 91.1474 16.8077 91.3771 16.6641C91.1378 16.5014 90.8986 16.2143 90.6498 16.1951C89.7981 16.1377 88.9463 16.2047 88.0947 16.1568C87.3482 16.1185 87.1665 16.444 87.1856 17.1236C87.2239 18.2817 87.1952 19.4399 87.1952 20.6077C87.1952 22.841 88.3243 23.9194 90.5827 23.8429C90.5827 23.8429 90.6688 23.8524 90.6975 23.8429C90.9846 23.6706 91.2622 23.4983 91.5397 23.3164C91.2717 23.1729 91.0134 22.924 90.7454 22.9049C89.9894 22.8474 89.2144 22.8857 88.4009 22.8857V20.2918C89.1282 20.2918 89.8172 20.3301 90.4966 20.2726C90.7359 20.2535 90.9559 20.0142 91.1952 19.8706C90.9559 19.6983 90.7263 19.4112 90.4679 19.3825C89.798 19.3155 89.1187 19.3633 88.4009 19.3633V17.1044L88.3914 17.0949ZM80.9558 27.1642C81.6639 27.1642 82.286 27.2217 82.8793 27.1355C83.1568 27.0972 83.396 26.7622 83.6448 26.5612C83.4055 26.3794 83.1663 26.0539 82.9271 26.0444C81.1854 25.9965 79.4342 25.9965 77.6925 26.0444C77.4533 26.0444 77.2236 26.3889 76.994 26.5804C77.2141 26.7718 77.4246 27.1068 77.6638 27.1355C78.2954 27.2121 78.9462 27.1642 79.7309 27.1642V34.8981C80.2093 34.8598 80.5347 34.8216 80.9558 34.7833V27.1547V27.1642ZM79.2811 16.3196C80.0467 18.6742 80.7644 20.9618 81.5587 23.2303C81.6544 23.4983 82.1041 23.8142 82.3721 23.795C82.6496 23.7759 83.0323 23.4313 83.1471 23.1441C83.7596 21.5552 84.3147 19.9472 84.8793 18.3392C85.1185 17.6692 85.329 16.9991 85.5491 16.3291C84.6783 15.9845 84.3625 16.3483 84.152 17.0087C83.597 18.7029 83.0037 20.3875 82.3721 22.2635C81.7692 20.3588 81.195 18.6742 80.6974 16.9609C80.4869 16.2143 80.0945 16.0515 79.2811 16.3291V16.3196ZM59.4147 38.0855V44.0965C61.4626 44.5942 63.1851 44.1443 63.9985 42.9287C64.7258 41.8471 64.7545 40.0477 63.9698 39.1001C62.7545 37.6261 61.1276 37.8175 59.4243 38.0855H59.4147ZM100.066 22.6368C100.353 23.1059 100.487 23.6036 100.717 23.6514C101.416 23.8142 102.171 23.9099 102.889 23.8333C103.894 23.7184 104.612 23.1154 104.794 22.0625C104.985 20.9522 104.459 20.1961 103.502 19.6983C103.023 19.4495 102.449 19.3155 102.057 18.9805C101.75 18.722 101.435 18.1765 101.511 17.851C101.588 17.5064 102.085 17.1714 102.478 17.0279C102.803 16.913 103.234 17.1331 103.607 17.1044C103.884 17.0853 104.143 16.913 104.42 16.8173C104.219 16.5971 104.057 16.2908 103.808 16.1855C103.502 16.0515 103.128 16.0324 102.784 16.0324C101.482 16.0324 100.545 16.712 100.334 17.7553C100.124 18.789 100.64 19.6026 101.884 20.1769C102.267 20.3588 102.755 20.4449 103.023 20.7321C103.329 21.0575 103.703 21.6414 103.597 21.9668C103.473 22.3688 102.918 22.8283 102.487 22.9049C101.875 23.0101 101.205 22.79 100.085 22.6464L100.066 22.6368ZM97.157 40.4497C97.157 39.8371 97.2048 39.3011 97.1378 38.7842C97.0996 38.5066 96.8508 38.2674 96.6977 37.9993C96.535 38.2386 96.2288 38.4779 96.2192 38.7268C96.1714 40.3157 96.1714 41.9046 96.2192 43.4935C96.2192 43.7328 96.535 43.9721 96.7073 44.2113C96.8604 43.9816 97.1187 43.7711 97.1378 43.5318C97.1953 42.8522 97.157 42.163 97.157 41.4451H99.9514C99.9514 42.2013 99.9131 42.9 99.9705 43.5796C99.9897 43.7998 100.267 44.0008 100.43 44.2113C100.593 44.0008 100.889 43.7902 100.899 43.5796C100.937 41.9142 100.937 40.2487 100.899 38.5832C100.899 38.3918 100.564 38.2004 100.382 38.0089C100.238 38.2004 99.9897 38.3726 99.9705 38.5736C99.9131 39.1767 99.9514 39.7892 99.9514 40.4593H97.1666L97.157 40.4497ZM128.182 38.8034C128.871 38.8034 129.406 38.8512 129.942 38.7842C130.172 38.7555 130.383 38.5162 130.603 38.3631C130.373 38.2291 130.143 37.9993 129.904 37.9802C129.253 37.9228 128.574 37.8845 127.933 37.9993C127.655 38.0472 127.234 38.4684 127.225 38.7268C127.158 40.3061 127.167 41.9046 127.225 43.4839C127.225 43.7328 127.607 44.1539 127.847 44.1826C128.612 44.2688 129.397 44.2401 130.162 44.1922C130.354 44.1826 130.536 43.9242 130.727 43.7806C130.517 43.6562 130.325 43.4456 130.105 43.4265C129.502 43.3786 128.89 43.4073 128.229 43.4073V41.5217C128.995 41.0527 130 41.7993 130.67 40.6603C129.703 40.6124 128.957 40.5741 128.182 40.5358V38.7938V38.8034ZM71.0895 38.8034C71.7785 38.8034 72.3623 38.8417 72.9269 38.7842C73.1279 38.7651 73.3001 38.5258 73.4915 38.3822C73.3001 38.2482 73.1183 38.0185 72.9077 37.9898C72.4101 37.9323 71.8934 38.0089 71.3958 37.9515C70.4101 37.8366 69.9508 38.1429 70.0752 39.2149C70.1613 40.019 70.0944 40.8421 70.0944 41.6557C70.0944 43.4999 71.0161 44.3581 72.8599 44.2305C72.9364 44.2305 73.0322 44.2592 73.0896 44.2209C73.2715 44.0869 73.4436 43.9242 73.6255 43.7711C73.4532 43.6562 73.2809 43.4552 73.1087 43.4456C72.4675 43.4073 71.8168 43.4265 71.1182 43.4265V41.493C71.9317 41.3686 72.6685 41.2537 73.415 41.1388C73.3958 40.9857 73.3766 40.8326 73.3671 40.6794C73.0034 40.6507 72.6398 40.6124 72.2761 40.6028C71.9029 40.5933 71.5297 40.6028 71.0991 40.6028V38.8034H71.0895ZM90.9559 43.3499C90.1425 43.4265 89.7597 43.4839 89.3769 43.4935C87.9319 43.5222 87.0611 42.6703 87.0133 41.2154C86.9559 39.4542 88.0276 38.5832 89.9607 38.7459C90.1999 38.7651 90.4583 38.5928 90.7071 38.5066C90.554 38.3248 90.4392 38.0568 90.2478 37.9802C89.0899 37.5208 87.3386 38.1142 86.6113 39.1575C85.7596 40.3827 85.798 42.2013 86.6975 43.2925C87.4535 44.2018 89.2621 44.6612 90.3243 44.1635C90.5157 44.0773 90.621 43.7902 90.9464 43.3499H90.9559ZM77.616 16.3483C77.5012 16.2526 77.3768 16.1473 77.2619 16.0515C77.0131 16.31 76.5634 16.5588 76.5538 16.8173C76.4964 18.9422 76.506 21.0671 76.5538 23.192C76.5538 23.4026 76.9462 23.6036 77.1567 23.8142C77.3098 23.6036 77.6064 23.393 77.6064 23.1729C77.6351 20.8948 77.6256 18.6167 77.6256 16.3483H77.616ZM117.971 43.4265C117.971 41.761 117.99 40.287 117.952 38.8129C117.952 38.5354 117.693 38.2674 117.559 37.9993C117.387 38.2769 117.09 38.5545 117.071 38.8417C117.004 39.7701 117.043 40.6986 117.043 41.6366C117.043 44.3932 117.043 44.4028 119.799 44.2113C120.067 44.1922 120.315 43.9338 120.574 43.7902C120.335 43.6658 120.095 43.4648 119.847 43.436C119.282 43.3786 118.698 43.4169 117.971 43.4169V43.4265ZM107.99 19.9472C107.99 18.9422 108.019 17.9276 107.971 16.9226C107.961 16.6641 107.655 16.4344 107.483 16.1855C107.291 16.4057 106.928 16.6163 106.928 16.8364C106.88 18.9326 106.88 21.0288 106.928 23.125C106.928 23.3547 107.272 23.5844 107.463 23.8046C107.645 23.5653 107.961 23.3356 107.971 23.0867C108.028 22.0434 107.999 20.9905 107.999 19.9472H107.99ZM108.219 40.9378C108.219 41.7897 108.191 42.6512 108.239 43.4935C108.248 43.7328 108.507 43.9529 108.65 44.1826C108.813 43.9338 109.119 43.6945 109.119 43.4456C109.167 41.8567 109.157 40.2678 109.119 38.6694C109.119 38.4396 108.861 38.2099 108.717 37.9802C108.545 38.2195 108.258 38.4588 108.239 38.7172C108.172 39.4447 108.219 40.1913 108.219 40.9283V40.9378Z" fill="#666666"/>
<path id="Vector_2" d="M49.29 0.0859509V1.43555C49.29 20.3779 49.2805 39.3202 49.3187 58.2625C49.3187 59.4685 48.9934 59.7365 47.826 59.7269C32.3615 59.6886 16.8875 59.6886 1.42312 59.7269C0.274767 59.7269 0.0258789 59.3823 0.0258789 58.2816C0.0545876 39.301 0.0545876 20.3204 0.0258789 1.33984C0.0258789 0.258241 0.341726 -0.00976562 1.39438 -0.00976562C16.8971 0.0189493 32.4093 0.00937768 47.912 0.0189493C48.3235 0.0189493 48.7447 0.0572359 49.2805 0.0859509H49.29ZM39.8736 13.85H9.39453C9.39453 19.191 9.25104 24.4267 9.452 29.6528C9.55726 32.419 9.97829 35.2426 10.7343 37.894C12.7726 45.044 17.8827 49.6097 24.2178 52.998C24.4857 53.1416 24.9833 53.0746 25.2704 52.9119C26.3613 52.3185 27.4428 51.6963 28.4667 51.0071C34.2276 47.1306 38.1224 41.9715 39.309 35.0033C40.4861 28.0639 39.9214 21.067 39.998 14.0989C39.998 14.0318 39.931 13.9648 39.8736 13.8404V13.85ZM23.7297 9.72461V6.66168C23.4522 6.69996 23.1652 6.74782 22.9259 6.77654C23.0312 7.20726 23.1173 7.57098 23.2512 8.08785C22.4378 7.5327 21.8253 7.11154 21.0598 6.5851C21.1938 7.58056 21.3086 8.20271 21.3373 8.83444C21.3373 9.0163 21.0694 9.20774 20.9259 9.39917C20.7919 9.23645 20.5622 9.08331 20.5335 8.91102C20.457 8.26014 20.4474 7.5997 20.4091 6.8914C20.0646 6.94883 19.7392 6.99668 19.5191 7.03497C19.6435 8.00171 19.7583 8.89187 19.8732 9.82032C20.5526 9.76289 21.28 9.69589 22.0073 9.62889C21.9403 9.14074 21.8828 8.69087 21.7775 7.91556C22.5144 8.59515 23.0024 9.05459 23.7201 9.72461H23.7297ZM29.2705 9.48531C29.4428 8.55686 29.5863 7.83899 29.7394 7.00626C29.4619 6.97754 29.1078 6.92968 28.8686 6.91054C28.7633 7.8007 28.6677 8.58558 28.572 9.38003C28.438 9.40874 28.2944 9.43746 28.1604 9.46617C27.7202 8.54729 27.2705 7.62841 26.7442 6.5181C26.1604 7.63799 25.6915 8.53772 25.2226 9.44703C25.3566 9.49489 25.4618 9.56189 25.4905 9.53317C25.835 9.28431 26.1891 8.79615 26.4953 8.83444C26.8686 8.87273 27.146 9.51403 27.5384 9.60975C28.3518 9.81075 29.2227 9.88732 30.0648 9.8969C30.371 9.8969 30.6868 9.58103 31.0026 9.40874C30.9547 9.34174 30.8974 9.27474 30.8495 9.19816C30.3998 9.28431 29.9404 9.36088 29.2801 9.48531H29.2705ZM39.4047 12.2611C39.7779 11.3614 40.1224 10.5191 40.4669 9.67675C39.4238 8.79615 39.1655 10.5478 38.3329 10.4425C38.0267 9.79161 38.6392 8.72915 37.5387 8.58558C37.1559 9.46617 36.7826 10.2989 36.3998 11.1795C36.5816 11.2465 36.8496 11.3326 37.1175 11.4284C37.2132 11.0168 37.2898 10.6722 37.3759 10.3276C37.4525 10.3468 37.5195 10.3563 37.596 10.3755C37.6534 10.7775 37.7205 11.1795 37.7971 11.7251C38.266 11.3805 38.6295 11.1125 39.0027 10.8349C39.0506 10.8732 39.0889 10.9115 39.1367 10.9498C38.9357 11.2752 38.7349 11.6006 38.5052 11.9548C38.8593 12.0697 39.1846 12.1749 39.4143 12.2515L39.4047 12.2611ZM10.007 12.5482C10.6864 11.9931 11.4519 11.5145 11.9878 10.8541C12.1505 10.6531 11.7965 9.76289 11.452 9.49489C10.5333 8.79615 9.62425 9.3896 8.84911 9.70546C9.20319 10.5765 9.54766 11.4188 10.0166 12.5482H10.007ZM11.8634 8.61429C12.1027 9.15031 12.2175 9.60975 12.4855 9.95432C12.83 10.385 13.2511 10.8923 13.7391 11.0359C14.0167 11.1221 14.8014 10.5861 14.8205 10.2893C14.8684 9.49489 14.6386 8.69087 14.5046 7.82942C14.1888 7.95385 13.921 8.05914 13.6339 8.174C13.7105 8.308 13.7678 8.36543 13.7869 8.43243C13.9687 9.06416 14.1506 9.69589 14.2941 10.3372C14.2941 10.3659 13.7391 10.5669 13.7296 10.5478C13.4425 9.95433 13.184 9.34174 12.9352 8.72915C12.8969 8.62387 12.9352 8.48029 12.9352 8.308C12.5237 8.42286 12.2366 8.49943 11.8634 8.60472V8.61429ZM35.0506 7.91556C34.7157 7.85813 34.3902 7.8007 34.1127 7.75285C33.9883 8.34629 33.8735 8.86316 33.7586 9.38003C33.6151 10.0883 33.8065 10.6052 34.553 10.8062C35.2515 10.9881 35.7682 10.7679 36.0266 10.0692C36.2371 9.51403 36.4477 8.95887 36.6774 8.34629C36.419 8.308 36.1415 8.26014 35.9405 8.23143C35.8065 8.85359 35.7587 9.39917 35.5577 9.87775C35.462 10.1075 35.0602 10.2128 34.7922 10.3659C34.6774 10.117 34.4285 9.83947 34.4763 9.61932C34.5816 9.08331 34.8114 8.56644 35.041 7.91556H35.0506ZM17.9976 8.01128C17.6243 7.76242 17.3468 7.41784 17.0502 7.40827C16.1794 7.37955 15.4138 7.6667 15.299 8.69087C15.1937 9.60017 15.6434 10.2032 16.5334 10.3659C17.2415 10.4999 17.7775 10.2032 18.055 9.77246C17.3852 9.67675 16.7439 9.72461 16.2941 9.4566C16.0836 9.33217 16.074 8.41329 16.2941 8.16443C16.5238 7.91556 17.1746 8.06871 18.0071 8.02085L17.9976 8.01128ZM33.3472 8.41329L33.5768 8.308C33.4716 8.05914 33.3855 7.5997 33.2515 7.59013C32.5051 7.50398 31.749 7.51355 30.993 7.52313C30.9834 7.52313 30.9739 7.8007 30.9548 8.00171C31.2706 7.91556 31.5289 7.83899 31.9787 7.70499C31.7394 8.59515 31.5481 9.30345 31.328 10.0979C31.6247 10.1362 31.9691 10.1745 32.2275 10.2032C32.3711 9.38003 32.4955 8.66215 32.639 7.78156C32.9836 8.08785 33.1654 8.25057 33.3472 8.41329Z" fill="#666666"/>
<path id="Vector_3" d="M85.9511 30.5715C85.9989 30.1216 86.0085 29.8536 86.0563 29.5856C86.3338 27.9776 87.3674 26.9534 88.6975 26.963C90.0277 26.963 91.109 27.9967 91.3004 29.6143C91.3866 30.3609 91.3387 31.1745 91.1569 31.9019C90.8219 33.242 89.865 33.9694 88.6784 33.9598C87.5109 33.9598 86.5923 33.2132 86.1999 31.8828C86.0564 31.4042 86.0181 30.8969 85.9607 30.5715H85.9511Z" fill="#666666"/>
<path id="Vector_4" d="M111.004 30.5523C110.832 31.1457 110.708 31.8349 110.449 32.4666C110.057 33.3951 109.32 33.9215 108.277 33.9598C107.186 33.9885 106.258 33.4812 105.999 32.4953C105.703 31.385 105.607 30.1407 105.779 29.0017C105.971 27.7095 107.004 27.0012 108.133 26.9629C109.253 26.9246 110.2 27.6234 110.631 28.8581C110.803 29.3654 110.87 29.911 111.004 30.5523Z" fill="#666666"/>
<path id="Vector_5" d="M128.938 27.5664C129.378 28.8777 129.732 29.9019 130.115 31.0409H127.799C128.153 29.9689 128.497 28.9064 128.938 27.5664Z" fill="#666666"/>
<path id="Vector_6" d="M63.032 27.499C63.4626 28.8199 63.8263 29.9111 64.209 31.0788H61.9027C62.2664 29.9302 62.6109 28.8486 63.032 27.499Z" fill="#666666"/>
<path id="Vector_7" d="M127.617 17.0947C128.966 16.8745 130.162 16.9607 131.043 18.0518C131.732 18.9133 131.742 20.7128 131.091 21.6891C130.268 22.9238 129.033 23.0482 127.617 22.876V17.0851V17.0947Z" fill="#666666"/>
<path id="Vector_8" d="M111.636 22.9046C111.636 21.0764 111.598 19.4109 111.674 17.7454C111.684 17.4774 112.124 17.0563 112.421 17.018C114.028 16.7787 115.387 17.755 115.598 19.2099C115.885 21.2582 114.966 22.6653 113.167 22.9046C112.717 22.962 112.258 22.9046 111.645 22.9046H111.636Z" fill="#666666"/>
<path id="Vector_9" d="M94.5924 19.5832C95.1188 18.7026 93.8269 17.3913 95.4537 17.0084C96.4777 16.7692 97.2241 17.4487 97.2145 18.3198C97.2145 19.3535 96.4776 19.7555 94.5924 19.5832Z" fill="#666666"/>
<path id="Vector_10" d="M120.296 20.4928C120.622 19.5165 120.909 18.6168 121.282 17.4873C121.655 18.6072 121.942 19.4878 122.277 20.4928H120.296Z" fill="#666666"/>
<path id="Vector_11" d="M60.3716 38.8126C61.453 38.6308 62.4578 38.6116 63.1373 39.5592C63.7784 40.459 63.7209 41.4927 63.1946 42.4212C62.5917 43.474 61.5583 43.5889 60.3716 43.4262V38.8222V38.8126Z" fill="#666666"/>
<path id="Vector_12" d="M10.7247 15.1611H38.4765C38.5435 15.2856 38.62 15.3526 38.62 15.41C38.5913 21.488 38.9836 27.5851 38.1702 33.644C37.2515 40.5452 33.7491 45.8287 28.036 49.6287C23.9785 52.3279 25.3566 52.3183 21.2608 49.5999C14.8205 45.331 11.3084 39.253 10.9448 31.5287C10.696 26.3025 10.7343 21.0668 10.6482 15.8311C10.6482 15.6397 10.696 15.4483 10.7343 15.1611H10.7247ZM14.4377 26.2738C15.6339 26.6854 15.5574 27.6139 15.5382 28.571C15.5095 29.8919 15.4903 31.2128 15.5573 32.5241C15.6434 34.4193 16.7727 35.52 18.6579 35.6158C19.1268 35.6349 19.5861 35.6445 20.055 35.6158C21.8828 35.5009 22.9834 34.4097 23.0791 32.572C23.1365 31.4904 23.0885 30.3992 23.0981 29.3176C23.1077 28.169 22.8301 26.896 24.2943 26.3408H21.3278C21.6531 26.829 22.2273 27.3076 22.2655 27.8053C22.3804 29.4612 22.3708 31.1362 22.2655 32.8017C22.1603 34.314 21.1843 34.984 19.4809 34.8979C18.0455 34.8309 17.2703 34.0939 17.2129 32.639C17.1651 31.3564 17.1842 30.0833 17.1937 28.8007C17.2033 27.8149 16.8396 26.6375 18.342 26.2738H14.4473H14.4377ZM29.8734 25.7474C29.0887 27.4607 28.4667 28.9539 27.7394 30.3896C26.8973 32.0647 26.5145 34.0077 24.9451 35.3669H27.8925C26.7633 34.6969 26.8207 34.716 27.1365 33.6823C27.4236 32.7634 27.9212 32.3422 28.9069 32.4858C29.3662 32.5528 29.8542 32.572 30.304 32.4858C31.5289 32.2274 31.7969 33.1367 31.9978 33.9311C32.1127 34.3619 31.7969 34.8979 31.6821 35.3765H34.8496C34.4381 34.7734 33.9787 34.2374 33.6725 33.6153C32.6007 31.4234 31.5959 29.2027 30.5528 26.9917C30.3997 26.6567 30.1988 26.3408 29.883 25.757L29.8734 25.7474Z" fill="#666666"/>
<path id="Vector_13" d="M10.4855 11.6005C10.2366 11.0358 9.99739 10.4615 9.74858 9.89673C9.84428 9.79144 9.9496 9.67658 10.0453 9.57129C10.4472 9.8393 11.0118 10.0307 11.1936 10.4136C11.3371 10.7103 11.0022 11.2368 10.8778 11.6579C10.7439 11.6388 10.6099 11.6292 10.4759 11.6101L10.4855 11.6005Z" fill="#666666"/>
<path id="Vector_14" d="M31.0983 31.7776H28.0073C28.5049 30.629 28.9643 29.5762 29.5289 28.2744C30.1031 29.5666 30.5816 30.6099 31.0983 31.7776Z" fill="#666666"/>
</g>
</svg>
