<svg width="127" height="43" viewBox="0 0 127 43" fill="none" xmlns="http://www.w3.org/2000/svg">
<g id="Group">
<path id="Vector" d="M95.0244 15.4561C95.0244 20.4142 95.0244 25.3723 95.0244 30.3304C95.0244 30.7197 94.8298 30.9143 94.4407 30.9143C89.1391 30.9143 83.8376 30.8856 78.5361 30.9143C74.1436 30.943 70.5933 29.2105 67.7416 25.9466C65.6937 23.6015 64.4209 20.8928 64.0573 17.8011C63.4353 12.6037 64.7463 8.00932 68.4784 4.21895C70.7464 1.91218 73.4641 0.505144 76.6891 0.122278C77.1771 0.0648479 77.6652 0.0361328 78.1533 0.0361328C83.5888 0.0361328 89.0243 0.0361328 94.4694 0.0361328C95.0244 0.0361328 95.0244 0.0361334 95.0244 0.581718C95.0244 5.53983 95.0244 10.498 95.0244 15.4561ZM87.5888 15.4848C87.5888 12.9291 87.5888 10.3735 87.5888 7.82746C87.5888 7.2723 87.5889 7.2723 87.0625 7.2723C84.2108 7.2723 81.3591 7.2723 78.4977 7.2723C76.7274 7.2723 75.2154 7.9136 73.9522 9.14835C72.0096 11.0627 71.2536 13.3982 71.3971 16.0878C71.512 18.1744 72.2297 19.993 73.6555 21.5245C74.9666 22.9315 76.5647 23.6973 78.5265 23.6877C81.3686 23.6685 84.2108 23.6877 87.0434 23.6877C87.5793 23.6877 87.5793 23.6877 87.5793 23.1517C87.5793 20.596 87.5793 18.0404 87.5793 15.4944L87.5888 15.4848Z" fill="#666666"/>
<path id="Vector_2" d="M8.41975 18.9782C8.44846 19.1122 8.45804 19.1984 8.48674 19.2654C9.52983 21.4094 11.0514 22.9888 13.4534 23.5439C13.9127 23.6492 14.3912 23.6684 14.8696 23.6684C19.4822 23.6684 24.0851 23.6684 28.6977 23.6684H29.2048C29.2144 23.8311 29.2336 23.9459 29.2336 24.0608C29.2336 26.1953 29.2336 28.3297 29.2336 30.4642C29.2336 30.7992 29.1474 30.9141 28.8029 30.9141C23.9607 30.9141 19.1185 30.9428 14.2859 30.8949C10.0657 30.8567 6.69722 28.9806 3.98903 25.8315C2.03684 23.5631 0.802396 20.9404 0.429183 17.9732C-0.365092 11.6368 1.64449 6.42023 6.80249 2.53414C8.77382 1.04096 11.0418 0.256087 13.5203 0.0933685C14.1711 0.0550819 14.8218 0.0263672 15.4725 0.0263672C19.8745 0.0263672 24.2861 0.0263672 28.6881 0.0263672C28.8508 0.0263672 29.0135 0.0263672 29.2431 0.0263672V0.524093C29.2431 2.59157 29.2431 4.65905 29.2431 6.71695C29.2431 7.25296 29.2432 7.25296 28.7168 7.25296C24.133 7.25296 19.5491 7.25296 14.9653 7.25296C13.5681 7.25296 12.2858 7.59754 11.1471 8.43028C10.0178 9.25344 9.15662 10.3063 8.55374 11.5698C8.50589 11.6655 8.48671 11.7708 8.44843 11.9144H29.224V18.9591H8.44843L8.41975 18.9782Z" fill="#666666"/>
<path id="Vector_3" d="M62.1242 21.9648C62.1242 24.7789 62.1147 27.5929 62.1338 30.407C62.1338 30.8377 61.9998 30.9239 61.6075 30.9239C59.4639 30.9047 57.3107 30.9047 55.1671 30.9239C54.7843 30.9239 54.66 30.8282 54.66 30.4261C54.6695 25.2192 54.6312 20.0218 54.6886 14.8148C54.7174 11.905 53.3968 9.85667 50.9852 8.43049C47.4923 6.37259 42.4492 7.00431 39.7793 10.5075C38.9085 11.6466 38.4683 12.9387 38.4683 14.3649C38.4683 19.6868 38.4683 25.0182 38.4683 30.34C38.4683 30.8952 38.4683 30.8952 37.9132 30.9047C35.7601 30.9047 33.6164 30.9047 31.4729 30.9047C31.0996 30.9047 30.9944 30.7899 30.9944 30.4166C31.0039 24.9512 30.9657 19.4953 31.0135 14.0299C31.0422 10.6033 32.3246 7.63605 34.6691 5.12827C37.0519 2.58221 39.9228 0.907173 43.3774 0.304159C49.6838 -0.796581 55.9614 1.19432 59.9423 6.99474C61.4352 9.16751 62.1242 11.6083 62.1242 14.2405C62.1242 16.8057 62.1242 19.3805 62.1242 21.9457V21.9648Z" fill="#666666"/>
<path id="Vector_4" d="M117.656 30.8953C115.254 30.8953 112.843 30.9432 110.441 30.8858C107.427 30.7996 104.776 29.7084 102.489 27.7654C99.5508 25.2672 97.6369 22.1373 97.0436 18.3086C96.0387 11.8765 98.3451 5.73146 104.259 1.9698C106.029 0.840346 108.001 0.237331 110.096 0.122472C111.245 0.0650417 112.403 0.0554703 113.561 0.0554703C117.475 0.0554703 121.389 0.0554701 125.312 0.0458984C125.714 0.0458984 125.819 0.160759 125.81 0.543625C125.791 2.6111 125.81 4.67858 125.81 6.73648C125.81 7.28207 125.81 7.28207 125.274 7.28207C120.853 7.28207 116.432 7.28207 112.02 7.28207C108.125 7.28207 105.168 9.76112 104.489 13.6185C103.972 16.6049 104.508 19.3232 106.651 21.5917C107.934 22.9509 109.484 23.6975 111.379 23.6975C116.02 23.6975 120.652 23.6975 125.293 23.6879C125.695 23.6879 125.829 23.7645 125.829 24.1952C125.81 26.2722 125.81 28.3493 125.829 30.4359C125.829 30.8283 125.704 30.9432 125.322 30.9432C122.776 30.924 120.24 30.9432 117.695 30.9432C117.695 30.9432 117.695 30.9336 117.695 30.924L117.656 30.8953Z" fill="#666666"/>
<path id="Vector_5" d="M96.5172 36.5999C97.6369 36.5999 98.7086 36.5808 99.7804 36.5999C100.182 36.6095 100.326 36.5138 100.316 36.0831C100.278 35.1451 100.307 34.207 100.307 33.269V32.8096H102.173V36.5712H105.934V38.4377H102.202V42.1994C101.608 42.1994 101.072 42.2089 100.527 42.1802C100.45 42.1802 100.316 41.9696 100.316 41.8452C100.297 40.8785 100.307 39.9117 100.307 38.9546C100.307 38.811 100.307 38.6578 100.307 38.4473H96.5268V36.5808L96.5172 36.5999Z" fill="#666666"/>
<path id="Vector_6" d="M28.8699 39.9977H28.0661V36.3796C28.0661 36.3796 27.9991 36.3509 27.9608 36.3413C27.4345 37.1166 26.9082 37.8919 26.3627 38.6959C25.8268 37.9015 25.3101 37.1453 24.7933 36.3796C24.7646 36.3796 24.7263 36.3987 24.6976 36.3987V39.9689H23.8555V34.9151C24.4871 34.7141 24.7072 34.7907 25.0517 35.3171C25.4823 35.9776 25.9034 36.6284 26.3723 37.3463C26.6977 36.8582 26.9752 36.4274 27.2527 35.9967C27.3771 35.8053 27.5398 35.6234 27.6259 35.4128C27.8652 34.8385 28.2958 34.7332 28.8699 34.8768V39.9785V39.9977Z" fill="#666666"/>
<path id="Vector_7" d="M79.4643 38.3418V34.8768H80.2777V39.969C79.8566 40.0742 79.56 39.9977 79.292 39.634C78.5552 38.6289 77.7704 37.6526 76.9953 36.6667C76.9187 36.5615 76.8231 36.4753 76.6508 36.2839V39.9785H75.8183V34.8864C76.2776 34.8003 76.6221 34.8386 76.9379 35.2693C77.6365 36.236 78.3925 37.1645 79.1294 38.1025C79.2059 38.1982 79.2825 38.2844 79.359 38.3705C79.3877 38.3609 79.426 38.3513 79.4547 38.3418H79.4643Z" fill="#666666"/>
<path id="Vector_8" d="M51.2628 34.8864C51.7604 34.762 52.0953 34.8864 52.4016 35.298C53.0906 36.2552 53.8465 37.174 54.5738 38.1025C54.6504 38.1982 54.7269 38.2844 54.8896 38.4662V34.8768H55.7317V39.969C55.3203 40.0742 55.0236 40.0072 54.7556 39.634C54.0188 38.6289 53.2341 37.6526 52.459 36.6667C52.3824 36.5615 52.2867 36.4753 52.1144 36.2839V39.969H51.2819V34.8768L51.2628 34.8864Z" fill="#666666"/>
<path id="Vector_9" d="M114.613 39.5862C114.795 39.4522 114.872 39.3852 114.948 39.3278C115.187 39.4235 114.986 39.9595 114.68 39.9978C114.479 40.0169 114.259 39.9021 114.058 39.8159C113.972 39.7776 113.934 39.6532 113.867 39.567C113.254 40.2179 112.135 40.2658 111.972 39.5192C111.876 39.6245 111.79 39.8159 111.656 39.8542C110.613 40.1988 109.57 40.2849 108.613 39.634C107.733 39.031 107.417 37.8537 107.771 36.7051C108.077 35.7192 108.958 35.0397 110.02 35.0014C110.326 34.9918 110.642 35.0205 110.958 35.0588C111.809 35.1545 112.02 35.4417 111.953 36.418C111.8 36.3223 111.656 36.2744 111.561 36.1787C111.379 36.016 111.235 35.8054 111.044 35.6714C110.269 35.1162 109.398 35.3364 109.034 36.217C108.661 37.0976 108.623 38.0164 109.005 38.9066C109.379 39.7776 110.355 39.9978 111.101 39.4043C111.293 39.2512 111.427 39.0406 111.608 38.8779C111.723 38.7726 111.867 38.7152 112.087 38.5812C112.049 38.8587 112.029 39.0215 111.991 39.2895C112.384 38.6482 112.986 38.495 113.532 38.2749C114.001 38.0834 113.8 37.7293 113.762 37.4517C113.742 37.3081 113.532 37.088 113.388 37.0784C113.082 37.0497 112.862 37.2316 112.795 37.5666C112.728 37.9207 112.556 38.026 111.972 38.1122C112.039 37.9016 112.068 37.7006 112.163 37.5474C112.518 37.0018 113.36 36.7051 114.001 36.8583C114.317 36.9348 114.518 37.1167 114.537 37.4421C114.565 37.959 114.565 38.4759 114.585 38.9832C114.585 39.1555 114.604 39.3182 114.623 39.5958L114.613 39.5862ZM113.79 38.3706C113.484 38.5812 113.235 38.696 113.092 38.8779C112.977 39.031 112.948 39.2799 112.958 39.4905C112.958 39.5575 113.245 39.6915 113.302 39.6532C113.494 39.5383 113.695 39.366 113.771 39.1746C113.848 38.9832 113.79 38.7343 113.79 38.3706Z" fill="#666666"/>
<path id="Vector_10" d="M124.202 39.6343C123.819 40.2086 123.513 40.1894 122.987 39.5768C122.345 40.1416 121.762 40.2181 121.178 39.7779C121.13 39.8066 121.082 39.8353 121.025 39.8736C120.719 40.0746 120.384 40.1224 120.058 39.9597C119.704 39.7779 119.676 39.4237 119.676 39.0791C119.676 38.5814 119.676 38.0741 119.676 37.5764C119.676 37.5381 119.666 37.4998 119.656 37.4328C119.542 37.4041 119.408 37.3754 119.207 37.3179C119.618 36.9255 120.001 36.5618 120.451 36.1406C120.47 36.4756 120.479 36.7245 120.499 37.0021C120.719 37.0116 120.92 37.0212 121.13 37.0308C121.168 37.2286 120.948 37.3562 120.47 37.4137C120.47 38.055 120.47 38.6963 120.479 39.3471C120.479 39.4333 120.633 39.5864 120.7 39.5768C120.843 39.5577 121.073 39.4907 121.111 39.3854C121.341 38.7345 121.924 38.591 122.451 38.3517C122.939 38.1411 123.102 37.7391 122.843 37.2701C122.786 37.1648 122.575 37.0404 122.508 37.0691C122.307 37.1552 122.001 37.3084 121.972 37.4711C121.886 37.9497 121.58 38.0262 121.101 38.1315C121.178 37.8922 121.197 37.6912 121.293 37.5381C121.647 36.9925 122.489 36.6958 123.13 36.8489C123.446 36.9255 123.647 37.1074 123.666 37.4328C123.695 37.9592 123.704 38.4857 123.724 39.0217C123.724 39.1748 123.743 39.3376 123.762 39.5768C123.982 39.3758 124.288 39.395 124.212 39.06C124.307 39.06 124.451 39.0408 124.508 39.0983C124.671 39.261 124.767 39.4811 124.939 39.6343C125.188 39.8544 125.484 39.9406 125.8 39.7491C126.125 39.5481 126.116 39.1748 125.771 39.0121C125.513 38.8973 125.226 38.8398 124.958 38.7537C124.489 38.6005 124.25 38.2942 124.25 37.8252C124.25 37.3467 124.499 36.9542 124.977 36.8776C125.369 36.8202 125.81 36.8202 126.164 36.9638C126.365 37.0499 126.413 37.4807 126.527 37.7487C126.47 37.7869 126.413 37.8252 126.355 37.8731C126.259 37.787 126.135 37.7199 126.068 37.6147C125.886 37.3467 125.704 37.0595 125.35 37.1074C125.159 37.1361 124.987 37.3179 124.805 37.4328C124.929 37.6051 125.015 37.8252 125.178 37.9305C125.36 38.055 125.618 38.055 125.838 38.1315C126.432 38.3325 126.671 38.6675 126.614 39.2131C126.566 39.7109 126.212 40.0459 125.618 40.1224C125.015 40.199 124.432 40.0076 124.212 39.6534L124.202 39.6343ZM122.92 38.3804C122.613 38.591 122.365 38.6963 122.221 38.8877C122.106 39.0408 122.078 39.2897 122.087 39.5003C122.087 39.5673 122.365 39.7013 122.432 39.663C122.613 39.5577 122.824 39.4046 122.901 39.2227C122.977 39.0121 122.92 38.7537 122.92 38.3708V38.3804Z" fill="#666666"/>
<path id="Vector_11" d="M19.0324 38.2748V39.9881H18.219V34.8003C19.2525 34.8577 20.2765 34.8577 21.2909 35.0109C22.0277 35.1162 22.4105 35.6905 22.4583 36.437C22.5062 37.0688 22.1521 37.6335 21.5397 37.9398C21.444 37.9877 21.3483 38.0355 21.2047 38.1121C21.6545 38.7438 22.0851 39.3468 22.5445 39.9881C21.9703 40.0838 21.5014 40.0934 21.2239 39.5191C21.1186 39.299 20.9081 39.1363 20.8028 38.9257C20.4392 38.1408 19.798 38.1504 19.042 38.2844L19.0324 38.2748ZM19.9703 37.4516C20.2286 37.4516 20.487 37.4708 20.7454 37.4516C21.2143 37.4038 21.5588 37.0496 21.5971 36.6093C21.6354 36.1786 21.3578 35.7862 20.8698 35.6809C20.5731 35.6139 20.2573 35.6235 19.9415 35.6139C19.0324 35.6139 19.0324 35.6139 19.0324 36.5328C19.0324 37.4516 19.0324 37.4612 19.9703 37.4516Z" fill="#666666"/>
<path id="Vector_12" d="M16.8601 37.4327C16.8601 38.9354 15.6735 40.0936 14.1519 40.0936C12.6112 40.0936 11.4725 38.9354 11.4725 37.4135C11.4725 36.0352 12.4868 34.7909 14.2094 34.7813C15.7501 34.7717 16.8697 35.9299 16.8697 37.4327H16.8601ZM12.3433 37.4135C12.3433 38.5143 13.1184 39.3278 14.1711 39.3278C15.2142 39.3278 15.9893 38.5238 15.9893 37.4518C15.9893 36.3511 15.2142 35.5375 14.1615 35.5375C13.1184 35.5375 12.3433 36.3415 12.3433 37.4135Z" fill="#666666"/>
<path id="Vector_13" d="M49.8178 37.4231C49.8178 38.9258 48.6407 40.1127 47.1191 40.084C45.4158 40.0457 44.4205 38.8301 44.4301 37.4135C44.4301 36.0448 45.4349 34.8004 47.1574 34.7717C48.6885 34.7526 49.8273 35.9107 49.8273 37.4135L49.8178 37.4231ZM45.3009 37.4039C45.3009 38.5047 46.0761 39.3278 47.1191 39.3278C48.1622 39.3278 48.9469 38.5334 48.9469 37.4518C48.9469 36.351 48.1718 35.5279 47.1287 35.5279C46.0856 35.5279 45.3105 36.3223 45.3009 37.4039Z" fill="#666666"/>
<path id="Vector_14" d="M68.6219 39.2511V39.9785H64.8037V34.8481C65.3491 34.8481 65.8754 34.8481 66.4018 34.8481C67.0238 34.8481 67.6554 34.8577 68.2774 34.8481C68.5932 34.8481 68.5837 35.0204 68.5932 35.2406C68.5932 35.4703 68.5741 35.6234 68.2679 35.6234C67.4162 35.6043 66.5549 35.6234 65.665 35.6234V37.0496H68.2104V37.8249C67.5214 37.8249 66.8324 37.8441 66.1434 37.8249C65.7415 37.8058 65.598 37.9015 65.6171 38.3322C65.6458 39.2702 65.6171 39.2702 66.5549 39.2702H68.6219V39.2511Z" fill="#666666"/>
<path id="Vector_15" d="M30.1331 39.9785C30.6403 38.8203 31.1379 37.71 31.626 36.5997C31.8461 36.0924 32.0853 35.5947 32.2959 35.0778C32.4107 34.7907 32.6404 34.8385 32.8318 34.8672C32.9944 34.8959 33.2145 34.9725 33.2719 35.0874C33.9896 36.6667 34.6882 38.2556 35.3868 39.8349C35.406 39.8732 35.3964 39.9115 35.406 39.9498C34.6978 40.1221 34.6308 40.0838 34.3533 39.4329C33.9896 38.5715 34.2385 38.7246 33.3007 38.715C32.8126 38.715 32.3245 38.7246 31.8365 38.715C31.5877 38.7055 31.4537 38.8012 31.3867 39.0213C31.3485 39.1458 31.2814 39.2702 31.2336 39.3946C31.0422 39.8477 30.6786 40.0455 30.1427 39.9881L30.1331 39.9785ZM31.8365 37.911H33.7313C33.4155 37.2027 33.1188 36.5518 32.8318 35.9105C32.7935 35.9105 32.7552 35.9201 32.7265 35.9297C32.4394 36.5806 32.1523 37.2314 31.8461 37.9206L31.8365 37.911Z" fill="#666666"/>
<path id="Vector_16" d="M95.0914 39.9594C94.2684 40.0934 94.2684 40.0934 93.9813 39.4138C93.6272 38.5715 93.8569 38.7247 92.9573 38.7151C92.4597 38.7151 91.9526 38.6959 91.455 38.7247C91.3114 38.7342 91.1487 38.8778 91.0434 39.0022C90.9573 39.098 90.9286 39.2415 90.8808 39.3755C90.6894 39.8286 90.3353 40.036 89.8185 39.9977C89.8377 39.9115 89.8568 39.8254 89.8855 39.7488C90.5554 38.2269 91.2348 36.705 91.8951 35.1736C92.0195 34.8864 92.2014 34.8577 92.4598 34.8481C92.7277 34.8481 92.8617 34.9247 92.9765 35.1736C93.6655 36.7625 94.3737 38.3418 95.0914 39.9594ZM93.3689 37.9206C93.0531 37.2219 92.766 36.5615 92.4119 35.7862C92.0674 36.5615 91.7707 37.2219 91.4645 37.9206H93.3689Z" fill="#666666"/>
<path id="Vector_17" d="M7.45325 37.9496V39.9787H6.63028V34.8771C6.74511 34.8771 6.8791 34.8579 7.00351 34.8579C8.00831 34.8579 9.01308 34.8675 10.0179 34.8579C10.3337 34.8579 10.4103 34.9728 10.4103 35.2599C10.4103 35.5375 10.3241 35.6428 10.037 35.6332C9.29062 35.6141 8.54417 35.6332 7.79774 35.6332C7.53936 35.6332 7.44366 35.7098 7.43409 35.9778C7.39581 37.1455 7.38628 37.1455 8.55377 37.1455C8.94613 37.1455 9.33846 37.1647 9.73081 37.1455C10.0562 37.1264 10.0753 37.3083 10.0753 37.5475C10.0753 37.7868 10.037 37.9208 9.74039 37.9208C9.02267 37.9017 8.30494 37.9208 7.57766 37.9208C7.54895 37.9208 7.52979 37.94 7.43409 37.9687L7.45325 37.9496Z" fill="#666666"/>
<path id="Vector_18" d="M40.7267 35.5659C40.5544 35.7573 40.3917 35.9392 40.2386 36.1115C38.7745 35.3649 37.9324 35.4032 37.3199 36.2551C36.784 37.0016 36.8606 38.1694 37.4922 38.8107C38.2003 39.5286 39.1094 39.4998 40.2578 38.6863C40.4109 38.849 40.5736 39.0213 40.7363 39.184C39.8654 40.2656 38.0663 40.3804 36.9754 39.452C35.8844 38.514 35.7888 36.7241 36.7553 35.6425C37.7314 34.5513 39.5592 34.5034 40.7171 35.5659H40.7267Z" fill="#666666"/>
<path id="Vector_19" d="M73.9714 38.696C74.134 38.8492 74.2967 39.0023 74.4498 39.1459C73.6077 40.2466 71.7704 40.3806 70.6794 39.4522C69.5694 38.5046 69.4832 36.6381 70.4976 35.5757C71.512 34.5228 73.3972 34.5036 74.402 35.5757C74.2489 35.7575 74.0862 35.9298 73.9139 36.1404C73.3398 35.7192 72.7369 35.3555 72.0287 35.6044C71.6651 35.7288 71.2823 35.9681 71.0431 36.2553C70.4593 36.9444 70.555 38.1122 71.1675 38.7726C71.8565 39.5192 72.689 39.5 73.9809 38.696H73.9714Z" fill="#666666"/>
<path id="Vector_20" d="M88.3831 36.1119C86.986 35.3558 86.1151 35.394 85.4931 36.2268C84.9381 36.9638 85.0051 38.122 85.6271 38.7824C86.3352 39.529 87.2443 39.5003 88.431 38.6675C88.5649 38.8303 88.7181 39.0026 88.8616 39.1748C88.2204 40.1703 86.4022 40.3713 85.2826 39.5673C84.0864 38.7058 83.8854 36.8489 84.8615 35.6908C85.8185 34.5517 87.7133 34.4752 88.8712 35.5663C88.7085 35.7482 88.5458 35.9396 88.3831 36.1215V36.1119Z" fill="#666666"/>
<path id="Vector_21" d="M63.6266 35.6235C63.1864 35.6235 62.7654 35.6331 62.3539 35.6235C62.0476 35.614 61.952 35.7384 61.9615 36.0256C61.9711 37.1933 61.9615 38.361 61.9615 39.5288C61.9615 39.6724 61.9615 39.8159 61.9615 39.9882H61.1098C61.1098 39.6915 61.1098 39.4139 61.1098 39.1268C61.1098 38.0835 61.1098 37.0401 61.1098 35.9873C61.1098 35.7097 61.0237 35.5948 60.7366 35.614C60.3347 35.6331 59.9232 35.614 59.4926 35.614V34.877H63.6266V35.614V35.6235Z" fill="#666666"/>
<path id="Vector_22" d="M82.804 39.998H82.0193V34.8867H82.804V39.998Z" fill="#666666"/>
<path id="Vector_23" d="M42.9851 39.9884H42.2099V34.8867H42.9851V39.9884Z" fill="#666666"/>
<path id="Vector_24" d="M115.159 39.9502C115.656 39.3472 115.685 39.3472 115.647 38.6867C115.628 38.2369 115.867 37.6817 115.197 37.4137C115.599 37.1265 115.953 36.8585 116.384 36.5522V37.3276C116.546 37.1553 116.642 36.9734 116.776 36.9255C116.967 36.8681 117.245 36.8394 117.379 36.9447C117.484 37.0308 117.503 37.3467 117.446 37.5094C117.35 37.7583 117.092 37.7296 116.891 37.5956C116.671 37.452 116.489 37.519 116.47 37.7487C116.441 38.3421 116.451 38.9356 116.479 39.5195C116.479 39.596 116.671 39.6726 116.786 39.73C116.872 39.7779 116.977 39.8066 117.073 39.8449L117.054 39.9598H115.159V39.9502Z" fill="#666666"/>
<path id="Vector_25" d="M119.589 39.95C119.494 39.9978 119.465 40.0266 119.427 40.0266C118.862 40.0266 118.288 40.0266 117.589 40.0266C117.743 39.883 117.81 39.7681 117.886 39.7585C118.183 39.7394 118.24 39.548 118.24 39.3087C118.24 38.7918 118.24 38.2749 118.259 37.7581C118.278 37.3561 117.924 37.3848 117.666 37.2316C118.135 37.0115 118.546 36.8105 119.006 36.5903C119.006 37.4805 119.006 38.3228 119.006 39.1555C119.006 39.4905 119.006 39.7873 119.446 39.7968C119.484 39.7968 119.513 39.8638 119.589 39.9308V39.95Z" fill="#666666"/>
<path id="Vector_26" d="M100.125 36.3127C99.7326 36.4467 99.4551 36.3797 99.235 36.1404C98.9097 35.7958 98.5939 35.4416 98.2781 35.0971C98.058 34.8482 97.8379 34.5898 97.6178 34.3313C97.8857 34.0059 98.3451 33.958 98.6896 34.293C99.1393 34.7333 99.5987 35.1736 100.01 35.6522C100.135 35.7958 100.096 36.0734 100.125 36.3031V36.3127Z" fill="#666666"/>
<path id="Vector_27" d="M102.45 38.5811C102.709 38.6863 103.015 38.7246 103.216 38.8969C103.599 39.2319 103.924 39.6435 104.269 40.0168C104.46 40.2274 104.661 40.4284 104.852 40.639C104.642 41.0027 104.125 41.0697 103.771 40.7347C103.312 40.304 102.852 39.8541 102.45 39.3755C102.326 39.2224 102.374 38.9256 102.345 38.6959C102.374 38.6576 102.412 38.6193 102.441 38.5811H102.45Z" fill="#666666"/>
<path id="Vector_28" d="M98.0771 41.156C97.6847 40.7827 97.6847 40.3711 98.0579 39.9883C98.479 39.5671 98.8809 39.1268 99.3403 38.7535C99.4934 38.6195 99.7805 38.6483 100.01 38.5908C100.173 38.9641 100.077 39.2417 99.8666 39.4618C99.5795 39.7681 99.2637 40.0457 98.9575 40.3329C98.6704 40.6009 98.3929 40.8689 98.0867 41.156H98.0771Z" fill="#666666"/>
<path id="Vector_29" d="M104.393 33.8623C104.766 34.2452 104.766 34.695 104.403 35.0492C103.991 35.4512 103.589 35.8819 103.139 36.2456C102.967 36.3797 102.67 36.3605 102.431 36.4084C102.278 35.9872 102.431 35.7096 102.68 35.4799C103.245 34.9343 103.819 34.4079 104.393 33.8623Z" fill="#666666"/>
<path id="Vector_30" d="M105.101 34.6663C105.379 34.9343 105.427 35.2502 105.245 35.5852C104.919 36.2073 104.278 36.4658 103.293 36.2935C103.924 35.7192 104.498 35.2023 105.101 34.6567V34.6663Z" fill="#666666"/>
<path id="Vector_31" d="M102.489 39.615C102.747 39.8926 103.015 40.1702 103.273 40.4573C103.532 40.7445 103.79 41.0508 104.068 41.3667C103.876 41.6825 103.532 41.6921 103.273 41.5389C102.958 41.3571 102.632 41.0795 102.479 40.7541C102.326 40.4573 102.383 40.0458 102.355 39.6916C102.403 39.6629 102.45 39.6342 102.498 39.6055L102.489 39.615Z" fill="#666666"/>
<path id="Vector_32" d="M97.3594 40.3616C97.0627 40.0936 97.0531 39.7682 97.2062 39.4427C97.4646 38.8684 98.1919 38.5908 99.1967 38.7057C98.546 39.2991 97.9623 39.816 97.3689 40.3616H97.3594Z" fill="#666666"/>
<path id="Vector_33" d="M100.01 35.461C99.4456 34.8293 98.9288 34.255 98.3929 33.6616C98.6321 33.3553 98.9575 33.3553 99.2733 33.4893C99.8953 33.7477 100.211 34.5613 100.01 35.461Z" fill="#666666"/>
<path id="Vector_34" d="M103.513 33.3646C103.905 33.69 103.924 34.0346 103.551 34.3887C103.187 34.7333 102.804 35.0492 102.316 35.365C102.383 34.963 102.345 34.494 102.536 34.1686C102.737 33.8336 103.168 33.6326 103.513 33.355V33.3646Z" fill="#666666"/>
<path id="Vector_35" d="M100.048 39.6245C100.077 39.8255 100.087 39.9978 100.115 40.1701C100.182 40.5625 100.048 40.8593 99.7135 41.0794C99.5126 41.2134 99.302 41.357 99.1393 41.5293C98.8905 41.7973 98.7661 41.6154 98.7087 41.4048C98.6034 41.0603 98.7183 40.7635 98.9958 40.5338C99.3307 40.2467 99.6752 39.9499 100.048 39.6245Z" fill="#666666"/>
<path id="Vector_36" d="M97.0627 35.2503C97.4168 34.8387 97.7708 34.8291 98.1632 35.2503C98.4886 35.5949 98.7757 35.9586 99.101 36.351C98.68 36.3319 98.2398 36.5903 97.8761 36.2362C97.5795 35.949 97.3402 35.5949 97.0627 35.2503Z" fill="#666666"/>
<path id="Vector_37" d="M105.398 39.7779C105.13 40.1607 104.69 40.1703 104.316 39.7779C103.991 39.4333 103.694 39.0696 103.388 38.7154C104.403 38.4761 104.498 38.524 105.398 39.7779Z" fill="#666666"/>
<path id="Vector_38" d="M46.8512 34.2644C47.1095 33.9294 47.3488 33.6231 47.6072 33.2881C47.8273 33.3838 48.0473 33.4795 48.344 33.6039C47.8464 33.9007 47.5497 34.4367 46.8512 34.2644Z" fill="#666666"/>
<path id="Vector_39" d="M118.192 35.5089C118.173 35.2026 118.336 35.0303 118.623 35.0303C118.891 35.0303 119.092 35.1643 119.101 35.4706C119.101 35.7673 118.977 35.9874 118.661 36.0066C118.355 36.0162 118.211 35.8056 118.192 35.5089Z" fill="#666666"/>
<path id="Vector_40" d="M66.5167 34.2355C66.6124 34.1015 66.708 33.9675 66.8037 33.8431C67.0717 33.4921 67.4002 33.4315 67.7894 33.6612C67.4544 34.1972 66.9473 34.427 66.5071 34.2355H66.5167Z" fill="#666666"/>
</g>
</svg>
